<?xml version="1.0" standalone="no"?>
<!DOCTYPE svg PUBLIC "-//W3C//DTD SVG 1.1//EN" "http://www.w3.org/Graphics/SVG/1.1/DTD/svg11.dtd" >
<svg xmlns="http://www.w3.org/2000/svg" xmlns:xlink="http://www.w3.org/1999/xlink" version="1.1">
<metadata>
Created by FontForge 20161013 at Tue Aug  1 17:32:55 2017
 By ,,,
Copyright 2017 The Sedgwick Ave Project Authors (https://github.com/googlefonts/sedgwickave)
</metadata>
<defs>
<font id="SedgwickAveDisplay-Regular" horiz-adv-x="600" >
  <font-face 
    font-family="Sedgwick Ave Display"
    font-weight="400"
    font-stretch="normal"
    units-per-em="1000"
    panose-1="0 0 5 0 0 0 0 0 0 0"
    ascent="800"
    descent="-200"
    x-height="604"
    cap-height="890"
    bbox="-600 -551 1822.45 2555"
    underline-thickness="50"
    underline-position="-150"
    unicode-range="U+000D-FB02"
  />
<missing-glyph 
 />
    <glyph glyph-name="fi" unicode="fi" horiz-adv-x="461" 
d="M38 310h-17q-10 1 -15.5 6.5t-5.5 13.5q0 20 28 34l11 6q0 57 -5 102.5t-17 109.5v7q-5 7 -5 12q0 18 29.5 36t55.5 18q8 0 18 -4l39 -23q49 -30 83.5 -47t66.5 -17q31 0 52 21q10 10 32.5 17.5t42.5 7.5q30 0 30 -18q0 -10 -9 -22q-31 -42 -78.5 -64.5t-102.5 -22.5
q-56 0 -118 30q4 -35 6.5 -64t2.5 -65q7 0 15 -1t16 -1q46 -2 123 -7l37 -3l7 -1l10 1q16 0 25.5 -6.5t8.5 -20.5l-4 -58q-4 -58 -6.5 -115t-2.5 -118q0 -21 -26.5 -36.5t-55.5 -15.5q-17 0 -27.5 7t-11.5 22l-1 44q0 79 13 222q-14 0 -94 2l-23 1q-4 -46 -13.5 -105.5
t-21.5 -110.5q-4 -21 -33.5 -36t-57.5 -15q-17 0 -26 6.5t-6 20.5q23 102 31 250z" />
    <glyph glyph-name="fl" unicode="fl" horiz-adv-x="573" 
d="M485 655.5q30 15.5 57 15.5q32 0 31 -24l-21 -228q-19 -207 -28 -338q-1 -21 -30 -37.5t-58 -16.5q-38 0 -37 29q15 198 24 299.5t30 265.5q2 19 32 34.5zM390.5 602.5q22.5 7.5 42.5 7.5q30 0 30 -18q0 -10 -9 -22q-31 -42 -78.5 -64.5t-102.5 -22.5q-56 0 -118 30
q9 -78 9 -156l31 -1q46 -2 123 -7l37 -3q36 -3 36 -23q0 -17 -22.5 -35t-45.5 -18q-41 0 -99 4l-63 3q-8 -102 -29 -193q-4 -21 -33.5 -36t-57.5 -15q-17 0 -26 6.5t-6 20.5q25 110 31 224h-17v0q-23 0 -23 14q0 10 9.5 22t20.5 18l11 6q0 121 -22 238v7q-5 7 -5 12
q0 18 29.5 36t55.5 18q8 0 18 -4l39 -23q49 -30 83.5 -47t66.5 -17q31 0 52 21q10 10 32.5 17.5z" />
    <glyph glyph-name="f_f" unicode="ff" horiz-adv-x="932" 
d="M40 288h-17v0q-23 0 -23 15q0 9 10 21.5t20 17.5l11 6q0 117 -22 234v7q-5 7 -5 12q0 18 29.5 36t55.5 18q8 0 18 -4l39 -23q49 -30 83.5 -47t66.5 -17q31 0 52 21q10 10 32.5 17.5t42.5 7.5q30 0 30 -18q0 -10 -9 -22q-31 -42 -78.5 -64.5t-102.5 -22.5q-56 0 -118 30
q9 -78 9 -152l31 -1h315q-1 110 -21 222q-1 3 -1 7q-5 7 -5 12q0 18 29 35.5t55 17.5q12 0 19 -4q12 -6 22.5 -12.5t19.5 -11.5q48 -30 82 -46t65 -16t52 21q10 10 32.5 17.5t42.5 7.5q30 0 30 -18q0 -10 -9 -22q-31 -42 -78.5 -64.5t-102.5 -22.5q-56 0 -118 30
q9 -78 9 -156l31 -1q41 -1 91 -5l39 -3q36 -3 36 -23q0 -17 -22.5 -35t-45.5 -18q-37 0 -79 2l-53 3q-8 -102 -29 -193q-4 -21 -33.5 -36t-57.5 -15q-16 0 -25 6.5t-6 20.5q24 111 30 220h-192q-127 0 -156 1q-8 -108 -29 -197q-4 -21 -33.5 -36t-57.5 -15q-17 0 -26 6.5
t-6 20.5q25 109 31 228z" />
    <glyph glyph-name="f_f_i" unicode="ffi" horiz-adv-x="1133" 
d="M40 288h-17v0q-23 0 -23 15q0 9 10 21.5t20 17.5l11 6q0 117 -22 234v7q-5 7 -5 12q0 18 29.5 36t55.5 18q8 0 18 -4l39 -23q49 -30 83.5 -47t66.5 -17q31 0 52 21q10 10 32.5 17.5t42.5 7.5q30 0 30 -18q0 -10 -9 -22q-31 -42 -78.5 -64.5t-102.5 -22.5q-56 0 -118 30
q9 -78 9 -152l31 -1h315q-1 110 -21 222q-1 3 -1 7q-5 7 -5 12q0 18 29 35.5t55 17.5q12 0 19 -4q12 -6 22.5 -12.5t19.5 -11.5q48 -30 82 -46t65 -16t52 21q10 10 32.5 17.5t42.5 7.5q30 0 30 -18q0 -10 -9 -22q-31 -42 -78.5 -64.5t-102.5 -22.5q-56 0 -118 30
q9 -78 9 -156l31 -1q41 -1 91 -5l39 -3q36 -3 36 -23q0 -17 -22.5 -35t-45.5 -18q-37 0 -79 2l-53 3q-8 -102 -29 -193q-4 -21 -33.5 -36t-57.5 -15q-16 0 -25 6.5t-6 20.5q24 111 30 220h-192q-127 0 -156 1q-8 -108 -29 -197q-4 -21 -33.5 -36t-57.5 -15q-17 0 -26 6.5
t-6 20.5q25 109 31 228zM1027 608.5q28 15.5 56 15.5q16 0 26 -6.5t9 -20.5l-29 -543q-1 -21 -29 -36.5t-56 -15.5q-37 0 -36 29l30 542q1 20 29 35.5zM1003.5 684q9.5 -7 25.5 -7q27 0 55 15t31 36q8 50 11 75q4 25 -31 25q-27 0 -56 -15t-31 -34l-12 -74q-2 -14 7.5 -21z
" />
    <glyph glyph-name="f_f_l" unicode="ffl" horiz-adv-x="1171" 
d="M40 288h-17v0q-23 0 -23 15q0 9 10 21.5t20 17.5l11 6q0 117 -22 234v7q-5 7 -5 12q0 18 29.5 36t55.5 18q8 0 18 -4l39 -23q49 -30 83.5 -47t66.5 -17q31 0 52 21q10 10 32.5 17.5t42.5 7.5q30 0 30 -18q0 -10 -9 -22q-31 -42 -78.5 -64.5t-102.5 -22.5q-56 0 -118 30
q9 -78 9 -152l31 -1h315q-1 110 -21 222q-1 3 -1 7q-5 7 -5 12q0 18 29 35.5t55 17.5q12 0 19 -4q12 -6 22.5 -12.5t19.5 -11.5q48 -30 82 -46t65 -16t52 21q10 10 32.5 17.5t42.5 7.5q30 0 30 -18q0 -10 -9 -22q-31 -42 -78.5 -64.5t-102.5 -22.5q-56 0 -118 30
q9 -78 9 -156l31 -1q41 -1 91 -5l39 -3q36 -3 36 -23q0 -17 -22.5 -35t-45.5 -18q-37 0 -79 2l-53 3q-8 -102 -29 -193q-4 -21 -33.5 -36t-57.5 -15q-16 0 -25 6.5t-6 20.5q24 111 30 220h-192q-127 0 -156 1q-8 -108 -29 -197q-4 -21 -33.5 -36t-57.5 -15q-17 0 -26 6.5
t-6 20.5q25 109 31 228zM1095 862.5q30 15.5 57 15.5q32 0 31 -24q-16 -179 -53 -494q-24 -215 -31 -279q-2 -21 -31.5 -37.5t-57.5 -16.5q-39 0 -36 29q35 344 89 772q2 19 32 34.5z" />
    <glyph glyph-name="a_r_r_o_w_one.liga" unicode="arrow&#x31;" horiz-adv-x="1503" 
d="M1332 208q-102 -86 -110 -94l-19 -18q-3 -3 -23 -22t-37 -28q-9 -5 -17 -5t-10.5 7.5t-3.5 18.5t-1 17q-1 11 -1 33q0 85 23 153q-184 49 -369 49q-125 0 -252 -21q-72 -12 -143.5 -33t-161.5 -53q-37 -14 -60.5 -26t-47.5 -31q-5 -4 -21.5 -18.5t-33 -25.5t-25.5 -11
q-10 0 -10 12l2 12q4 20 21 36.5t46 36.5l18 13l45 36q25 20 75 58q125 95 256 141q166 58 383 58q84 0 214 -11q-6 12 -22 35q-24 35 -38 61t-14 49q0 15 9 28q18 24 30 23q5 -1 21 -14.5t20 -16.5q32 -27 35 -29q44 -29 83 -53q82 -53 100 -66q50 -34 92 -68
q26 -20 62 -50q17 -13 43 -34q6 -5 1 -12q-23 -23 -159 -137zM1394 332l-58 45q-50 39 -104 79.5t-101 70.5q10 -18 14.5 -29t4.5 -22q0 -17 -12 -33q-17 -26 -52 -26q-8 0 -21.5 1.5l-22.5 2.5q-127 11 -207 11q-35 0 -52 -1q-282 -9 -476 -121q117 41 242 62t249 21
q59 0 104 -4q73 -4 151 -20q8 -1 40.5 -6t59 -13t33.5 -17q3 -4 3 -11q0 -10 -5 -24.5t-7 -19.5q-7 -15 -8 -22q-10 -44 -10 -97q0 -30 2 -45q117 111 233 218z" />
    <glyph glyph-name="a_r_r_o_w_two.liga" unicode="arrow&#x32;" horiz-adv-x="1210" 
d="M1157.5 373q-32.5 -54 -55.5 -86l-39 -55q-65 -92 -78 -112q-18 -27 -31.5 -43t-33.5 -25q-7 -3 -21 -6.5t-24 -3.5q-8 0 -11 3t1.5 24.5t10.5 43.5l4 18t3 16q2 24 2 37q2 36 5 56q-84 -24 -170 -33t-223 -15l-34 -1q-85 -3 -211 -3h-42l-41 1q-49 0 -81 2.5t-57 12.5
q-21 8 -21 20q0 17 37.5 35.5t65.5 24.5q74 17 222 49q17 3 135 24q104 16 174.5 31.5t134.5 43.5q-17 19 -60 58q-44 40 -66.5 65t-35.5 54q-6 14 -6 24q0 21 20 30.5t49 9.5q30 0 49 -7q28 -10 84 -28q126 -42 188 -68q43 -18 99.5 -46t92.5 -49q9 -4 7 -16
q-10 -32 -42.5 -86zM1105 375.5q7 12.5 10 20t3 13.5q0 8 -7 15.5t-24 17.5q-65 38 -126 65q-90 41 -235 91l82 -80q6 -5 26 -22t24 -29q2 -6 2 -10q0 -27 -40.5 -50t-85.5 -40q-69 -28 -142.5 -45t-187.5 -37q-97 -17 -138 -26q65 -3 129 -3q109 0 323 12q84 6 126 14
q13 2 41 10q14 5 29.5 9t26.5 3q12 -1 17 -4t5 -10q0 -5 -1.5 -11.5t-2.5 -16.5q-3 -20 -5 -64l-3 -39l15 19q45 55 75 96t54 84q3 5 10 17.5z" />
    <glyph glyph-name="h_i_p_h_o_p_one.liga" unicode="hiphop&#x31;" horiz-adv-x="1393" 
d="M448 333q12 -58 12 -82q0 -49 -30 -56q-13 -4 -18 10.5t-6 29t-1 19.5l-9 93q-14 -11 -30 -8q2 -5 15 -47t13 -80q0 -45 -31 -45q-7 0 -11 1q-11 2 -23.5 15t-29.5 35q-16 20 -21 24q-43 43 -91 72q-33 20 -54.5 30.5t-42.5 10.5q-5 0 -13 -2q-16 -4 -16 -16
q0 -9 5.5 -21t6.5 -15q9 -22 25 -44q27 -38 82 -80q29 -25 54 -38q11 -5 20 -8q14 -4 21 -8q7 -5 11 -5q1 0 0.5 -2t0.5 -8q1 -8 -9 -21.5t-18 -17.5q-4 -2 -12 -2q-25 0 -76 32q-56 37 -94 75.5t-54 86.5q-7 18 -7 42q0 44 26.5 78t69.5 35q89 4 208 -113l-12 38
q-17 48 -27 86.5t-10 73.5q0 44 21 72q12 18 20 18q6 0 7.5 -11t1.5 -26v-23q3 -37 11.5 -72.5t22.5 -83.5q4 5 18.5 10.5t16.5 7.5q1 1 1 3q0 4 -2 9.5t-2 8.5q2 23 -7 63q-4 20 -5 29q-1 8 -7 28q-12 38 -12 60q0 26 15 40q11 10 16 10q3 0 5.5 -5t5.5 -14q9 -21 13 -48.5
t5 -33.5q9 -39 15 -87t10 -93zM519 308q0 -55 -3 -109q-2 -70 -2 -105l1 -172q0 -29 -7.5 -69t-28.5 -40q-6 0 -9 2q-8 4 -8 49q0 37 3.5 78t3.5 47q0 103 3 206q0 16 2 48q2 48 2 72q0 33 -3 66q-2 16 -2 23q0 20 9 35q1 1 13.5 15.5t14.5 1.5q11 -60 11 -148zM475 489
q0 17 11.5 39.5t21.5 16.5q7 -3 7 -12q0 -14 -12.5 -32t-22.5 -19q-5 -2 -5 7zM674 486q0 -37 -15.5 -69.5t-49.5 -85.5q-4 -7 -8 -12.5t-5.5 -11t-2.5 -14.5q-1 -7 -1 -21q0 -19 2 -47v-78q0 -5 0.5 -24.5t-5.5 -34.5t-18 -24q-9 -6 -14 -6q-9 0 -9 19q0 11 1.5 21.5
t1.5 18.5v156q-7 -7 -12 -7q-6 0 -6 12q0 11 5.5 24.5t13.5 21.5q2 16 -2 53q-4 36 -3 52q1 7 7 21.5t15 23.5t18 3q8 -5 8 -46q0 -20 -2 -50q-1 -15 -1 -32q17 20 27.5 44t10.5 48q0 22 -9 43t-24.5 36.5t-39.5 33.5q-30 25 -36 31q-12 12 -12 23q0 13 17 27q11 8 16 8
q6 0 22 -9q79 -51 101 -102q9 -24 9 -46zM1378 352q0 -28 -29.5 -59t-58.5 -49q-37 -26 -92 -48l-19 -8q-28 -12 -47.5 -18t-34.5 -5q-7 1 -11 2.5t-4 5.5q0 2 2 7.5t4 10.5q8 20 23 28.5t33.5 13.5t27.5 8q106 27 158 74q-10 13 -47 13q-29 0 -82 -10q-80 -14 -128 -43
q-6 -4 -26 -15.5t-28 -22.5q-2 -28 -2 -56q0 -50 2 -150q0 -15 3 -35q3 -54 3 -58q0 -41 -13 -64q-4 -8 -14.5 -20.5t-16.5 -10.5q-9 2 -9 30l1 30q-1 48 -1 145q0 98 1 146q-16 -15 -41.5 -52t-26.5 -52q-1 -9 2.5 -17t7.5 -15q9 -13 9 -25q0 -9 -4 -17q-20 -36 -32 -36
q-25 -1 -60 144q-26 84 -34 183q-8 -9 -16.5 -13t-19 -6t-17.5 -4q-6 -2 -18 -4v-39q0 -57 3 -114q4 -68 7 -103l6 -30q8 -34 8 -51q0 -15 -4 -24q-4 -12 -15.5 -28t-21.5 -13q-9 2 -13 29.5t-8 65.5q-7 62 -7 160v56q2 77 12 224l3 44q1 8 4 45t1 71q0 12 -6 38
q-7 23 -7 37q0 6 1 9q3 14 11 24.5t17 10.5q7 0 13 -7q13 -13 13 -60q0 -16 -1 -28t-1 -20q-1 -63 -9 -189l-4 -65q8 8 18 10t12 3q8 2 18 4t13 6t5 18q2 18 2 29q0 18 -1 27q0 7 -0.5 17.5t0.5 23.5q0 7 1.5 50.5t12 80t29.5 46.5q4 2 9 2q6 0 6 -8q0 -5 -3 -15t-4 -17
q-11 -60 -11 -114q-3 -115 18 -215q-8 58 -7 87q0 23 6 41.5t21 45.5q4 6 16 26.5t26 35t26 14.5q14 0 25 -20q8 -16 8 -42q0 -20 -3 -40q-2 -16 -2 -24q0 -7 -2 -44t-10 -70q-6 -24 -27 -60.5t-40 -36.5q-11 0 -21 17q17 -55 27 -78q37 59 63 97q14 23 18 45.5t4 55.5
q1 7 1 22q2 86 2 129l-1 35q0 39 18 61q-12 1 -18 -14q-1 -1 -4.5 -7t-11.5 -7q-6 -2 -9.5 1.5t-3.5 9.5t3 14.5t7 14.5q10 21 29 32.5t41 11.5q29 0 51 -19q28 -25 28 -75q0 -37 -16 -87q-10 -31 -32 -83q-6 -13 -22 -38.5t-22 -33.5v-15q69 65 172 96q77 22 129 22
q45 0 54 -19q5 -10 5 -20zM882 370q0 -33 9 -72.5t23 -52.5q14 68 14 128q0 28 -3 53q-4 32 -12 32q-11 0 -29 -65q-2 -10 -2 -23zM1019 563l1 -97q0 -45 -2 -137q22 42 36 80t14 73q0 31 -13 56q-14 17 -36 25zM41 565q-3 0 -3 7q0 6 1 10.5t1 6.5q3 13 23 30q7 7 13 11.5
t7.5 8t3.5 16.5q1 4 1 13q0 10 -1.5 19.5t-1.5 20.5q0 12 4 23q5 12 14 23t18 11q7 0 12 -8q9 -19 26 -38q1 3 19 41t32 31q6 -2 6 -13q0 -13 -13 -46l-7 -21l-2 -18q0 -4 2.5 -5.5t6.5 -3t9 -3.5q7 -1 18.5 -1h16.5q5 -5 5 -12q0 -9 -6 -18.5t-13 -15.5q-9 -8 -19 -9.5
t-15 -3.5q-6 -2 -14 -3.5t-10.5 -4.5t-7.5 -14q-5 -10 -8.5 -24t-4.5 -19q-8 -36 -18 -53q-11 -17 -19 -27t-15 -10q-6 0 -10 8q-6 15 -6 42q0 18 2 48l2 29q-10 -4 -22 -12t-20 -12q-4 -4 -7 -4zM130 597l1 -13q3 8 7 24q-8 -1 -8 -11zM1152 572q-15 0 -15 12
q0 11 10.5 25.5t23.5 19.5q8 2 12 2h12q13 0 18 5q5 4 8 20.5t5 21.5q6 19 20 42t28 17q16 -7 15 -40.5t-1 -36.5q14 4 18 4q12 0 12 -12q0 -11 -10 -27q-3 -7 -11 -19q-9 -10 -11 -20q-3 -8 -4 -19t-1 -14q0 -9 -2 -21q-3 -31 -12.5 -60t-29.5 -24q-3 2 -3 12q0 7 2 25
l1 22q0 7 -1.5 9.5t-5.5 -3.5q-4 -3 -15 -20t-15 -22q-7 -14 -22 -29q-2 -2 -9.5 -8t-14 -8.5t-10.5 1.5q-4 6 3 19t19 29.5t13 19.5q5 10 10 26.5t4 24.5q0 3 -1 12t-6 11t-20 5q-10 -2 -14 -2z" />
    <glyph glyph-name="h_i_p_h_o_p_two.liga" unicode="hiphop&#x32;" horiz-adv-x="1237" 
d="M1222 648q0 -71 -33 -147t-82 -135q-22 -27 -75 -72q-19 -16 -24 -26.5t-6 -26t-2 -23.5l-1 -22q-2 -55 -10.5 -92.5t-34.5 -53.5q65 -11 65 -42q0 -15 -14 -35t-36.5 -31.5t-62.5 -27.5l-32 -13q66 0 109 6q14 2 28 6q26 6 37 6q22 0 22 -21q0 -3 -2 -15
q-9 -37 -50.5 -49t-101.5 -12h-54l-57 1q-38 2 -57 2l-29 -1q-13 0 -20 5.5t-8 20.5q-1 34 37.5 57t104.5 48q31 11 41 16q-212 26 -470 26q-95 0 -190 -3q-38 -1 -114 -9q-33 -4 -47 -5q-36 -3 -36 20q0 11 10 25t26 23q24 12 57.5 15.5t79.5 3.5l33 1q61 4 141 4
q11 1 35 1q-3 12 -3 27l1 23q1 8 1 22q-25 -13 -93 -15l-27 -2q-5 -1 -22 1l-23 1q-16 0 -23 -4q-4 -2 -6 -8t-6 -9q-21 -21 -32 -21q-14 0 -13 40q1 65 6 128q-6 -3 -34 -5q-5 -1 -18.5 -2.5t-16.5 -4.5q-6 -5 -6 -40q0 -9 0.5 -19t-0.5 -19q-2 -20 -16 -53.5t-28 -33.5
q-9 0 -17 15q-4 8 -4 25t4.5 41t5.5 31l5 27q6 60 22 189l4 27q16 108 19 162q8 99 35 99q7 0 15 -7t8 -36t-6.5 -70t-7.5 -50l-5 -30q-13 -116 -20 -184q5 2 19 0t23 -2q15 0 22 7q4 5 5 23.5t1 30.5q6 69 15 133q1 13 5 44q0 -3 2 29q2 57 9.5 94.5t29.5 41.5q21 4 21 -39
q0 -24 -4 -49t-5 -29q14 15 49 15q5 0 20.5 -0.5t27 2.5t18.5 10t12 24q9 20 11 23q19 24 54 43q58 29 106 29q63 0 81 -53q1 16 11.5 39.5t23.5 23.5q6 0 12 -6q7 -6 7 -29q0 -24 -7 -71q-3 -13 -3 -20q-8 -108 -13 -162l-9 -108q5 1 11.5 1t12.5 1q37 0 42 6q7 8 7 46v36
q10 96 11 181q0 28 7.5 66t24.5 38q7 0 18 -12q5 -5 5 -27q0 -3 -3 -48l-2 -22l-3 -77q17 48 35.5 84t44.5 62q15 17 31 23t40 10t35 8q9 3 42.5 16t65 20.5t55.5 7.5q80 0 96 -87q4 -20 4 -47zM981 673q1 -3 3 -6q0 13 4 21q-16 0 -9 -9zM806 386q7 -33 22 -58t38 -25
q17 0 35 14q28 21 40.5 61t12.5 88q0 35 -4 58q-5 36 -15.5 72t-27.5 47q-10 7 -17 7q-8 0 -12 -8t-7 -20t-5 -19q-6 -18 -12.5 -28t-16 -18.5t-14.5 -13.5q-22 -25 -24 -99q0 -25 7 -58zM515 669q-22 0 -29 -9.5t-7 -30.5q0 -6 0.5 -19.5t-0.5 -25.5l-14 -161q23 11 51 42
t47.5 69.5t19.5 69.5q0 51 -56 64zM239 198q14 1 18 7q4 5 4 19.5v19.5q1 35 5 93q3 36 11 106l10 102q-8 -1 -27.5 -2.5t-22.5 -10.5t-6 -37l-3 -36q-4 -33 -6 -68q-7 -91 -10 -208l7 8q6 6 20 7zM353.5 209.5q19.5 1.5 31.5 6.5t17 17q5 14 5 43q0 10 -0.5 23.5t0.5 29.5
q-6 -1 -15 -1q-23 0 -23 18q0 8 5 23q4 10 15 19.5t14 13.5q5 8 8 15t5 19q7 38 13 121l2 27q1 7 1.5 23t3.5 28.5t10 22.5q-22 -7 -35 -16q12 -6 12 -18q0 -15 -16 -34t-28 -25q-7 -4 -21 -4q-3 -1 -12 -2.5t-11 -4.5q-4 -4 -5 -32.5t-1 -34.5q-7 -67 -10 -150
q-1 -13 -1 -44t-1.5 -51t-6.5 -37q6 0 14 2q10 1 29.5 2.5zM951 303q-22 -35 -53.5 -56.5t-61.5 -21.5q-25 0 -46 17.5t-33 54.5q-11 -204 -52 -204q-6 0 -14 6q-5 4 -5 20q0 17 4 40.5t5 27.5q4 74 8 111l-26 -2q-19 0 -27.5 -4.5t-13.5 -22.5q-4 -15 -4 -47l-2 -31
q-2 -22 -16.5 -58.5t-29.5 -36.5q-10 0 -17 18q-2 8 -2 16q0 10 5 47q4 22 4 28l11 111q4 43 14 145l6 54q-32 -74 -77 -119q-6 -6 -20 -16q-16 -12 -23 -19q-5 -5 -11.5 -11t-9 -13t-4.5 -20q-4 -16 -4 -39q0 -25 3 -52q1 -10 2 -24t1 -33q0 -65 -30 -95q114 2 173 2
q193 0 326 -21q-2 3 -2 11q0 7 1.5 16t2.5 13q12 105 18 208zM1156.5 663q-9.5 22 -35.5 34q-20 9 -43 9q-10 0 -14 -1q-18 -3 -23 -5t-6.5 -7t-3.5 -24q-7 -81 -17 -243l-5 -77q69 56 111.5 119t46.5 140q-1 33 -10.5 55z" />
    <glyph glyph-name="h_i_p_h_o_p_g_o_o_g_l_e.liga" unicode="hiphopgoogle" horiz-adv-x="1836" 
d="M1720 234q9 0 9 -10q0 -5 -1 -8q-4 -11 -12.5 -20t-16.5 -15t-10 -8q-34 -27 -59.5 -44t-54.5 -28q-36 -15 -78 -15q-49 0 -89 21.5t-59 63.5q-7 -4 -11.5 -5.5t-8.5 2.5q-2 2 -2 9l1 14q-14 -48 -43.5 -92t-69.5 -81q-72 -65 -153 -96q-50 -19 -92 -19q-47 0 -80 24
q-32 23 -53 60t-39 86q-10 24 -18 53l-11 33l-15 50q-1 3 -7 18t-3 27q-47 -47 -89 -47l-10 1q-51 8 -78 75q-10 -66 -11 -123l-1 -61q0 -16 -2.5 -24.5t-11.5 -16.5q-14 -12 -21 -6q-4 3 -3.5 10.5t0.5 9.5l1 64q2 58 9 113q-28 -44 -68 -72t-85 -26q-40 1 -72.5 28
t-53.5 67q-26 51 -26 111q0 30 6 58q24 103 78 157q37 37 71 34q18 -1 34.5 -12t36.5 -29q-13 42 -20 80q-7 30 -7 41q0 19 12 31q13 13 22 10q6 -2 7 -14.5t2 -16.5q6 -37 20 -75q6 -19 11.5 -33t9.5 -24q20 -50 27 -76q2 -5 2 -14q0 -22 -19 -34q-6 -3 -10 -3
q-6 0 -11 4.5t-11 11.5t-10 12q-29 31 -53.5 52t-51.5 33q-12 5 -20 5q-24 0 -38.5 -24.5t-25.5 -60.5q-14 -40 -14 -79q0 -34 10 -64q11 -33 31 -60.5t48 -43.5q24 -14 51 -14q41 0 69 32q11 12 16 26t10 36q1 4 4.5 17t9 22.5t14.5 15.5q-62 -21 -89 -27q-23 -5 -42 -4
q-11 0 -24.5 3t-19.5 9q-3 3 -3 8q0 11 12 23.5t21 11.5q4 -1 10.5 -4t11.5 -5q15 -2 22 -1q18 0 39 7q24 6 54 18l27 9q4 1 9 2t9 3q5 3 12 17q9 15 24 31l18 21q16 23 33 35q36 25 74 24q37 -2 59 -34.5t25 -72.5q2 1 6 2t5 3l3 8q2 7 12 19q12 11 37 16q5 1 32.5 7
t52.5 6q39 1 68 -22.5t46 -62.5q5 8 14.5 16.5t16.5 3.5q5 -3 5 -8q0 -6 -8 -19q-19 -35 -19 -64q0 -18 7 -33q20 -44 58 -61q18 -9 35 -9q22 0 48 18q13 10 22.5 28.5t9.5 36.5q0 10 -3 17q-6 14 -32 37q-16 16 -34 28q-7 5 -19.5 10.5t-18.5 11.5t-6 12q0 9 8 19
q15 22 40 22q15 0 33 -8q40 -21 65 -66q3 -6 8 -22q1 -4 3.5 -11t5.5 -12q10 -19 15 -41q3 88 11 200l6 94q1 11 1 34q2 38 4 57q2 14 16 31t28 14q9 -3 9 -13q0 -4 -1 -8t-1 -7l-3 -42q-2 -27 -8 -91q-13 -149 -20 -272q23 32 49 46q-28 31 -28 70t29 64q24 19 49 19
q12 0 23 -4q30 -10 72 -37q-1 3 -6 15.5t-5 24.5q0 10 6 19q5 7 12 12.5t13 5.5t9 -8q3 -9 9 -27.5t12 -31.5l11 -25q14 -31 17 -38q5 -15 5 -25q0 -17 -15 -29q-7 -7 -15 -7q-6 0 -12 4.5t-11.5 10.5t-8.5 9q-27 25 -52 41q-3 2 -25 16q-6 2 -16 8q-4 2 -7 3
q-5 2 -13.5 5.5t-15.5 4.5l-13 2h-3.5t-4.5 -3q-5 -13 15 -42q14 -18 37 -33q7 -5 16.5 -8.5t12.5 -4.5q7 -2 21 -8q5 -2 17.5 -6t15.5 -9q1 -2 1 -6q0 -10 -10 -23q-13 -14 -31 -14q-15 0 -41 10q-5 1 -19.5 9t-22.5 7q-21 -2 -39 -16q-12 -10 -18.5 -27t-6.5 -35
q0 -11 3 -22q10 -44 53 -66.5t92 -22.5q42 1 78.5 23t86.5 63q11 9 21 9zM872 410q-4 -5 -11 -11.5t-10 -13.5q-4 -9 -4 -24q0 -22 9 -44q15 -36 49 -54q20 -11 37 -11q15 0 34 8q15 7 30.5 18t23.5 23q9 17 9 33q0 23 -12 47q-19 39 -52 53q-18 7 -39 7q-20 0 -43 -5
q-7 -7 -21 -26zM648 453q0 -7 8 -20q11 -13 30 -18q15 -3 31 -3q24 0 48 6q-14 51 -44 64q-12 5 -25 5q-6 0 -16 -2q-7 -2 -15.5 -11.5t-12.5 -12.5t-4 -8zM769 372q-42 -12 -82 -12q-70 0 -83 47q-6 -15 -6 -33q0 -23 10 -47.5t25 -41.5q23 -26 49 -26q6 0 9 1q27 6 50 37
q24 36 28 75zM1292 232q0 21 -4 38q-21 -36 -57.5 -63t-73.5 -26q-37 0 -67.5 27.5t-41.5 65.5q-38 -41 -83 -61q-25 -12 -51 -12q-25 0 -46 12q-30 17 -47 48.5t-17 65.5q0 32 15 59q-4 -1 -5.5 -3t-1.5 -4v-4q-2 -8 -4 -12q-2 -8 -8 -24q-10 -26 -24 -46q3 2 8 2
q10 0 14 -18q5 -20 14 -46q8 -24 11 -36q3 -9 7 -22.5t11 -31.5q16 -48 31.5 -81.5t39.5 -58.5q33 -33 63 -38q18 -2 27 -2q26 0 53 8q76 23 145 82q65 56 86 133q6 24 6 48zM189 322q2 -2 8 -9.5t5 -15.5q-1 -12 -13 -27.5t-23 -16.5q-6 -1 -10 4t-7 11.5t-5 9.5l-21 33
q-21 34 -35 66q-18 41 -17 63q1 11 12.5 26t21.5 12q6 -1 7.5 -12.5t2.5 -14.5q4 -16 12 -33q13 -26 39 -63q7 -11 23 -33zM95 292q1 -1 5 -7t4 -12q-1 -8 -9 -18q-9 -11 -14 -13q-2 -1 -5 -1q-4 0 -7 4t-4 5l-24 42q-14 24 -20 43q-4 8 -4 16q0 9 8 18q11 13 17 13
q5 0 8 -7q2 -5 7.5 -18t11.5 -23q8 -14 26 -42zM1680 331q0 10 9 32l21 55q14 40 20 60q7 27 27 38q6 3 9 3q6 0 6 -9q0 -12 -5 -25q-4 -15 -11 -35l-8 -26l-7 -22q-9 -31 -19 -50t-29 -28q-13 -5 -13 7zM1813.5 418q-14.5 -18 -16.5 -20l-36 -53l-36 -57q-5 -9 -16.5 -21
t-16.5 -2q-5 8 5 21t11 15l36 55l37 53q11 17 20 28t18 6q9 -7 -5.5 -25z" />
    <glyph glyph-name="h_i_p_h_o_p_v_i_n_y_l.liga" unicode="hiphopvinyl" horiz-adv-x="940" 
d="M925 348q0 -97 -37.5 -190.5t-106.5 -166.5t-158 -111q-84 -37 -177 -37q-94 0 -181.5 39.5t-148.5 112.5q-49 60 -74 131t-25 147q0 68 19.5 135t57.5 128q67 108 175.5 173t229.5 65q38 0 81 -8q87 -18 161 -70t122 -128t59 -164q3 -28 3 -56zM304 99q0 9 -8 16t-16 7
q-5 0 -8 -3.5t-2 -9.5q-5 2 -24 15q-16 12 -26 18t-19 6q-10 0 -14 -10q-2 -6 -2 -9q0 -15 11 -35.5t21.5 -36t13.5 -19.5q-27 14 -51 30l-16 12q-19 14 -30 21t-20 6q-18 -1 -18 -15q0 -9 7 -21.5t15 -22.5q9 -12 49 -59q2 -2 15 -17t24 -15q8 0 9 14q1 8 -14.5 26.5
t-42.5 46.5q-15 15 -18 19q76 -64 110 -57q16 3 16 17q0 12 -8.5 27t-22.5 36l-11 17q12 -8 28.5 -16t29.5 -8q14 0 19 9q3 6 3 11zM666 291q0 52 -27.5 97t-72.5 72t-96 27q-42 0 -78 -18q-53 -26 -80.5 -75.5t-27.5 -106.5q0 -52 22 -93q24 -46 66.5 -70t92.5 -24
q66 0 121 38t73 104q7 22 7 49zM792.5 604.5q-25.5 23.5 -58 42.5t-44.5 16q-14 -4 -14 -13q0 -8 10 -18.5t13 -14.5q22 -24 54 -78q-7 5 -27.5 23.5t-39.5 30t-30 8.5t-11 -15q0 -11 7.5 -26t15.5 -28t10 -17q7 -10 12 -19q-23 18 -42 18t-19 -20q0 -8 1 -12q11 -61 26 -63
q14 -3 14 15q0 16 -6.5 33.5t-6.5 18.5q5 -2 12.5 -9.5t11.5 -10.5q13 -14 22.5 -21t18.5 -4q11 3 11 17q0 23 -20 56.5t-23 39.5q15 -12 26 -23q27 -25 45.5 -39t28.5 -12q11 3 11 14q0 28 -29.5 70t-31.5 44q3 -2 25.5 -21.5t38.5 -19.5q7 0 9 5q5 9 -20.5 32.5z
M499.5 330q10.5 -12 10.5 -28t-10.5 -28t-28.5 -12t-28 12t-10 28t10 28t28 12t28.5 -12z" />
    <glyph glyph-name="q_u_o_t_e_s_l_e_f_t.liga" unicode="quotesleft" horiz-adv-x="478" 
d="M76 379q23 0 65 -31t101 -81q11 -10 30 -26q5 -4 21.5 -16.5t23.5 -23.5t7 -24q0 -14 -5 -28q-7 -22 -25 -44.5t-37 -27.5q-3 -1 -10 -1q-17 0 -33.5 11t-37.5 30q-19 16 -21 18l-33 24q-45 31 -76 56q-26 21 -36 33t-10 31q0 11 2 18q6 25 24.5 48.5t41.5 31.5q4 2 8 2z
M250 582q28 0 53 -32.5t57 -90.5q5 -9 13 -23t13 -21l30 -41q30 -38 46 -65.5t16 -56.5q0 -35 -31 -69q-20 -20 -40 -20q-28 0 -52 29.5t-54 82.5q-12 22 -25 40q-18 26 -28 39q-33 45 -50 75t-17 61q0 38 31 72q19 20 38 20z" />
    <glyph glyph-name="q_u_o_t_e_s_r_i_g_h_t.liga" unicode="quotesright" horiz-adv-x="401" 
d="M260 594q13 0 19 -11t6 -28q0 -19 -6 -37q-7 -21 -21 -45.5t-29 -46.5l-16 -25q-47 -75 -83 -121l-12 -17q-24 -31 -39 -47t-35 -21q-10 -2 -14 -2q-16 0 -23 10.5t-7 26.5t4 28q6 20 17.5 36.5t32.5 42.5l18 22q37 47 83 127q4 6 6.5 11l4.5 9q19 34 34 54t40 29
q10 5 20 5zM375 319q13 0 19.5 -13t6.5 -31q0 -13 -3 -24q-13 -49 -60 -84q-39 -28 -91 -55t-87 -27q-9 0 -13 1q-30 7 -30 37q0 25 18.5 57.5t36.5 46.5q12 9 25 14.5t33 11.5q22 6 33 11q25 11 71 37l22 12q11 6 19 6z" />
    <glyph glyph-name="s_t_a_r_one.liga" unicode="star&#x31;" horiz-adv-x="369" 
d="M152 581.5q12 -15.5 20 -31.5t11 -21q24 -37 60 -83q3 3 16 15t25.5 19.5t19.5 3.5q6 -4 6 -12q0 -14 -15.5 -37.5t-18.5 -29.5q35 -43 61 -64q6 -4 14.5 -10t13 -11.5t4.5 -13.5q0 -3 -4 -15q-11 -29 -39 -29q-8 0 -12 1q-45 8 -90 6q-12 -37 -25 -93q-2 -9 -7.5 -33.5
t-11.5 -43.5q-12 -35 -30 -47q-9 -6 -17 -6q-6 0 -9.5 5.5t-1.5 16.5q-7 3 -7 22q0 15 3 35t4 25q3 53 3 107q-30 -7 -96 -32q-9 -3 -16 -3q-13 0 -13 13q0 6 5 19q10 24 33 45.5t60 47.5l20 14q-4 42 -7 63l-7 62q-5 38 -5 50q0 42 31 56q10 5 22 -10.5zM271 468h1h-1z
M168 396l19 12l-24 33l4 -39zM172 346l1 -22q20 4 30 5l16 38q-4 4 -5 7q-14 -10 -42 -28zM245 332h3l-2 2zM174 265v-21l7 22q-4 0 -7 -1z" />
    <glyph glyph-name="s_t_a_r_two.liga" unicode="star&#x32;" horiz-adv-x="337" 
d="M132 575.5q10 -15.5 16.5 -33t8.5 -22.5q20 -43 53 -101q4 4 16 21.5t25.5 30t23.5 12.5q7 0 13 -8q3 -3 3 -10q0 -11 -6 -28.5t-8 -23.5q-16 -46 -22 -69q25 -41 52 -79q5 -7 13 -16.5t12.5 -17t4.5 -16.5q0 -3 -2 -11q-11 -37 -40 -37q-14 0 -29 7t-28.5 14.5
t-18.5 10.5l-6 -38q-1 -5 -5.5 -34.5t-15.5 -53.5q-17 -37 -34 -41q-3 -1 -9 -1q-15 0 -15 14q0 3 2 11q-11 4 -11 35l1 27q-3 53 -9 105q-19 -3 -53 -19l-20 -9q-20 -9 -30 -9q-14 0 -14 16q0 6 1 9q4 23 22 41t50 42q16 12 29 23q-15 91 -23 148q-1 8 -3.5 25t-2.5 31
q0 48 35 63q14 7 24 -8.5zM166 312q2 -10 2 -16q17 0 25 -2q1 1 1 4l-15 26z" />
    <glyph glyph-name=".notdef" 
 />
    <glyph glyph-name=".null" horiz-adv-x="0" 
 />
    <glyph glyph-name="nonmarkingreturn" unicode="&#xd;" horiz-adv-x="317" 
 />
    <glyph glyph-name="NULL" horiz-adv-x="0" 
 />
    <glyph glyph-name="NULL" horiz-adv-x="0" 
 />
    <glyph glyph-name="space" unicode=" " horiz-adv-x="317" 
 />
    <glyph glyph-name="exclam" unicode="!" horiz-adv-x="323" 
d="M108 330.5q12 -8.5 33 -8.5q35 0 69 18.5t35 43.5q5 120 5 240t-5 242q-4 16 -32 16q-22 0 -49 -10t-44 -25.5t-13 -31.5q0 -78 -5 -195q-1 -29 -3 -97t-2 -114q0 -37 1 -54q-2 -16 10 -24.5zM15 170q0 13 18 27.5t44.5 24.5t47.5 10q19 0 28 -8l7 -6q21 12 53 16
q16 2 32 -4.5t16 -19.5q0 -6 -5 -14q-5 -6 -9.5 -13.5t-11.5 -16.5l32 -18q22 -12 32 -19q9 -4 9 -12q0 -10 -12.5 -23.5t-22.5 -19.5q-15 -9 -35.5 -16t-38.5 -7q-13 0 -21 4q-17 10 -23 12q-18 -17 -42.5 -26.5t-49.5 -8.5q-16 1 -26.5 7.5t-10.5 18.5q0 8 6 20
q10 21 29 40q3 4 6 5q-17 11 -45 33q-7 6 -7 14z" />
    <glyph glyph-name="quotedbl" unicode="&#x22;" horiz-adv-x="330" 
d="M137.5 518.5q-32.5 -17.5 -64.5 -17.5q-37 0 -38 24q-6 88 -34 181q-5 15 11 29.5t42 24.5t47 10q27 0 32 -15q30 -98 36 -199q1 -20 -31.5 -37.5zM294 562q-34 -17 -65 -17q-16 0 -25.5 6t-8.5 17q1 13 1 38q0 41 -6 83q-3 16 14 31t42.5 24t46.5 9q26 0 29 -15
q8 -44 8 -98q0 -27 -1 -41q-1 -20 -35 -37z" />
    <glyph glyph-name="numbersign" unicode="#" horiz-adv-x="566" 
d="M132 353q7 43 11 70q-48 8 -96 21q-8 3 -8 10q0 12 20 31.5t46.5 32.5t43.5 10q1 11 1 33t-1 33q0 15 17 32t41 28.5t42 11.5q22 0 23 -18q2 -38 2 -58q0 -40 -3 -81q41 -2 76 4q20 64 33 96q7 20 43.5 39.5t61.5 19.5q18 0 18 -14q0 -2 -2 -10q-19 -47 -33 -100
q8 3 33 14q22 9 37 9q23 0 27 -19q5 -18 -17 -36.5t-45 -29.5q-39 -17 -53 -22q-8 -59 -11 -104q40 -7 81 -18q18 -4 18 -18q0 -13 -17 -31t-40.5 -31t-40.5 -13q1 -10 1 -29q2 -16 -14.5 -33.5t-41 -29.5t-43.5 -12q-26 0 -27 21q-4 72 -4 106l-28 2q-20 2 -56 4l-21 -63
q-8 -19 -44.5 -38.5t-61.5 -19.5q-19 0 -19 14q0 7 2 11q16 39 29 91q-60 -9 -83 -13q-4 -1 -10 -1q-9 0 -14 5t-5 13t3 15q6 17 30 34t43 21q15 3 56 10zM251 366q23 1 67 1l9 59q-28 -5 -67 -7q-3 -25 -9 -53z" />
    <glyph glyph-name="dollar" unicode="$" 
d="M552 377q11 -10 9 -24q-2 -11 -9 -75q-6 -67 -13.5 -108t-26.5 -73q-35 -61 -149 -61q0 -42 -1 -63q-1 -23 -34 -41.5t-66 -18.5q-42 0 -41 30q0 40 2 122q-58 24 -106 66.5t-80 98.5q-4 7 -4 14q0 23 32 41.5t65 18.5q34 0 47 -22q17 -28 48 -60q1 45 1 135
q-74 30 -117.5 71.5t-43.5 101.5q0 31 12 65q36 99 132 99l16 -1v42q-1 20 33 37.5t66 17.5q35 0 35 -23q2 -78 2 -117q79 -40 160 -102q7 -6 7 -13q0 -12 -18 -26.5t-43 -24t-46 -9.5q-18 0 -26 7l-32 24q1 -29 1 -86q39 -9 100 -19q13 -2 29 -4.5t34 -6.5q14 -3 25 -13z
M227 506l-1 84q-14 6 -21 10q-4 -9 -4 -21q0 -29 18 -61q2 -4 8 -12zM390 139q4 15 6 52l3 28q9 50 14 82l-48 13q0 -115 -1 -173q18 -2 26 -2z" />
    <glyph glyph-name="percent" unicode="%" horiz-adv-x="645" 
d="M0 398q0 32 14 63t39 56q-7 5 -7 13q0 3 4 13q9 20 34 31t51 14q6 1 19 1q53 0 96.5 -26t57.5 -74q6 -19 6 -39q0 -42 -24 -80.5t-63 -60.5q-25 -15 -53.5 -23.5t-55.5 -8.5q-34 0 -61.5 15t-43.5 47q-13 27 -13 59zM179 410q0 23 -9.5 44t-26.5 35q-11 -21 -11 -48
q0 -14 3 -28q2 -10 12 -26q9 -12 11 -21l8 -4l2 4q11 20 11 44zM331 381q111 135 176 210q9 10 37.5 18.5t52.5 8.5q28 0 28 -13q0 -4 -5 -12q-72 -95 -161 -206t-175 -215l-93 -114q-11 -14 -31.5 -21t-42.5 -7t-36.5 7t-14.5 21q0 10 12 25q104 119 253 298zM535.5 27
q-39.5 -20 -77.5 -20q-52 0 -81 39q-26 35 -26 83q0 32 11.5 65.5t29.5 62.5q17 25 51 36q42 24 82 24q57 0 91 -45q29 -38 29 -87q0 -29 -11.5 -58t-32.5 -52q-26 -28 -65.5 -48zM512 148q0 12 -3 24q-1 2 -6 16t-13 27q-7 -26 -7 -47q0 -27 8 -47q3 -8 9 -16l8 16
q4 12 4 27z" />
    <glyph glyph-name="ampersand" unicode="&#x26;" horiz-adv-x="486" 
d="M0 452q0 13 10 23q109 110 235 194q9 6 23.5 10t28.5 4q18 0 30 -7t12 -22q0 -3 -2 -13q-20 -62 -48 -120t-73 -140q60 -79 105 -149q7 11 32 62q9 18 38.5 30.5t57.5 12.5q17 0 27 -5.5t10 -16.5q0 -8 -4 -16q-42 -87 -107 -154q22 -35 46 -79q2 -3 2 -9
q0 -20 -33.5 -38.5t-65.5 -18.5q-28 0 -38 17q-16 28 -25 42q-47 -22 -94 -22q-60 0 -113 38q-50 35 -50 92q0 30 12.5 62.5t34.5 73.5l23 40q-44 60 -67 90q-7 8 -7 19zM215 136q-22 35 -68 105q-7 -26 -7 -46q0 -29 16 -46t52 -14q5 0 7 1zM150 485l-9 -9l3 -4z" />
    <glyph glyph-name="quotesingle" unicode="'" horiz-adv-x="151" 
d="M36 525q-43 0 -35 23q18 57 18 107q0 14 -4 46q-3 17 13.5 32t41 24.5t45.5 9.5q28 0 31 -17q5 -35 5 -62q0 -54 -18 -110q-6 -20 -26.5 -33t-45.5 -18q-10 -2 -25 -2z" />
    <glyph glyph-name="parenleft" unicode="(" horiz-adv-x="216" 
d="M190 38q0 -19 -14.5 -36.5t-36 -29t-40.5 -11.5q-29 0 -34 26q-31 80 -47.5 181t-16.5 208q0 134 25.5 256t75.5 208q14 25 36.5 40.5t44.5 15.5q13 -1 25 -7.5t12 -19.5q0 -9 -5 -18q-44 -81 -66 -196.5t-22 -240.5q0 -106 16 -202.5t46 -164.5q1 -3 1 -9z" />
    <glyph glyph-name="parenright" unicode=")" horiz-adv-x="227" 
d="M123 -2.5q-30 -16.5 -57 -16.5q-35 0 -35 28q0 8 3 18q60 174 60 355q0 228 -93 432q-2 6 -2 10q0 15 16 31.5t39.5 27.5t43.5 11q25 0 33 -18q48 -105 72.5 -222.5t24.5 -238.5q0 -199 -66 -379q-9 -22 -39 -38.5z" />
    <glyph glyph-name="asterisk" unicode="*" horiz-adv-x="352" 
d="M14 455q0 17 22 35q46 37 73 60q-48 11 -93 24q-16 5 -16 19t17 31q17 15 40 22.5t47 6.5q6 0 9 -1q-2 30 4 58q4 19 37.5 37t61.5 18q32 0 33 -25l3 -34q29 15 57 13q14 -1 25.5 -7.5t11.5 -17.5q0 -6 -4 -13q-15 -27 -44 -63q-14 -24 -20 -37h-1l29 -13l28 -13
q18 -7 18 -21t-15 -29.5t-37.5 -26t-42.5 -10.5q-10 0 -22 5q-7 4 -18 10t-26 14l-8 -7q-28 -24 -72 -47q-34 -16 -58 -16q-17 0 -28 8t-11 20z" />
    <glyph glyph-name="plus" unicode="+" 
d="M587 333q0 -15 -29.5 -37t-52.5 -24q-53 -6 -159 -16q-3 -37 -7 -104q-1 -19 -32.5 -35t-61.5 -16q-33 0 -32 22q3 59 9 121q-39 -4 -131 -13q-17 -2 -28 3t-11 19q0 6 1 10q5 18 32 29t50 13l94 9q8 62 13 92q3 20 34.5 35t60.5 15q33 0 30 -21q-6 -36 -14 -108l197 18
q37 3 37 -12z" />
    <glyph glyph-name="comma" unicode="," horiz-adv-x="176" 
d="M13.5 -110q-13.5 6 -13.5 18q0 5 3 13q32 69 42 124q4 19 38 35.5t64 16.5q32 0 29 -21q-10 -81 -48 -146q-11 -19 -35.5 -30.5t-49.5 -13.5q-16 -2 -29.5 4z" />
    <glyph glyph-name="hyphen" unicode="-" horiz-adv-x="416" 
d="M0 350q0 11 19 26t43 24.5t39 7.5q60 -9 117 -9q68 0 139 12q21 3 27 3q31 0 32 -23q1 -18 -24.5 -32t-47.5 -18q-81 -20 -176 -20q-73 0 -143 12q-25 4 -25 17z" />
    <glyph glyph-name="period" unicode="." horiz-adv-x="176" 
d="M171 101q5 -10 5 -21q0 -9 -3 -18q-9 -23 -45 -43q-35 -19 -71 -19q-28 0 -44 12q-13 9 -13 30q0 14 8 25q18 29 61 42l7 3q25 11 45 12h8q18 0 28 -7q9 -6 14 -16z" />
    <glyph glyph-name="slash" unicode="/" horiz-adv-x="317" 
d="M225 707.5q33 15.5 63 15.5q33 0 29 -21q-57 -316 -191 -591q-8 -17 -38 -29.5t-57 -12.5q-32 0 -32 19q0 3 4 13q131 283 185 571q4 20 37 35.5z" />
    <glyph glyph-name="zero" unicode="0" 
d="M230 777.5q41 21.5 84 21.5q72 0 132 -57q89 -86 89 -225q0 -61 -17.5 -123.5t-47.5 -117.5q-9 -19 -31 -52l19 -30q3 -6 3 -14q0 -19 -15.5 -46t-35.5 -47.5t-34 -20.5q-7 0 -11 7q-3 6 -8 13.5t-11 17.5q-96 -101 -172 -101q-26 0 -47 11q-75 38 -75 191q0 29 5 94
q10 140 35 244l-11 21l-30 62q-2 4 -2 12q0 19 16 46.5t36.5 48t33.5 20.5q6 0 9 -6q3 -7 6.5 -14t6.5 -14q32 37 73 58.5zM286 201q-52 83 -103 175q-2 -26 -4 -41q-2 -40 -2 -62q0 -47 8 -83q3 -15 6.5 -23t11.5 -17q0 1 3 0.5t7 0.5q36 13 73 50zM376 328q37 72 37 137
q0 39 -13 75q-15 43 -54 79t-75 36q-22 0 -40 -18l-4 -18q0 -1 -0.5 -1.5l-0.5 -0.5v1l-0.5 -2.5t-2.5 -7.5l-3 -12q72 -132 156 -268z" />
    <glyph glyph-name="one" unicode="1" 
d="M534 174q12 0 17.5 -7.5t5.5 -20.5q0 -20 -11 -46.5t-28 -46.5t-34 -24q-108 -27 -263 -27q-30 0 -71 1t-63 2q-28 2 -41 2q-25 1 -25 29q0 21 14 49.5t35 48t40 19.5q90 -4 143 -5q10 270 14 405q-33 -44 -67 -77q-22 -21 -33 -21q-9 0 -9 14q0 20 14.5 54.5t29.5 48.5
q34 32 47 65t23 92q4 23 20 50t35 43q20 15 31 15t11 -17q-3 -221 -21 -661l-1 -10q104 5 175 23q8 2 12 2z" />
    <glyph glyph-name="two" unicode="2" 
d="M598 117q0 -18 -12.5 -42t-30.5 -41.5t-36 -17.5q-3 0 -11 2q-89 35 -214 35q-99 0 -247 -25q-3 -1 -9 -1q-22 0 -22 23q0 17 10 40t19 36l374 510q-29 9 -57 9q-54 0 -115 -28q-46 -20 -86 -49.5t-49 -64.5q-6 -23 -25 -49t-39 -29q-16 -3 -23.5 5.5t-7.5 23.5
q0 10 3 20q19 72 81 142t145.5 114.5t164.5 44.5q69 0 123 -34q7 -6 10 -12t3 -13q0 -4 -2 -14q-4 -18 -14.5 -37t-24.5 -33q-228 -310 -341 -465q100 15 182 15q136 0 238 -41q13 -4 13 -24z" />
    <glyph glyph-name="three" unicode="3" 
d="M466.5 485q60.5 -38 97.5 -91.5t37 -114.5q0 -48 -25 -99q-42 -84 -111 -125.5t-150 -41.5q-69 0 -138 28.5t-125.5 81t-88.5 120.5q-3 8 -3 16q0 20 13.5 45t32 42.5t33.5 17.5q11 0 16 -11q34 -72 91 -124.5t130 -75.5q43 -13 95 -13q48 0 84 14t47 46q3 9 3 20
q0 42 -46.5 84.5t-95.5 69.5q-45 26 -94.5 41.5t-97.5 15.5q-30 0 -62 -8q-4 -2 -11 -2q-11 0 -16 10t-5 24q0 7 2 17q5 21 18 39.5t31 30.5q6 5 16 9q55 21 144 72q-106 -6 -196 -31q-8 -2 -11 -2q-18 0 -18 23q0 27 21 63.5t43 43.5q127 36 280 36q45 0 88 -3
q22 -1 22 -24q0 -21 -16 -51t-28 -39q-77 -57 -137 -96q70 -20 130.5 -58z" />
    <glyph glyph-name="four" unicode="4" horiz-adv-x="530" 
d="M464 633q0 -64 -2 -188q-3 -94 -3 -189q0 -76 3 -151q1 -19 -12 -40t-33 -35.5t-36 -14.5q-27 0 -28 38q-3 71 -3 141l1 82h-281q-18 0 -18 18q0 19 17 50t27 41l258 280v20q0 19 13 40.5t33 36t36 14.5q26 0 27 -38q1 -35 1 -105zM353 403q2 110 2 163l-151 -163h149z
" />
    <glyph glyph-name="five" unicode="5" 
d="M496 404.5q28 -51.5 28 -111.5q0 -62 -29 -125q-34 -75 -95 -124t-134 -49q-31 0 -62 9q-58 17 -98 63t-53 106q-3 16 10.5 42.5t34.5 47t36 20.5q13 0 17 -19q4 -20 23 -50.5t40 -47.5q22 -18 55 -30.5t65 -12.5q49 0 76 31q20 24 20 58q0 36 -20 73t-47 59
q-67 55 -122 55q-52 0 -87 -51q-34 -49 -57 -49q-7 0 -11 3q-10 7 -10 23q0 12 4 23q0 10 6 22q16 36 23 79t11 99l2 24q5 53 5 69q0 37 -9 58l-9 12q-6 8 -6 19q0 21 19 44.5t37 23.5q9 0 16 -7q7 -1 12 -11l3 -6q45 -58 80 -89.5t78 -31.5q34 0 74 28q14 11 25 11
q9 0 13.5 -7.5t4.5 -19.5q0 -16 -7.5 -32.5t-19.5 -25.5q-70 -52 -129 -52q-31 0 -59 14q-24 11 -47 31l-1 -14q-3 -50 -9 -96q52 39 108 39q55 0 112 -37q55 -36 83 -87.5z" />
    <glyph glyph-name="six" unicode="6" horiz-adv-x="550" 
d="M482 436q30 -35 30 -89q0 -67 -40.5 -144t-103.5 -129.5t-127 -52.5q-32 0 -60 14q-40 20 -68 64t-40 96q-23 -26 -35 -24q-13 3 -13 18q0 13 13 42q10 25 26 50q0 91 48 199q29 66 76 135.5t109.5 117t128.5 41.5q11 -1 11 -16q0 -17 -12.5 -44.5t-30 -47t-31.5 -18.5
q-58 5 -104.5 -36.5t-74 -104.5t-31.5 -119q47 42 101.5 65.5t112.5 23.5q14 0 21 -1q64 -5 94 -40zM408 209.5q17 27.5 17 55.5q0 25 -15 45.5t-45 31.5q-29 10 -62 10q-37 0 -74.5 -12t-67.5 -33q17 -65 54.5 -112t87.5 -47q29 0 60 18q28 16 45 43.5z" />
    <glyph glyph-name="seven" unicode="7" horiz-adv-x="570" 
d="M534 805q19 0 19 -26q0 -19 -9.5 -43.5t-19.5 -36.5q-99 -120 -165 -254q62 11 115 37q14 7 23 7q20 0 20 -27q0 -26 -17.5 -60t-37.5 -44q-71 -35 -160 -51q-37 -113 -43 -223q-2 -26 -19.5 -55t-39.5 -39q-12 -6 -22 -6q-12 0 -19 9t-6 26q7 135 56 278q-16 -1 -48 -1
q-46 0 -104 5q-22 1 -22 28q0 20 13.5 47.5t33.5 46.5t38 17q74 -6 112 -6l32 1q47 98 112 198q-92 -22 -206 -22q-61 0 -141 7q-23 3 -23 29q0 21 13.5 48t33.5 45.5t38 17.5q88 -9 157 -9q162 0 261 49q14 7 25 7z" />
    <glyph glyph-name="eight" unicode="8" horiz-adv-x="530" 
d="M531 796q0 -21 -22 -62q-57 -101 -124 -226q50 -27 74 -69t24 -92q0 -72 -45 -149q-57 -96 -151.5 -155.5t-202.5 -63.5q-18 0 -20 22q-1 3 -1 8q0 8 4 24q19 62 47 119.5t77 149.5q32 60 38 71l16 31q-63 34 -101.5 81t-38.5 104q0 45 24 89q27 50 70.5 79t91.5 29
q57 0 105 -41q11 -10 11 -28q0 -8 -1 -13l39 70q10 16 28 33t34 17q6 0 12 -3q12 -8 12 -25zM317 541q32 58 47 87q-21 -21 -38 -21q-8 0 -13 5q-48 40 -91 38l-12 -3q6 -22 25 -43q29 -36 82 -63zM381 273q0 28 -19 52.5t-50 43.5q-34 -62 -73.5 -139t-52.5 -108
q56 8 105 34.5t75 69.5q15 24 15 47z" />
    <glyph glyph-name="nine" unicode="9" horiz-adv-x="437" 
d="M374.5 558.5q12.5 -99.5 12.5 -194.5q0 -45 -3 -89q-11 -147 -77 -228q-34 -40 -81 -40q-35 0 -72.5 20t-81.5 53q-11 8 -11 26q0 19 12.5 43.5t30 41.5t32.5 17q8 0 13 -4q47 -35 72 -49.5t57 -16.5q7 25 10 83q2 38 2 56q0 39 -6 117q-4 46 -7 69q-75 -80 -126 -80
q-22 0 -41 16q-24 22 -33.5 58.5t-11.5 81.5q1 47 26 94t64 77q33 26 69 26q16 0 29 -6q13 25 33.5 44.5t35.5 19.5q13 0 17 -19q23 -117 35.5 -216.5zM156 638.5q0 -2.5 -1 -4.5q3 4 1 8v-3.5zM214 511q22 0 53 29q-5 41 -19 112q0 -2 -2 -4q-8 -14 -24 -32t-29 -18
q-6 0 -8 2q-13 9 -29 9q6 -55 26 -80q14 -18 32 -18z" />
    <glyph glyph-name="colon" unicode=":" horiz-adv-x="270" 
d="M205 528q12 -12 12 -30q-2 -19 -29 -40q-31 -22 -74 -27q-21 -2 -40.5 5t-22.5 25q-7 45 68 75q24 10 48 8q14 0 22 -7q10 -3 16 -9zM206 260q14 -10 14 -28q0 -14 -6 -25q-11 -19 -41 -37q-36 -18 -66 -18l-11 1q-19 2 -31 13t-12 30q1 12 8 23q9 14 25.5 24.5
t33.5 15.5q34 11 54 9q19 0 32 -8z" />
    <glyph glyph-name="semicolon" unicode=";" horiz-adv-x="219" 
d="M77 336l5 -7l1 -1zM202 395l-1 2l-4 6zM92 315l-10 14l-31 44q-2 4 -2 6q0 7 5.5 14.5t7.5 9.5q11 12 35 22q21 9 43 12q9 1 21 -0.5t17 -6.5l23 -33l12 -17q6 -9 6 -16q0 -5 -3 -13q-7 -14 -34 -29q-24 -14 -52 -16q-32 0 -38 9zM219 372l-6 8v0zM0 -1q0 9 7.5 19
t16.5 17q17 14 34 36t27 46q9 20 35.5 31.5t52.5 14.5q18 2 31 -4t13 -19q0 -5 -3 -13q-33 -79 -101 -124q-16 -11 -36 -18.5t-38 -7.5q-14 0 -23 4q-16 6 -16 18z" />
    <glyph glyph-name="less" unicode="&#x3c;" 
d="M73 284q0 18 23.5 37t44.5 24q78 18 147 52t119 85q14 13 36.5 23t41.5 10q7 0 10 -1q25 -5 25 -20q0 -10 -10 -20q-47 -50 -105 -86t-135 -71q114 -37 235 -92q19 -8 19 -24q0 -13 -14.5 -28t-36.5 -25t-41 -10q-10 0 -22 5q-144 72 -307 115q-30 9 -30 26z" />
    <glyph glyph-name="equal" unicode="=" 
d="M71 337q0 -16 25 -19q110 -10 170 -10q101 0 177 19q60 16 67 47q3 17 -9.5 25t-31.5 7l-63 -5q-116 -10 -172 -10q-42 0 -64 2q-23 2 -49.5 -7t-39.5 -26q-10 -13 -10 -23zM504 222q0 -14 -17 -30t-34 -22q-26 -9 -59 -9q-17 0 -29.5 1t-21.5 2q-7 1 -17.5 2t-24.5 1
q-77 3 -166 -17q-21 -3 -24 -3q-33 0 -34 24q-1 18 22.5 30.5t47.5 18.5q125 33 228 33q53 0 102 -9q27 -6 27 -22z" />
    <glyph glyph-name="greater" unicode="&#x3e;" 
d="M156 102q-22 0 -37.5 9.5t-15.5 24.5t20 34q85 77 213 145q-83 30 -137 56t-102 68q-7 6 -7 14q0 18 32.5 36.5t62.5 18.5q19 0 28 -8q105 -92 279 -128q29 -6 29 -30q0 -13 -9.5 -26.5t-23.5 -20.5q-69 -34 -131 -73.5t-158 -106.5q-17 -13 -43 -13z" />
    <glyph glyph-name="question" unicode="?" 
d="M244 66q-28 0 -36 18q-3 8 -6.5 14t-5.5 10q-1 2 -1 6q0 10 13 23q12 14 44 26q25 11 50 9q22 -2 28 -15q3 -8 11 -24q1 -2 1 -6q0 -11 -12 -25q-13 -15 -43 -27q-25 -9 -43 -9zM69 550q0 20 24.5 36.5t46.5 20.5q60 10 121 13t145 3q19 0 32.5 -8.5t14.5 -26.5
q3 -54 3 -107q0 -30 2 -90q1 -18 -15 -33.5t-38.5 -24.5t-38.5 -7l-9 1q-15 0 -15 -13q0 -5 3 -16q2 -8 2 -11q0 -26 -30.5 -46t-63.5 -20q-17 0 -29 6.5t-16 20.5q-6 20 -6 37q0 46 34 82t84 52q1 15 1 43q0 24 -2 70q-30 2 -45 2l-32 -1q20 -33 38 -75q2 -6 2 -9
q0 -22 -33.5 -40.5t-65.5 -18.5q-30 0 -37 18q-15 39 -30 65t-39 57q-8 11 -8 20z" />
    <glyph glyph-name="at" unicode="@" horiz-adv-x="684" 
d="M291 646q61 19 120 19q77 0 140 -34t100 -105q38 -73 38 -152q0 -92 -52 -169t-143 -114q-18 -6 -36 -6q-36 0 -44 23q-8 24 -16 56q-8 -5 -26 -13q-40 -16 -76 -16q-51 0 -87 29t-45 84q-2 18 -2 27q0 63 43 106t109 48q53 4 93 -23q24 11 46 11q31 0 35 -22
q2 -10 4 -30q9 -65 31 -145q34 45 34 117q0 42 -12 84.5t-33 74.5q-25 39 -60.5 58t-77.5 19q-48 0 -95 -22.5t-81 -61.5q-35 -40 -54 -93t-19 -109q0 -72 30 -132q29 -56 83.5 -83.5t120.5 -27.5q73 0 136 30q20 9 35 9q20 0 32 -12t12 -29q0 -16 -12 -30.5t-35 -22.5
q-103 -37 -205 -37t-182 40t-117 126q-28 66 -28 139q0 99 50 189.5t134 146.5q51 34 112 53zM329 228q12 0 21 9q-10 37 -22.5 65t-23.5 28q-7 0 -12 -12q-1 -2 -1 -11q0 -22 8.5 -49t20.5 -29q3 -1 9 -1z" />
    <glyph glyph-name="A" unicode="A" horiz-adv-x="679" 
d="M415 355q-30 108 -46 184q-39 -78 -103 -190q-5 -11 -17 -31q40 62 91 62q20 0 39 -8q16 -6 36 -17zM636 255l11 -22q14 -24 21 -40.5t7 -33.5q0 -26 -22 -53.5t-48 -40.5q-16 -9 -34 -9q-30 0 -59.5 18.5t-70.5 53.5q-29 24 -44 34q-10 7 -42 22q-56 28 -86.5 50
t-30.5 52q0 8 7 24q-19 -34 -53 -104q-42 -85 -48 -95q-12 -22 -39 -48.5t-50 -26.5q-12 0 -21 9q-7 7 -7 22q0 42 64 149q4 8 13 23l22 42q68 128 99 193q18 38 52 114l36 81q22 47 44 78.5t55 48.5q17 9 32 9q20 0 29 -18.5t16 -54.5q18 -103 50 -218q41 -139 97 -259z
" />
    <glyph glyph-name="B" unicode="B" horiz-adv-x="663" 
d="M578 454q0 65 -99 65q-46 0 -99.5 -13.5t-84.5 -29.5q-54 -27 -79.5 -52.5t-26.5 -71.5q-1 -70 -4 -122.5t-11 -103.5q121 45 224 114q68 45 110 82.5t60 86.5q10 24 10 45zM199 577q-2 -20 -2 -32l43 56q36 47 55 73.5t35 57.5q-35 -8 -62 -17.5t-49 -24.5
q-12 -9 -16.5 -15t-4.5 -13q0 -6 1.5 -16t1.5 -20q0 -15 -2 -49zM659.5 611q25.5 -33 25.5 -82q0 -36 -15 -84q-39 -123 -178 -245q-109 -93 -242 -161q-43 -23 -98 -46t-94 -23q-30 0 -40 18q-4 7 -4 16q0 12 6 22.5t19 29.5q15 20 19 30q9 26 9 72v24q0 8 -0.5 19t0.5 24
q8 108 11 162q0 14 1 24.5t2 18.5q1 10 2 25t1 35q0 21 -3 40q-4 26 -12 39q-1 3 -9.5 11.5t-9.5 12.5t-1 11q0 33 38 93q11 17 22 29t24 17q4 2 13 2h8.5t8.5 1q11 4 22.5 15t13.5 13q11 11 21 18q32 23 84 48t89 25q36 0 46 -29q4 -11 4 -24q0 -38 -26 -82.5t-68 -99.5
q-6 -9 -20 -28q108 55 204 55q26 0 47 -4q54 -9 79.5 -42z" />
    <glyph glyph-name="C" unicode="C" horiz-adv-x="537" 
d="M264 575l2 1zM468 320q24 0 38.5 -29t14.5 -63q0 -18 -5 -31q-15 -39 -49 -71t-82 -65q-47 -31 -110.5 -56.5t-117.5 -25.5q-81 0 -108 64q-16 36 -16 91q0 69 22.5 142.5t61.5 174.5q39 99 93 188.5t119 89.5q17 0 31 -7q11 76 51 112q25 21 43 21q21 0 32 -25
q7 -18 7 -46q0 -14 -2 -38l-1 -30q-2 -73 -9 -146q-6 -66 -29 -126t-73 -65q-25 -3 -40.5 26t-32.5 85q-11 36 -18.5 54.5t-16.5 27.5q-57 -101 -84 -221l-5 -20q-8 -36 -12.5 -59.5t-4.5 -46.5q0 -51 26 -70q18 -15 51 -15q22 0 48 7q26 6 55 19q9 4 27 14q8 1 8 6
q0 4 -5 8q2 9 4 25q2 15 5 25t10 21q26 38 55 51q9 4 19 4z" />
    <glyph glyph-name="D" unicode="D" horiz-adv-x="725" 
d="M59 846q21 0 39 -12q7 -5 13 -10t11 -9q6 -4 16 -8t17 -8q30 -16 88 -50l89 -51q77 -44 135 -76l64 -34q57 -29 96.5 -52t73.5 -52q25 -23 39 -45t14 -48l-1 -11q-10 -58 -61 -111q-39 -42 -91.5 -72t-120.5 -57q-116 -44 -266 -79q-16 -4 -23 -5l-41 -10l-58 -11
q-27 -5 -66 -10q-4 -1 -14.5 -3.5t-18.5 -2.5q-4 0 -12 2q-21 4 -21 25q0 14 9.5 32.5t19.5 29.5q30 35 88 48q12 3 14.5 6.5t3.5 16.5q0 18 2 54q8 95 10 145q4 48 5 72q1 5 2 13.5t1 20.5q0 13 -4 24q-21 51 -67 126q0 -1 1.5 -2.5t2.5 -5.5q-13 23 -43 67q-4 5 -9 13
t-9 13q-3 3 -8 8.5t-8 9.5q-5 10 -5 18q0 22 21.5 46t43.5 38q13 7 28 7zM264 195q91 20 197 53q57 18 93 33t68 39q-29 35 -65.5 60.5t-103.5 65.5l-75 45l-121 75q37 -105 37 -197q0 -67 -19 -133z" />
    <glyph glyph-name="E" unicode="E" horiz-adv-x="567" 
d="M565 152q0 -13 -5.5 -28.5t-14.5 -28.5q-19 -28 -43.5 -38t-63.5 -12q-79 -3 -113 -3q-98 -3 -136 -5q-78 -3 -137 -20q-24 -6 -33 -6q-11 0 -17 7t-6 25q0 19 7.5 39.5t23.5 55.5q14 27 22 50q2 7 9.5 28t10.5 38q1 5 1 12q0 6 -2 14.5t-3 16.5q-1 16 4.5 31.5
t16.5 35.5q17 35 20 50q18 86 20 130l1 31q0 30 -6 44q-5 12 -18 24q-12 12 -16 20q-5 9 -5 24q0 17 8.5 36.5t21.5 35.5q23 30 55 30q24 0 48.5 -14t59.5 -41q26 -20 39 -28q47 -28 79 -43t68 -22q17 -3 32 -3q16 0 32 3q6 1 19.5 6.5t20.5 5.5t12 -4q10 -7 10 -23
t-9.5 -35.5t-19.5 -32.5q-31 -38 -88 -46q-18 -3 -37 -3q-51 0 -100 17.5t-112 49.5q-6 -77 -23 -160l34 8q53 13 86.5 19.5t65.5 6.5q14 0 21 -1q35 -3 35 -35q0 -15 -7.5 -33t-18.5 -33q-20 -27 -49 -35t-75 -9l-34 -2q-36 -4 -55 -7q-19 -2 -23.5 -4.5t-8 -9.5t-7.5 -13
q-7 -12 -13 -31t-10 -38q-6 -28 -10 -40q56 13 163.5 24.5t181.5 11.5q32 0 53 -3q38 -5 38 -40z" />
    <glyph glyph-name="F" unicode="F" horiz-adv-x="517" 
d="M555 854q0 -17 -10.5 -38.5t-23.5 -37.5t-24.5 -21.5t-25.5 -5.5l-28 1q-14 0 -22 -2q-49 -10 -104 -26q-1 0 -22 -5q-4 -1 -19.5 -4.5t-27 -7.5t-16.5 -10q-10 -10 -10 -31q0 -20 8.5 -47.5t9.5 -32.5q11 -31 12 -44q40 14 95 28.5t97 14.5q59 0 59 -35q0 -16 -13 -41
q-14 -24 -33 -36t-39 -15.5t-54 -6.5q-6 0 -17.5 -1t-19.5 -2q-5 -1 -22 -2.5t-29 -6.5q-15 -6 -18.5 -8.5t-3.5 -9t-1 -18.5q-2 -28 -10 -84l-3 -21q-10 -68 -21 -118t-31 -96q-14 -30 -39.5 -63t-50.5 -33q-7 0 -13 3q-18 9 -18 55q0 30 10 92l3 23l16 149q6 44 8 66
l-17 -10q-46 -30 -66 -30q-8 0 -13 4q-10 9 -10 21q0 21 22 46t43 40q9 7 20 12q19 12 27.5 22.5t8.5 33.5q0 17 -7 38q-5 14 -15 27.5t-12 16.5q-14 20 -21 32.5t-7 27.5q0 12 6 27q14 32 47.5 54t86.5 45l27 12q81 38 151.5 61.5t138.5 27.5q41 3 41 -30z" />
    <glyph glyph-name="G" unicode="G" horiz-adv-x="594" 
d="M558 83q6 -34 6 -50q0 -31 -14 -54q-12 -21 -33 -40.5t-41 -19.5q-45 0 -45 105l1 46q3 89 20 182q-22 -1 -27 -6t-8 -21q0 -11 -4 -24q-10 -40 -36 -77q-23 -33 -56 -55.5t-72 -30.5q-27 -5 -47 -5q-73 0 -125 44.5t-58 119.5q-1 8 -1 25q0 66 22 138.5t59 152.5
q76 165 178 250q31 26 68 42t71 16q30 0 54.5 -14t39.5 -44q20 -39 20 -87q0 -47 -18 -96.5t-48 -93.5q-14 -21 -38.5 -44.5t-44.5 -23.5q-12 0 -19 10q-7 8 -7 20q0 24 33 64l14 20q13 22 13 48q0 36 -22.5 64t-54.5 28q-23 0 -46 -17q-51 -37 -86 -116.5t-50 -158.5
q-5 -27 -5 -46q0 -64 37 -102.5t107 -36.5q-7 22 -14 30t-25 11q-6 1 -18.5 -2t-18.5 -3q-33 3 -33 29q0 10 5 27q11 34 32.5 51.5t47 23.5t65.5 10l30 4q7 1 34 7q6 1 39.5 8t62.5 7q58 0 66 -37q2 -12 2 -17q0 -20 -7 -48q-4 -25 -5 -33q-6 -49 -6 -100q0 -26 1 -38
q1 -14 5 -42z" />
    <glyph glyph-name="H" unicode="H" horiz-adv-x="502" 
d="M485 494q15 0 24 -11q10 -11 10 -31q0 -10 -4 -26q-5 -24 -19 -44.5t-33 -32.5q-12 -7 -24 -9.5t-30 -4.5l-7 -1h-3l3 -76q8 2 11 2q5 0 11 -2q17 -3 24 -18q6 -11 6 -27q0 -9 -2 -23q-1 -3 -1 -8q-4 -36 -13.5 -65t-28.5 -54q-44 -54 -84 -54q-7 0 -11 1q-23 5 -31.5 24
t-11.5 43q-8 61 -8 138l1 79v8l1 16l-39 -7q-30 -7 -54 -15l-8 -4q-12 -79 -15 -121q-2 -16 -2 -48q1 -4 1 -14q0 -9 -1 -14q0 -19 -10.5 -35.5t-27.5 -24.5q-13 -6 -28 -6q-27 0 -46 18q-22 21 -22 56l1 15q3 52 11.5 103.5t23.5 123.5q12 64 17 96q14 85 20 155q4 44 5 81
v4q1 21 4.5 35t15.5 26v0q17 17 42 17q26 0 43 -17t17 -48q0 -16 -1 -23l-1 -5l-6 -74q-3 -59 -10 -105q-2 -20 -8 -52q14 5 47 14l6 2q15 3 26 7q0 71 -1 106v2q0 89 2 133q3 68 51 102v0q17 12 35 12q16 0 27 -11q12 -15 12 -39q0 -10 -2 -26q-1 -4 -1 -11q-1 -11 -1 -35
q0 -18 2 -56l1 -28l1 -41l3 -84l77 10l7 1z" />
    <glyph glyph-name="I" unicode="I" horiz-adv-x="181" 
d="M44 762q0 5 2 17q7 30 27.5 56.5t47.5 42.5q21 12 42 12q22 0 34 -15q9 -12 9 -29q0 -15 -9 -38q-10 -28 -30.5 -51t-46.5 -35q-21 -10 -37 -7q-15 2 -22 9q-17 12 -17 38zM146 147q0 -7 -2.5 -16t-3.5 -13l-2 -6q-10 -37 -36 -70t-65 -33q-4 0 -6 1q-16 2 -26 12
q-15 18 -15 56q0 14 2 32q-1 3 -0.5 6.5t0.5 4.5q3 71 21 193l4 31q10 68 13 102l4 45q0 7 1 11q2 14 1 18q-1 1 -1 2.5t-1 2.5q-6 8 -6 21q0 16 3 32q1 3 1 10q7 46 39 79q33 33 62 33q11 0 21 -5q25 -13 25 -55q-2 -28 -2 -42l-1 -26l-3 -55q-1 -52 -6 -106
q-1 -20 -12 -132l-3 -31l-2 -20l-6 -55q-1 -4 -0.5 -6.5t0.5 -5.5q2 -5 1 -8z" />
    <glyph glyph-name="J" unicode="J" horiz-adv-x="650" 
d="M632.5 853.5q5.5 -10.5 6.5 -21.5q0 -24 -10 -44q-12 -29 -33.5 -51t-48.5 -25q-50 -7 -70 -10q22 -61 31 -118q12 -67 13 -88q2 -28 2 -43q0 -14 -2 -44q-6 -111 -24 -176q-15 -54 -31 -85q-14 -30 -26 -49.5t-28 -34.5l-28 -26l-19 -11q-12 -9 -28 -9q-6 -2 -10 -2
q-39 2 -72 18q-26 14 -49 32.5t-56 48.5l-107 96q-13 12 -13 33q0 29 24 66q25 38 54 50q8 4 16 4q9 0 16 -4l78 -74l24 -22q38 -35 65.5 -56t59.5 -33q2 -1 6 -1q6 14 8 22q11 36 21 110q5 48 5 87q0 23 -1 34l-2 21q-6 62 -12 94q-14 66 -42 118q-4 7 -4 19l-14 -2
q-88 -22 -132 -34q-3 -1 -6.5 -2t-8.5 -1q-13 0 -20 13q-3 9 -3 18q0 5 2 15q6 32 32 60q14 15 32 23q64 18 96 28q22 7 29 8q36 11 58 16q101 23 201 42l4 1q11 0 16.5 -10.5z" />
    <glyph glyph-name="K" unicode="K" horiz-adv-x="616" 
d="M589 209q0 -29 -26 -63.5t-52.5 -58.5t-67.5 -58q-28 -24 -61 -24q-25 0 -41 17t-16 50q0 24 6.5 52.5t18.5 69.5l11 39q17 71 40 173q-8 -4 -59 -35l-82 -47q-12 -6 -18 -10q-23 -11 -36 -20q-14 -10 -16.5 -14t-3.5 -12.5t-2 -15.5l-5 -37q-3 -40 -10 -74l2 10
q-1 -6 -3 -19.5t-4 -21.5q-9 -34 -19 -54t-25 -38t-33 -29q-19 -11 -30 -11q-14 0 -20.5 13t-6.5 32q0 17 3 30q-1 -6 12 56q10 41 14.5 67t4.5 49q0 10 -2 26q-5 25 -5 35q0 15 10 42q7 18 10 35.5t5 34t3 22.5q8 68 8 154l-1 89q0 17 -1 30.5t-2 22.5q-4 38 -4 56
q0 32 7.5 58t27.5 47q32 34 56 34q12 0 20 -11q9 -13 9 -47q0 -18 -1 -27q0 -6 -0.5 -13.5t0.5 -15.5q8 -115 8 -217v-32q38 47 81 93t103 106q26 26 47.5 42t42.5 13q24 -4 24 -29q0 -20 -14 -46q-18 -34 -46 -65t-75 -76l-48 -47l-28 -27q-36 -33 -57.5 -58t-26.5 -51
l176 112q31 21 63 21q31 0 49 -21.5t14 -61.5q-5 -50 -27 -147l-16 -77q10 15 25.5 24t32.5 9q19 0 33 -10q24 -17 24 -43z" />
    <glyph glyph-name="L" unicode="L" horiz-adv-x="462" 
d="M404.5 82q-18.5 -26 -40 -44.5t-39.5 -18.5q-11 0 -21 7q-9 6 -13 20t-8 38q-6 36 -15.5 53.5t-32.5 13.5q-15 -3 -34 -20t-34 -33t-21 -22l-20 -19q-15 -16 -26 -26t-24 -16q-15 -7 -27 -7q-26 0 -26 42q0 21 4 45t5 28q44 334 71 517q11 69 29.5 121t61.5 64q10 2 13 2
q16 0 23 -11.5t7 -30.5q0 -18 -6 -37t-14 -30v-13q0 -15 -3.5 -34t-4.5 -27l-18 -130l-41 -297q39 35 73 58t67 23q45 0 67 -38t38 -97q15 16 28 16q9 0 14 -8t5 -20q0 -22 -14 -37q-5 -6 -23.5 -32z" />
    <glyph glyph-name="M" unicode="M" horiz-adv-x="647" 
d="M598 111q0 -20 -13 -43.5t-33 -39t-39 -15.5q-42 0 -54 77q-4 28 -4 63q0 18 2 56l1 56q0 44 2 132q3 89 3 177q-25 -67 -63 -184q-11 -34 -22 -56t-32 -39q-20 -17 -40 -17q-38 0 -63 51t-43 115l-9 -74q-13 -100 -23.5 -160t-30.5 -120q-15 -45 -34.5 -76.5
t-50.5 -31.5q-35 0 -35 36q0 25 15 57q-1 -2 -1.5 -3.5t-1.5 -1.5l6 19q9 30 16 71q15 76 28 171l24 175q11 94 24 181q7 51 15.5 80.5t31.5 56.5q11 13 25.5 21t27.5 8q22 0 33 -20q8 -15 10 -49l3 -24q7 -37 18 -81q27 -108 49 -166q8 24 10 29q28 82 50.5 136t54.5 100
q15 21 34 36.5t38 15.5q21 0 30.5 -14.5t12 -29t5.5 -48.5q4 -45 4 -104q0 -43 -4 -131q-1 -18 -2 -45t-1 -63l-1 -68q0 -33 2 -97l-1 -32q0 -46 14 -58q12 -9 12 -29z" />
    <glyph glyph-name="N" unicode="N" horiz-adv-x="480" 
d="M202 847h3q16 0 21 -14q6 -11 8 -30q2 -10 2 -14q14 -49 25.5 -85.5t19.5 -61.5q8 -27 25 -81.5t29 -96.5q4 -13 5 -17q0 28 -2 84l-1 42l-1 26q-1 41 -3.5 68t-9.5 53q0 26 8 46l12 26q11 21 33 42q16 14 35 17q17 0 26 -15q15 -39 17 -85q0 -28 1 -41q0 -52 1 -77
q0 -55 -2 -163q0 -55 -6 -163l-1 -21q-1 -11 -2.5 -38t-4.5 -48q-9 -67 -22 -106q-11 -29 -20 -45q-10 -19 -34 -41q-17 -15 -33 -15q-6 0 -12 3q-16 8 -27 42q-9 28 -18 66q-6 28 -8 42q-11 56 -16 76q-11 56 -37 166q-33 -204 -102 -338q-7 -15 -19.5 -28t-25.5 -19
q-7 -4 -16 -4q-8 0 -12 2q-13 9 -13 31q0 9 1 13q5 25 16 44l2 4q18 41 32 90q16 67 25 138t16 162q2 50 2 73l-1 52q0 18 -1 28q0 7 -0.5 17.5t0.5 24.5q0 34 1.5 53.5t8.5 37.5q16 41 42 63q15 12 33 15z" />
    <glyph glyph-name="O" unicode="O" horiz-adv-x="546" 
d="M361 837q87 0 130 -74.5t43 -193.5q0 -124 -43.5 -255.5t-119 -218.5t-167.5 -87q-43 0 -84 20q-50 25 -74.5 85t-24.5 144q0 114 40.5 242.5t107.5 221.5t142 110q27 6 50 6zM198.5 615.5q-42.5 -52.5 -67 -131t-24.5 -153.5q0 -76 27 -123.5t81 -47.5q22 0 44 7
q46 15 85.5 68t62.5 124.5t23 138.5q0 78 -33.5 125.5t-103.5 45.5q-52 -1 -94.5 -53.5z" />
    <glyph glyph-name="P" unicode="P" horiz-adv-x="557" 
d="M382 615q-52 3 -156 13q8 -76 11 -140q81 76 145 127zM597 720q0 -36 -60.5 -93.5t-171.5 -145.5q-58 -46 -87.5 -71t-36.5 -38q-5 -9 -7 -21t-2 -25.5t-1 -22.5q-7 -49 -16 -86t-20.5 -65t-31.5 -50q-13 -15 -30 -27.5t-32 -12.5q-34 0 -34 55q0 18 3.5 41.5t4.5 30.5
l5 32q-22 -18 -40 -18q-12 0 -18 8t-6 22q0 20 11 41q9 18 32 43q18 21 25.5 32.5t10.5 25.5q8 51 8 98q0 38 -4 67q-3 24 -9 47q-1 5 -6 30.5t-5 47.5q0 106 120 106q13 0 39 -2q64 -6 153 -8l31 -1l73 1q63 0 89 -17q13 -9 13 -24z" />
    <glyph glyph-name="Q" unicode="Q" horiz-adv-x="676" 
d="M535 415q0 91 -58 148q-35 35 -84 54.5t-101 19.5q-35 0 -68 -9q12 -43 40 -78t76 -82q62 -60 178 -154q17 53 17 101zM318 193q44 0 92 20l-41 35q-69 58 -114.5 101.5t-82.5 98t-48 113.5q-26 -49 -26 -107q0 -53 21 -104.5t58 -90.5t84 -56q26 -10 57 -10zM652 213
q13 -13 13 -34q0 -28 -23.5 -55t-51.5 -27q-17 0 -30 7t-30 21q-22 18 -35 23q-8 2 -12 2q-11 0 -23.5 -6.5t-31.5 -19.5q-27 -17 -33 -20q-65 -31 -129 -31q-81 0 -145 48t-95 132q-22 59 -22 122q0 85 38.5 164t109.5 140q50 42 96 62.5t101 20.5q65 0 127 -26t102 -72
q60 -70 60 -172q0 -22 -3 -45q-8 -73 -34 -130q-6 -13 -10.5 -23.5t-4.5 -16.5q0 -7 5 -13.5t19 -16.5q29 -21 42 -34z" />
    <glyph glyph-name="R" unicode="R" horiz-adv-x="511" 
d="M183 502q0 -15 2 -41q2 -28 2 -42q7 5 27 15q42 22 66 42t24 45q0 5 -1 8q-4 22 -21 39t-33 25.5t-53 27.5q-7 -49 -12 -99q-1 -7 -1 -20zM305 504l3 5zM308 511v0v0zM309 522l1 -6zM466 390q27 0 27 -59q0 -31 -4.5 -59t-4.5 -31q-7 -51 -19 -90t-36 -72
q-32 -43 -63 -43q-26 0 -61 29l-98 81l-45 38q-5 -22 -21.5 -58.5t-39.5 -65t-48 -28.5q-6 0 -14 3q-20 8 -20 55q0 44 15 110l5 31q1 10 7 50t9 74t3 63q0 32 -2 48q-4 33 -7 47q-10 64 -10 99q0 41 12 72q20 53 58.5 77.5t86.5 24.5q57 0 115 -29.5t90 -71.5
q28 -36 28 -83q0 -49 -29.5 -100t-74 -95t-91.5 -72q39 -29 75 -60q42 -34 63 -50q0 135 83 163q8 2 11 2z" />
    <glyph glyph-name="S" unicode="S" horiz-adv-x="623" 
d="M564.5 198q18.5 -20 30 -40.5t11.5 -39.5q0 -24 -18 -45q-22 -27 -54 -27q-14 0 -31 4t-22 5q-79 16 -184 16q-81 0 -172 -8q-8 -1 -23 -2t-27 -1q-36 0 -57.5 11.5t-21.5 42.5q0 18 7 38.5t21 49.5l9 21q15 37 33 56.5t51 19.5q27 0 42.5 -17.5t15.5 -43.5q0 -18 -9 -36
q63 4 143 4q47 0 71 -1q-92 116 -137 175l-69 87q-16 20 -27 31q-37 43 -56 73.5t-19 62.5q0 30 21.5 48.5t51 28t74.5 18.5l42 9q79 20 163 36q7 1 28 5q34 9 60 9q33 0 50 -18q18 -19 18 -39q0 -19 -11.5 -38t-36.5 -50q-30 -36 -38 -53q-13 -28 -27.5 -47t-32.5 -19
q-13 0 -26 10q-14 11 -14 30q0 14 6.5 29.5t13 28.5t8.5 16q-51 -9 -151 -35q-12 -4 -49 -13l120 -138q154 -175 199 -228q5 -6 23.5 -26z" />
    <glyph glyph-name="T" unicode="T" horiz-adv-x="458" 
d="M568 790q0 -17 -11 -39t-22 -35q-21 -26 -48 -35t-62 -9q-12 0 -38 2q-32 2 -48 1h-18.5t-14 -4t-8.5 -18q-3 -10 -3.5 -26t-0.5 -23l-7 -111q-3 -58 -4 -101.5t-2 -72.5q0 -39 -1 -58q8 2 11 2q22 0 22 -34q0 -24 -7.5 -51t-18.5 -60q-6 -17 -25.5 -45.5t-43.5 -49.5
t-42 -21q-23 0 -31 36q-8 35 -8 84q0 55 11 139l7 72q15 195 37 318q-6 -2 -32.5 -10.5t-48.5 -19.5t-34 -23q-13 -14 -23 -36q-13 -22 -22.5 -34t-27.5 -19q-11 -5 -22 -5q-21 0 -21 26q0 17 8 40t17 37q67 110 206 158.5t294 48.5q22 0 60 -2q22 -1 22 -22z" />
    <glyph glyph-name="U" unicode="U" horiz-adv-x="505" 
d="M118 143l-3 -7zM464 610q11 -76 16 -121.5t5 -92.5q0 -61 -12 -121q-22 -94 -79 -141q-23 -19 -51 -29t-72 -20q-19 -4 -31 -7q-13 -3 -23 -6.5t-18 -5.5q-51 -14 -78.5 -20t-54.5 -6q-30 0 -42.5 11t-12.5 31q0 19 10 49q5 16 23 71q32 97 50.5 166.5t25.5 140.5
q-21 -20 -38 -20q-14 0 -24 13.5t-15 35.5q-3 15 -3 30q0 41 22 98q15 39 47.5 83.5t62.5 44.5q23 0 40 -29q23 -39 23 -110q0 -41 -5.5 -80t-17.5 -104q-24 -128 -83 -298q26 1 52.5 6.5t67.5 17.5l25 7q7 2 27 6q28 5 47 11t26 15q8 11 8 41q0 16 -5 61q-3 15 -3 25
q-3 48 -17 137q-1 9 -8 40q-14 64 -14 99q0 54 27 86q26 32 47 32q35 0 47 -94q2 -17 8 -53z" />
    <glyph glyph-name="V" unicode="V" horiz-adv-x="359" 
d="M341 774q0 -25 -8 -63q-4 -24 -4 -27q-3 -79 -10 -140q-19 -182 -44 -294q-13 -58 -23.5 -94.5t-32.5 -74.5t-55 -54q-13 -6 -23 -6q-28 0 -37 40.5t-9 102.5v24q0 6 0.5 14t-0.5 16q-8 134 -31 292q-13 96 -20 139q-6 38 -6 56q0 35 19 62q11 16 25.5 28t28.5 12
q12 0 20 -11q7 -9 10 -25t5 -44q0 -13 2 -27q8 -49 23 -125q20 -93 28 -155q2 24 4 70q2 57 6 99t13 83q3 18 16.5 52.5t33 62t40.5 27.5q9 0 18 -6q11 -7 11 -34z" />
    <glyph glyph-name="W" unicode="W" horiz-adv-x="565" 
d="M546 707q0 -20 -5 -47t-6 -35q-7 -61 -20 -138q-14 -87 -23 -134.5t-25 -96.5q-19 -58 -51 -106t-77 -58q-10 -2 -14 -2q-29 0 -44 26t-19 55t-7 73q-19 -58 -38 -97.5t-51 -68.5q-27 -24 -47 -24q-34 0 -43 71q-8 63 -18 189q-12 147 -22 217q-2 15 -10 49
q-6 23 -10.5 48t-4.5 45q0 19 5 37q8 26 28.5 48.5t39.5 22.5q22 0 30 -31q14 -51 27 -139q2 -12 5.5 -35t6.5 -39q20 -105 30 -210l8 40q8 45 15.5 73t22.5 53t34 45.5t39 20.5t31.5 -22.5t15.5 -45t8 -59.5q2 -20 4 -60q4 -74 14 -118q18 72 29 196q11 96 12 103
q7 49 12.5 74.5t17.5 50.5q12 23 33 46.5t41 23.5q6 0 12 -3q14 -6 14 -38z" />
    <glyph glyph-name="X" unicode="X" horiz-adv-x="537" 
d="M349 490q-3 -4 -19.5 -22.5t-16.5 -27.5q0 -10 18 -29t21 -22q15 -19 49 -55q61 -66 96.5 -111.5t35.5 -77.5q0 -30 -17.5 -61t-42.5 -31q-8 0 -18 5q-17 9 -39.5 34.5t-39.5 49.5q-13 18 -69 84q-60 67 -75 91q-28 -41 -52 -81.5t-32 -53.5q-29 -51 -50 -82
q-12 -18 -39 -40.5t-43 -22.5q-15 0 -15 23q0 33 21 71.5t57 88.5l20 29q3 4 26 34q19 24 38 50t22 38q3 13 -5 29t-24 40q-6 8 -12 17q-7 12 -23 36q-28 42 -44 71.5t-23 60.5q-3 12 -3 30q0 37 14.5 68.5t44.5 37.5q17 3 24.5 -12t13.5 -44q3 -22 9 -33q21 -41 45.5 -77.5
t70.5 -100.5q60 82 92 122l22 30q22 30 37.5 48.5t32.5 31.5q15 11 27 11q9 0 14 -6.5t5 -17.5q0 -6 -4 -20q-5 -15 -16 -29.5t-28 -32.5q-1 -1 -22 -25q-30 -38 -84 -116z" />
    <glyph glyph-name="Y" unicode="Y" horiz-adv-x="595" 
d="M571 288q0 -58 -31 -109q-30 -49 -80.5 -84t-111.5 -53q-47 -14 -101 -14q-58 0 -110.5 16t-85.5 49.5t-33 82.5q0 28 12 62q9 28 27 55.5t40 27.5q21 0 21 -17q0 -7 -4 -17.5t-5 -13.5t-4 -10t-3 -12q-2 -30 22 -53.5t59 -38t64 -19.5q30 -6 64 -6q43 0 82 11t67 34
q26 22 26 57q0 20 -6.5 41t-18.5 53q-12 26 -18 50q-32 -47 -66 -78t-74 -31q-33 0 -58.5 25t-41.5 60q-24 55 -24 126q0 79 28 175q-25 0 -37.5 11.5t-12.5 31.5q0 19 10 40q12 27 43.5 46.5t62.5 19.5q34 0 52 -24q9 -12 9 -32q0 -17 -5 -35t-15 -49q-10 -28 -13 -42
q-7 -42 -7 -76q0 -65 25 -103q14 -21 29 -21q18 0 35.5 24.5t27.5 54.5q5 15 5 36q0 11 -2 35q-2 22 -2 34q0 41 22 68q23 27 40 27q20 0 30 -26.5t17 -66.5q3 -16 3 -31q0 -13 -2 -37q-3 -19 -3 -40q0 -26 17 -66l7 -19q28 -77 28 -129z" />
    <glyph glyph-name="Z" unicode="Z" horiz-adv-x="601" 
d="M578 162q0 -22 -14 -48t-35.5 -43.5t-43.5 -16.5q-96 6 -140 6q-92 0 -159 -21q-7 -3 -14.5 -6t-15.5 -6q-50 -24 -78 -24q-19 0 -32 8q-30 16 -30 58q0 28 13 58q13 29 31.5 56t49.5 68q33 43 37 49q32 48 50 72l-39 -9q-4 -1 -11 -1q-11 0 -16.5 7t-5.5 19
q0 30 23.5 68.5t47.5 44.5l103 24l128 196q-46 -4 -69 -7q-149 -13 -271 -28q-15 -1 -15 19q0 19 12.5 47.5t31 50.5t36.5 24q94 8 164.5 15t117.5 12l106 11h2q7 0 10 -5q19 0 32 -13.5t13 -34.5q0 -24 -17 -50l-12 -19q-79 -124 -129 -198q15 0 23 1q6 0 14.5 0.5
t19.5 -0.5q21 0 21 -26q0 -21 -13.5 -49t-33.5 -47.5t-38 -19.5q-39 1 -88 -4q-61 -93 -155 -224q72 23 125 29q31 3 63 3q54 0 127 -7l42 -3q32 -1 32 -36z" />
    <glyph glyph-name="bracketleft" unicode="[" horiz-adv-x="287" 
d="M119 755.5q11 -5.5 18.5 -17.5t6.5 -30q14 10 34.5 15.5t38.5 5.5q41 0 40 -26q-3 -29 -27.5 -47.5t-57.5 -27.5q-20 -5 -31 -5q-6 -137 -16 -411q28 1 52.5 -11t35.5 -33q14 -10 10 -27l-6 -19q-5 -23 -30.5 -38t-51.5 -15q-22 0 -32 9q-30 -14 -56 -14q-21 0 -34.5 10
t-12.5 30l25 592q1 32 18.5 46.5t56.5 17.5q8 1 19 -4.5z" />
    <glyph glyph-name="backslash" unicode="\" horiz-adv-x="376" 
d="M11.5 634q15.5 15 41.5 25t47 10q27 0 32 -15q65 -176 121.5 -315t119.5 -268q3 -4 3 -11q0 -22 -33.5 -41t-66.5 -19q-31 0 -40 20l-56 136q-62 149 -102 248.5t-77 200.5q-5 14 10.5 29z" />
    <glyph glyph-name="bracketright" unicode="]" horiz-adv-x="323" 
d="M43.5 142.5q29.5 22.5 61.5 31.5q12 263 13 476q-44 -3 -71 21t-34 72q-2 17 15.5 32.5t45.5 24.5t52 9q19 0 28 -5q38 19 72 19q22 0 35 -8.5t12 -26.5q0 -225 -12 -681q-1 -28 -33 -46t-69 -18q-28 0 -43 11q-36 -24 -75 -20q-19 2 -35.5 11.5t-16.5 25.5q0 11 5 18
q20 31 49.5 53.5z" />
    <glyph glyph-name="asciicircum" unicode="^" 
d="M113 536q0 8 7 16t16 14q63 43 92 102q9 17 36.5 33t52.5 16q22 0 32 -14q42 -58 102 -96q17 -10 17 -24q0 -21 -31.5 -40.5t-61.5 -19.5q-16 0 -23 5q-41 24 -73 55q-30 -27 -72 -52q-12 -6 -29 -11.5t-32 -5.5q-14 0 -23 6q-10 7 -10 16z" />
    <glyph glyph-name="underscore" unicode="_" horiz-adv-x="427" 
d="M0 -53q0 11 11 24q16 18 42.5 27t53.5 9l292 -5q14 -1 21 -6.5t7 -14.5q0 -11 -11 -24q-16 -18 -43 -27t-54 -9l-292 6q-27 1 -27 20z" />
    <glyph glyph-name="grave" unicode="`" 
d="M183 942q-6 6 -6 14q0 20 37 39t69 19q18 0 26 -7l2 -2l4 -4l44 -48q6 -6 24 -22.5t24 -31.5q2 -6 2 -10q0 -23 -40 -47q-27 -16 -61 -16q-16 0 -27 4q0 1 -0.5 1h-0.5q-15 5 -18 20q-4 8 -16.5 21.5t-17.5 19.5z" />
    <glyph glyph-name="a" unicode="a" horiz-adv-x="485" 
d="M227 339l-8 -20l70 -59l-7 29q-7 28 -28 119zM376.5 454.5q21.5 -89.5 52.5 -205.5q29 -110 38 -146q1 -3 1 -9q0 -24 -27 -41.5t-56 -17.5q-24 0 -37 13q-29 31 -61 59t-84 69l-33 27q-42 -90 -65 -133q-7 -15 -36.5 -27.5t-54.5 -12.5q-28 0 -28 18q0 5 3 12
q30 74 71 170l21 51l-25 25q-7 7 -7 16q0 17 22 32.5t49 20.5q48 115 90 234q4 14 25.5 24.5t45.5 13.5q17 5 29 5q28 0 31 -21q14 -87 35.5 -176.5z" />
    <glyph glyph-name="b" unicode="b" horiz-adv-x="409" 
d="M282 272.5q-9 13.5 -24 21.5q-19 10 -42 10q-10 0 -32 -4q-7 -75 -10 -169q49 24 83 54.5t34 58.5q0 15 -9 28.5zM389.5 332.5q20.5 -26.5 20.5 -58.5q0 -20 -8 -39q-18 -41 -58 -75t-95 -66q-117 -69 -206 -73q-16 -1 -27 7t-11 21q0 15 12 27t31 20v3q0 197 44 397
q4 20 35 35.5t59 15.5q16 0 24.5 -6.5t5.5 -19.5q-11 -47 -19 -103q37 20 61.5 50t24.5 64q0 47 -69 47q-38 0 -71 -12q-21 -7 -37 -7q-31 0 -31 23q0 21 36 40q31 16 75 26.5t86 10.5q58 0 93.5 -23.5t35.5 -75.5q0 -49 -34 -95.5t-87 -82.5q30 -2 57 -12
q32 -12 52.5 -38.5z" />
    <glyph glyph-name="c" unicode="c" horiz-adv-x="477" 
d="M400.5 473q26.5 14 52.5 14q34 0 30 -26l-4 -23q-15 -85 -30.5 -143.5t-47 -113.5t-82.5 -87q-66 -42 -135 -42q-41 0 -76.5 17t-59.5 53q-42 62 -42 142q0 108 77 250q26 49 54.5 78t71.5 35q4 1 11 1q16 0 28 -6q30 66 46 99q7 15 33.5 26t49.5 11q30 0 30 -19
q0 -4 -3 -12q-69 -168 -112 -261q-7 -16 -32.5 -27t-49.5 -11q-16 0 -26 5t-10 16q0 7 4 15l15 34q-5 1 -9 5l-20 -47q-28 -61 -37 -122q-3 -19 -3 -39q0 -43 13 -81t41 -61q23 -20 45 -20q88 0 147 306q4 20 30.5 34z" />
    <glyph glyph-name="d" unicode="d" horiz-adv-x="430" 
d="M306 380q-80 24 -161 97q-2 -91 -4 -269q105 81 165 172zM437 422q0 -7 -4 -14q-53 -102 -140 -181t-211 -158q-12 -7 -27 -12.5t-29 -5.5q-15 0 -26 8q-12 9 -12 22q0 17 19 30q2 1 4 3t6 4l4 248q2 81 4 247q-1 2 -1 7q0 2 2 10v11q1 19 26 32.5t53 13.5q19 0 30.5 -7
t11.5 -22v-10q121 -167 264 -204q15 -5 19 -9q7 -5 7 -13z" />
    <glyph glyph-name="e" unicode="e" horiz-adv-x="480" 
d="M463 123q0 -16 -19 -35q-21 -21 -54 -21q-16 0 -27 4q-53 17 -96 17q-75 0 -153 -48q-13 -9 -31.5 -14.5t-34.5 -5.5q-15 0 -24 5.5t-9 17.5q0 7 2 12q29 81 46.5 146t23.5 132q9 90 9 132q0 111 -43 170q-5 6 -5 16q0 20 28 37.5t55 17.5q18 0 26 -8q13 -5 17 -16
q25 -66 69 -111.5t104 -45.5q11 0 33 4q14 2 18 2q17 0 25.5 -7.5t8.5 -20.5q0 -14 -11.5 -28t-30.5 -20q-41 -14 -82 -14q-49 0 -94 20q-2 -56 -5 -84l-7 -63q39 7 78 12l14 1q40 0 40 -27q0 -18 -20 -32t-41 -18q-31 -6 -85 -13q-11 -49 -24 -92q66 24 134 24
q75 0 150 -28q15 -5 15 -18z" />
    <glyph glyph-name="f" unicode="f" horiz-adv-x="454" 
d="M414 602.5q23 7.5 42 7.5q30 0 30 -18q0 -10 -9 -22q-31 -42 -78.5 -64.5t-102.5 -22.5q-56 0 -118 30q9 -78 9 -156l31 -1q46 -2 123 -7l37 -3q36 -3 36 -23q0 -17 -22.5 -35t-45.5 -18q-41 0 -99 4l-63 3q-8 -102 -29 -193q-4 -21 -33.5 -36t-57.5 -15q-17 0 -26 6.5
t-6 20.5q25 110 31 224h-17v0q-23 0 -23 14q0 10 9.5 22t20.5 18l11 6q0 121 -22 238v7q-5 7 -5 12q0 18 29.5 36t55.5 18q8 0 18 -4l39 -23q49 -30 83.5 -47t66.5 -17q31 0 52 21q10 10 33 17.5z" />
    <glyph glyph-name="g" unicode="g" horiz-adv-x="498" 
d="M483 384q7 -63 7 -136q0 -81 -10 -155q-3 -20 -31 -35.5t-55 -15.5q-16 0 -25 6.5t-8 20.5q10 92 10 163q-31 -79 -84 -133.5t-123 -54.5q-15 0 -30 3q-65 11 -93 59.5t-28 119.5q0 70 23 152q18 62 53.5 119.5t86.5 94.5t112 37q52 0 76 -20t24 -53q0 -41 -30 -90.5
t-64 -75.5q-10 -7 -27 -11.5t-33 -4.5q-18 0 -29 5t-11 14q0 13 20 30q13 11 35.5 47.5t22.5 57.5q0 19 -21 19q-30 0 -71 -90q-23 -45 -34 -98q-14 -64 -14 -118q0 -97 53 -107q21 -3 41.5 31.5t35.5 81.5q-13 -7 -39 -19q-16 -7 -35 -7q-20 0 -30 10q-6 8 -6 15
q0 9 5.5 17.5t13.5 13.5q127 87 242 139q9 4 22 4q20 0 35 -9.5t12 -23.5q1 -1 1 -3z" />
    <glyph glyph-name="h" unicode="h" horiz-adv-x="401" 
d="M280 610q26 15 54 15q17 0 27 -6.5t9 -20.5q-2 -86 -4 -260l-5 -261q-1 -22 -27.5 -38t-54.5 -16q-18 0 -28.5 7.5t-10.5 22.5l4 164q-4 -1 -12 -1l-20 1q-7 1 -21 1q-7 0 -17 -2q-5 -100 -14 -170q-2 -21 -30.5 -37t-56.5 -16q-17 0 -26.5 7t-8.5 21q15 138 19 252l1 30
q3 87 3 115q0 90 -11 111q-16 -1 -24.5 5.5t-8.5 16.5t8 21t20 18q38 21 65 21q22 0 39 -14q26 -22 26 -92l-1 -50q3 -51 3 -103l-1 -59q6 2 19 0t20 -2t16 1.5t16 2.5l7 279q0 21 26 36z" />
    <glyph glyph-name="i" unicode="i" horiz-adv-x="201" 
d="M95 608.5q28 15.5 56 15.5q16 0 26 -6.5t9 -20.5l-29 -543q-1 -21 -29 -36.5t-56 -15.5q-37 0 -36 29l30 542q1 20 29 35.5zM71.5 684q9.5 -7 25.5 -7q27 0 55 15t31 36q8 50 11 75q4 25 -31 25q-27 0 -56 -15t-31 -34l-12 -74q-2 -14 7.5 -21z" />
    <glyph glyph-name="j" unicode="j" horiz-adv-x="269" 
d="M224 283q0 -150 -26.5 -292.5t-79.5 -259.5q-7 -16 -35 -28.5t-53 -12.5q-19 0 -28 9q-96 35 -183 155q-6 7 -6 17q0 21 28.5 38.5t56.5 17.5q22 0 30 -12q41 -60 102 -106q35 107 53.5 228t18.5 243q0 167 -32 307q-4 16 8.5 30.5t33.5 23.5t40 9q13 0 22.5 -5.5
t11.5 -15.5q38 -161 38 -346zM45 704q2 -11 25 -17l11 -1q16 0 33 7q20 8 35 22t11 32q-11 42 -17 71q-1 7 -9 10.5t-16 4.5l-9 1q-17 0 -35 -7q-20 -7 -35.5 -20.5t-10.5 -30.5z" />
    <glyph glyph-name="k" unicode="k" horiz-adv-x="480" 
d="M442 263q17 -125 25 -175q4 -25 -22 -44t-55 -19q-17 0 -28 7.5t-13 23.5l-8 65q-14 110 -23 165q-5 32 -14 53.5t-29 32.5q-13 6 -30 6q-21 0 -47 -7q-18 -150 -59 -307q-5 -21 -35.5 -36.5t-58.5 -15.5q-18 0 -27 6.5t-5 20.5q44 158 63 316q-20 0 -35 7.5t-15 19.5
q0 14 20 28l39 28q8 89 8 202q0 64 -3 128q-1 20 26 36t56 16q16 0 26.5 -6.5t11.5 -20.5q4 -68 4 -151q0 -72 -2 -107q36 32 70 67l30 29q14 13 32 21.5t36 8.5q11 0 24 -5.5t13 -15.5q0 -6 -4 -11q-61 -86 -178 -177q33 7 59 7q73 0 109 -48q16 -21 22.5 -45.5t9.5 -48.5
t4 -33z" />
    <glyph glyph-name="l" unicode="l" horiz-adv-x="239" 
d="M163 862.5q30 15.5 57 15.5q32 0 31 -24q-16 -179 -53 -494q-24 -215 -31 -279q-2 -21 -31.5 -37.5t-57.5 -16.5q-39 0 -36 29q35 344 89 772q2 19 32 34.5z" />
    <glyph glyph-name="m" unicode="m" horiz-adv-x="555" 
d="M488 604q12 -123 43 -389l13 -114q3 -22 -24.5 -39t-57.5 -17q-18 0 -30.5 7.5t-13.5 23.5q-13 139 -30 287q-27 -58 -54 -107q-4 -8 -15 -16q-13 -12 -32.5 -19.5t-37.5 -7.5q-31 0 -41 21q-18 40 -36 86l-5 -30q-13 -83 -35 -214q-3 -21 -33.5 -36.5t-59.5 -15.5
q-16 0 -25 6t-7 19q53 350 83 516q4 21 34 37t57 15q16 2 27.5 -2.5t13.5 -15.5q25 -113 62 -207q43 97 82 200q6 17 31.5 29t50.5 12q30 0 36 -18q2 -3 4 -11z" />
    <glyph glyph-name="n" unicode="n" horiz-adv-x="413" 
d="M377 263q0 -78 6 -158q2 -6 2 -10q0 -3 -2 -9q0 -1 -0.5 -1h-0.5v-2q-6 -17 -28 -29.5t-47 -14.5q-40 -4 -48 21q-35 94 -111 260l-12 28q-8 -125 -10 -267q0 -21 -28 -37.5t-57 -16.5q-18 0 -29 7t-10 23q6 272 39 515l1 4q-2 22 27 40t58 18q30 0 37 -20
q32 -87 95 -224q6 94 21 191q3 20 32 35.5t57 15.5q36 0 32 -26q-24 -182 -24 -343z" />
    <glyph glyph-name="o" unicode="o" horiz-adv-x="477" 
d="M348 360q0 45 -15.5 82.5t-48.5 61.5q-22 16 -42 16q-8 0 -20 -4q9 -4 9 -14q0 -6 -4 -14q-23 -44 -36 -95.5t-13 -103.5q0 -60 18 -114q12 -30 25 -47q6 -7 12 -10q29 20 52.5 56t39.5 75q23 54 23 111zM395 557q35 -33 53 -79.5t18 -96.5q0 -59 -23 -121t-63 -114
t-89 -82q-46 -28 -90 -28t-77 27t-48 78q-17 52 -17 117q0 39 6 76q-7 -2 -21 -2q-34 0 -34 23q0 8 2 13q34 95 102.5 165.5t157.5 70.5q13 0 39 -4q49 -10 84 -43z" />
    <glyph glyph-name="p" unicode="p" horiz-adv-x="467" 
d="M338 396q0 46 -26 75q-39 46 -131 44q-18 -158 -28 -381q57 30 102 79.5t68 109.5q15 38 15 73zM225 594q122 0 182 -60q45 -44 45 -113q0 -36 -16 -86q-33 -94 -110 -168.5t-176 -113.5q-4 -102 -6 -178.5t-3 -127.5q-1 -122 -6 -245q-1 -21 -30 -37t-59 -16
q-35 0 -35 26l1 80q1 39 3.5 188t8.5 278q-27 -3 -53 -3q-19 0 -28.5 6t-9.5 16q0 18 24.5 38t49.5 20q14 0 20 1q11 215 34 413q-7 4 -7 13q0 12 13 28q0 6 2 20q3 21 32 36.5t56 15.5q17 0 26.5 -7t7.5 -21v-4q11 1 34 1z" />
    <glyph glyph-name="q" unicode="q" horiz-adv-x="495" 
d="M294 226q4 49 14 145q3 28 7 69.5t8 94.5l-8 2q-9 4 -16 4t-12.5 -4.5t-12 -11t-8.5 -9.5q-33 -35 -62 -99q-43 -95 -43 -171q0 -31 7 -56q11 -49 46 -61q8 -3 14 -3q15 0 25 10t17.5 26.5t12.5 31.5q7 18 11 32zM453 -89.5q25 9.5 47 9.5q16 0 24.5 -6t4.5 -18l-66 -248
q-5 -18 -33.5 -37t-54.5 -19t-34 22q-58 161 -58 383q0 45 1 68q-43 -20 -90 -20q-48 0 -86.5 23t-54.5 69q-11 35 -11 76q0 87 41 186t110 163.5t148 57.5q13 12 33.5 19.5t38.5 7.5q35 0 34 -26q-2 -43 -8 -121q0 -69 -3 -123t-14 -104q-8 -116 -10 -174t-2 -88
q0 -73 5 -125q13 15 38 24.5z" />
    <glyph glyph-name="r" unicode="r" horiz-adv-x="487" 
d="M212 391q39 31 63.5 55t37.5 48q-54 14 -160 46l-5 -203q30 25 35 30zM407 278.5q26 11.5 50 11.5q33 0 33 -21q0 -6 -3 -14q-41 -96 -62 -186q-5 -20 -29 -37q-10 -13 -30.5 -22t-40.5 -9q-17 0 -27.5 7t-11.5 22q-4 65 -42.5 119t-98.5 70l-5 -145q-1 -19 -31.5 -35
t-58.5 -16q-15 0 -24 5.5t-9 17.5l3 138q-13 9 -13 21q0 14 15 27q5 182 12 363q1 21 28.5 36.5t55.5 15.5q21 0 30 -10q109 -30 226 -66q18 4 25 4q17 0 26.5 -7.5t9.5 -22.5q0 -41 -27 -75.5t-75 -76.5l-20 -18q-48 -47 -93 -83q82 -23 132 -91q4 10 21 50q8 16 34 27.5z
" />
    <glyph glyph-name="s" unicode="s" horiz-adv-x="526" 
d="M337.5 514.5q-46.5 26.5 -71.5 26.5q-20 0 -20 -20q0 -7 5 -24q7 -23 31 -43.5t63 -47.5q32 -22 41 -30q44 -38 70 -63.5t47.5 -60t21.5 -70.5q0 -24 -12 -50q-23 -47 -75.5 -72t-111.5 -25q-20 0 -40 3q-136 23 -251 181q-6 9 -6 18q0 22 29.5 40.5t58.5 18.5
q22 0 32 -13q62 -84 122 -123q55 -36 93 -36q31 0 31 27q0 19 -15 47q-15 27 -39 51t-61 55l-27 23q-4 4 -37 29q-27 20 -46 37t-32 37q-17 27 -17 56q0 45 38.5 82.5t88.5 51.5q32 9 61 9q54 0 104.5 -25t102.5 -69q9 -7 9 -17q0 -19 -31 -37t-61 -18q-20 0 -30 9
q-19 16 -65.5 42.5z" />
    <glyph glyph-name="t" unicode="t" horiz-adv-x="368" 
d="M370.5 626q11.5 -7 24.5 -27q8 -13 8 -22q0 -22 -28 -26l-35 -4q-49 -7 -52 -7q-17 -160 -27 -278t-13 -233q-1 -14 -11.5 -21t-27.5 -7q-30 0 -59.5 16.5t-28.5 37.5q3 106 12 216.5t24 256.5l-63 -8q-14 -1 -21.5 1.5t-14.5 11.5t-14 20q-8 11 -8 22q0 9 7 16t21 9
q22 3 51 7l51 7l18 173q3 28 41 28q30 0 58.5 -16.5t26.5 -37.5l-13 -134q28 2 41 4q21 2 32.5 -5z" />
    <glyph glyph-name="u" unicode="u" horiz-adv-x="452" 
d="M351.5 608.5q27.5 15.5 55.5 15.5q16 0 26 -6.5t9 -20.5q-2 -38 -2 -61q-5 -130 -17.5 -221t-55.5 -171t-128 -105q-29 -8 -55 -8q-64 0 -112.5 38t-55.5 103q-2 26 -2 39q0 69 21 141t61 174q12 27 27 69q6 17 30.5 28.5t48.5 11.5q16 0 26 -6.5t10 -18.5q0 -4 -2 -12
q-20 -58 -31 -87q-29 -81 -45 -135.5t-22 -111.5q-2 -24 -2 -38q0 -59 29 -85q9 -9 24 -16.5t28 -8.5l8 -2q1 0 4 3q25 16 40.5 54.5t20.5 68.5t14 95q7 53 11.5 116t7.5 122q1 20 28.5 35.5z" />
    <glyph glyph-name="v" unicode="v" horiz-adv-x="450" 
d="M445 690q16 6 30 6q11 0 20 -6q12 -8 12 -22q0 -17 -16 -31q-49 -43 -79.5 -105.5t-60.5 -152.5q-39 -119 -92 -321q-5 -17 -34 -35.5t-54 -18.5q-22 0 -29 19q-93 265 -99 580q-1 21 30.5 40t59.5 19q29 0 29 -22q0 -185 41 -366q26 88 50 150q33 89 70 151.5t95 100.5
q11 8 27 14z" />
    <glyph glyph-name="w" unicode="w" horiz-adv-x="601" 
d="M525 661q20 0 43 -9t38 -24.5t12 -31.5q-46 -313 -165 -580q-8 -18 -35 -18q-17 0 -40 7q-61 19 -83.5 72.5t-27.5 131.5l-2 25q-36 -76 -102 -232q-9 -20 -37 -20q-20 0 -42 10t-35.5 25t-11.5 31q13 86 13 201q0 53 -4 157t-4 155l1 46q1 14 11.5 21t27.5 7
q30 0 60 -16.5t29 -37.5l-1 -53q0 -59 4 -177q43 88 94 173q11 18 41 18q29 0 56.5 -16t28.5 -38q1 -15 1 -46q0 -27 -2 -81q-2 -67 -1 -100v-33q70 204 100 414q3 19 33 19z" />
    <glyph glyph-name="x" unicode="x" horiz-adv-x="525" 
d="M540 627q11 -8 11 -19q0 -9 -9 -20q2 2 -49 -55q-108 -120 -158 -184q67 -102 152 -201q7 -7 7 -16q0 -20 -30.5 -38.5t-59.5 -18.5q-20 0 -30 11q-69 79 -120 152q-38 -54 -112 -164q-8 -11 -31 -18.5t-46 -7.5q-17 0 -28 4.5t-11 13.5q0 5 6 14q99 148 169 239
q-72 115 -122 236q-2 8 -2 11q0 21 29 38.5t58 17.5q32 0 40 -21q35 -84 83 -172q82 98 155 173q13 14 32.5 23.5t37.5 9.5q17 0 28 -8z" />
    <glyph glyph-name="y" unicode="y" horiz-adv-x="436" 
d="M268.5 645.5q28.5 16.5 56.5 16.5q31 0 34 -21q22 -160 34 -275t12 -228q0 -152 -24 -269q-19 -93 -55 -167t-99 -115q-52 -33 -105 -33q-49 0 -96 25.5t-88 69.5q-8 10 -8 17q0 20 28.5 37.5t57.5 17.5q20 0 31 -11q5 -5 24 -25t39.5 -34t37.5 -14q9 0 13 2
q19 7 33.5 33t23.5 48t11 27q24 60 35 126.5t15 148.5q2 64 2 97q-26 -47 -61 -73.5t-85 -26.5q-71 0 -92.5 63.5t-22.5 155.5l-1 40q0 156 32 293q4 19 34 34t57 15q14 0 22 -6t6 -17q-23 -116 -29 -251q-2 -42 -2 -65q0 -38 5 -85q6 -42 14 -60l8 -16q7 13 19 39
q25 64 40 154l9 49q19 89 19 141q0 26 -2 39l-9 66q-2 21 26.5 37.5z" />
    <glyph glyph-name="z" unicode="z" horiz-adv-x="506" 
d="M505.5 601.5q12.5 -8.5 12.5 -19.5q0 -8 -4 -13q-28 -44 -62 -83t-93 -102l11 1q53 0 53 -27q0 -20 -21 -32t-44 -15t-69 -7l-27 -32q-56 -64 -82 -97l-31 -38q63 10 189 36l63 13l16 2q16 0 24 -7.5t8 -18.5q0 -15 -12 -29t-32 -19q-175 -46 -351 -67q-19 -2 -36.5 4.5
t-17.5 25.5q0 16 11.5 33.5t24.5 32.5t18 21q40 52 108 129q-7 0 -13.5 -1t-13.5 -1q-22 0 -37.5 5t-15.5 23q0 19 22 31.5t43 14.5q56 6 84 8l65 75l35 40l35 40l-77 -10q-110 -17 -173 -16q-35 1 -35 18q0 12 15.5 26t32.5 19q32 11 66 16.5t86 10.5q17 1 49 5q37 5 77 9
t73 4q13 0 25.5 -8.5z" />
    <glyph glyph-name="braceleft" unicode="{" horiz-adv-x="353" 
d="M353 666q0 -10 -16.5 -25.5t-38 -27.5t-34.5 -12h-28q18 -81 18 -136q0 -22 -3 -42q-6 -42 -58 -78q42 -22 49 -59q7 -36 7 -84q0 -38 -4 -106q12 2 36 8q12 3 22 3q20 0 30.5 -10t10.5 -26q0 -18 -13.5 -35t-36.5 -25q-62 -20 -141 -23q-19 -1 -34.5 9.5t-15.5 28.5
q1 58 1 174q0 8 1 15t1 14q0 16 -8 27q-7 8 -39.5 18.5t-39.5 12.5q-19 8 -19 25q0 15 11.5 30.5t24.5 22.5l25 13q21 11 31.5 19t16 21.5t4.5 35.5q-6 82 -26 169q-1 3 -1 8q0 26 31 43.5t62 17.5q8 0 12 -1q59 -9 135 -11q27 -1 27 -14z" />
    <glyph glyph-name="bar" unicode="|" 
d="M240 18q0 10 5 16q-9 89 -9 208l1 116q1 38 1 115q0 86 -4 154q-1 17 16.5 32t43 24t46.5 9q27 0 28 -15q6 -76 6 -189l-1 -168q0 -162 15 -277q3 -19 -11 -36t-37 -28t-45 -11q-32 0 -45 24l-8 15q-2 4 -2 11z" />
    <glyph glyph-name="braceright" unicode="}" 
d="M125 30q0 14 13.5 31t34 29t40.5 12l32 -2q-1 19 -5 57q-6 48 -6 73q0 14 1 21q2 24 15.5 46.5t36.5 49.5q-63 13 -77 50q-4 11 -4 25q0 16 6 46q1 5 3 15.5t2 17.5q2 30 2 44q0 30 -3 60q-34 3 -103 5q-27 1 -27 15q0 10 16 25t37 26.5t34 11.5h44q45 0 66 4q6 1 17 1
q43 0 47 -33q6 -52 6 -103q0 -31 -1 -46q-1 -7 -3.5 -22t-2.5 -25t3 -15q8 -12 34.5 -11.5t28.5 0.5q21 -1 35 -11.5t14 -26.5q0 -13 -10 -26l-25 -32q-26 -32 -38.5 -55.5t-12.5 -55.5q0 -15 2 -35t3 -29q6 -42 6 -65q0 -16 -3 -33q-4 -20 -19 -35.5t-35 -21.5
q-38 -12 -97 -12l-60 1q-47 1 -47 29z" />
    <glyph glyph-name="asciitilde" unicode="~" 
d="M63.5 277q-7.5 6 -7.5 14q0 10 11 20l105 95q12 11 31.5 18t37.5 7q16 0 26 -5q39 -18 92 -62l28 41q11 15 33.5 24t45.5 9q21 0 34.5 -7.5t13.5 -21.5q0 -12 -11 -27q-18 -28 -56 -82l-24 -34q-12 -16 -32.5 -26t-42.5 -10q-26 0 -43 13q-35 29 -37 31q-50 41 -66 52
l-27 -22q-16 -15 -39 -25.5t-43 -10.5q-7 0 -10 1q-12 2 -19.5 8z" />
    <glyph glyph-name="uni00A0" unicode="&#xa0;" horiz-adv-x="317" 
 />
    <glyph glyph-name="exclamdown" unicode="&#xa1;" horiz-adv-x="170" 
d="M0 493q0 7 6.5 13.5t17.5 14.5l5 3q4 6 11 9q18 14 49 22q11 3 26 3q13 0 18 -3q34 -14 37 -49q3 -37 -37 -64q-26 -18 -57 -23q-12 -2 -21 -2q-16 0 -24 7q-29 27 -31 69zM116.5 -88q-32.5 -17 -63.5 -17q-37 0 -37 25q-3 203 -13 379q-1 19 35.5 36t67.5 17
q26 0 27 -14q10 -193 15 -388q1 -21 -31.5 -38z" />
    <glyph glyph-name="cent" unicode="&#xa2;" 
d="M369 251l15 -6l25 29q12 12 39 21t52 9q37 0 37 -21q0 -10 -12 -27q-29 -41 -48.5 -64.5t-47 -40.5t-59.5 -16v-90q1 -23 -31.5 -41t-64.5 -18q-19 0 -30.5 7.5t-10.5 22.5l3 170q-59 33 -153 98l-29 20q-18 13 -18 31q0 13 10 23q47 51 90 108t98 136l-2 111
q-1 19 31.5 36.5t62.5 17.5q15 0 24.5 -6t10.5 -18q2 -74 2 -111q91 -69 173 -166q6 -7 6 -15q0 -22 -33.5 -41t-64.5 -19q-21 0 -30 10q-1 1 -16 19q-1 1 -31 34zM237 327q0 69 -1 103q-34 -44 -52 -66q47 -33 53 -37z" />
    <glyph glyph-name="sterling" unicode="&#xa3;" 
d="M567 83q0 -15 -15 -33t-28 -26q-43 -24 -118 -24l-62 1l-248 -1q-26 0 -38.5 9.5t-12.5 24.5q0 19 16.5 39.5t38.5 30.5q77 29 94 54q10 14 10 26q0 9 -5 21t-8 20q-2 3 -3 6t-2 5l-20 -1q-17 -14 -38 -23t-41 -10q-16 0 -32 5.5t-16 16.5q0 7 6 14q36 52 119 68
q-6 16 -11 46q-5 38 -5 73q0 92 43 140q25 28 63 45t77 17q17 0 39 -5q49 -15 84 -57.5t68 -105.5q2 -3 2 -9q0 -13 -18 -28t-44 -24.5t-48 -9.5q-28 0 -37 17q-4 7 -17 32t-27.5 44t-29.5 30l-3 -12q-2 -14 -2 -41q-1 -39 7 -71t23 -68q111 2 205 -15q28 -6 28 -20
q0 -13 -21 -29.5t-48 -27.5t-43 -9l-29 3q-10 1 -28 2.5t-30 3.5q2 -14 2 -19q0 -48 -49 -95h25l33 1q48 2 73 2q61 0 100 -11q21 -7 21 -22z" />
    <glyph glyph-name="currency" unicode="&#xa4;" 
d="M557 92q0 -12 -16.5 -26t-40.5 -23t-44 -9q-19 0 -27 8q-37 36 -66 73q-37 -11 -78 -13q-39 0 -75 14q-1 0 -1 -1q-16 -19 -39 -31t-46 -12q-13 -1 -28.5 4.5t-15.5 16.5q0 6 5 12q12 14 34 42l15 19q-30 30 -47.5 68t-17.5 79q0 9 2 25q8 69 73 118q-16 -4 -24 -5
l-12 -1q-18 0 -25 7l-63 80q-5 6 -5 14q0 18 37 39q25 13 51 15l12 1q18 0 25 -7l64 -80q5 -5 5 -13q0 -9 -8 -17q22 8 40 14q15 12 33.5 21t32.5 10q52 3 103 -20q15 16 36 26t42 11q14 0 28.5 -5t14.5 -15q0 -6 -5 -12l-42 -53q33 -31 51 -69.5t16 -79.5q-3 -75 -69 -136
l3 -3q25 -35 66 -73q6 -6 6 -13zM220 418.5q-14 -21.5 -14 -58.5q0 -44 16 -83l117 148q-18 15 -30 20q-23 -9 -48 -7q-27 2 -41 -19.5zM329 182q10 0 22 3q34 9 50.5 32t16.5 54q0 36 -22 82l-120 -152q24 -19 53 -19z" />
    <glyph glyph-name="yen" unicode="&#xa5;" 
d="M440.5 641.5q25.5 6.5 47.5 6.5q33 0 33 -17q0 -8 -7 -18q-63 -103 -107 -224l21 3q16 2 28 -3.5t12 -18.5q0 -7 -2 -11q-7 -19 -32 -29.5t-51 -13.5v0q-11 -35 -18 -69l19 2q15 2 28 -3.5t13 -18.5q0 -6 -3 -12q-8 -16 -28 -26.5t-44 -14.5q-8 -43 -12 -81
q-3 -22 -35.5 -39.5t-63.5 -17.5q-18 0 -28 7.5t-9 21.5q8 67 14 96l-80 -3q-42 0 -42 19q0 3 4 13q9 18 35 29.5t48 12.5l51 3q7 30 18 65l-166 -20q-16 -2 -28 3t-12 18q0 8 2 12q7 19 32 29.5t51 13.5q50 6 71 8q-47 81 -129 207q-7 11 7.5 25.5t40 25t47.5 10.5
q25 0 33 -14q37 -57 79 -124q51 78 129 135q8 6 33.5 12.5z" />
    <glyph glyph-name="brokenbar" unicode="&#xa6;" horiz-adv-x="155" 
d="M33 698q34 18 67 18q37 0 37 -25q2 -42 4 -128l3 -128q1 -22 -32 -40.5t-66 -18.5q-18 0 -29.5 7.5t-11.5 21.5q-1 84 -5 254q-1 21 33 39zM150 241q0 -6 -6 -14q-2 -7 -2 -24q0 -9 3 -51q1 -34 10 -83q3 -17 -13.5 -33t-42.5 -26t-48 -10q-14 0 -23.5 5t-10.5 14
q-9 60 -10 103q-3 42 -3 46q0 32 10 47q10 17 41.5 33t57.5 16q19 0 29 -10l2 -1q6 -6 6 -12z" />
    <glyph glyph-name="section" unicode="&#xa7;" horiz-adv-x="400" 
d="M359.5 231.5q-28.5 -28.5 -68.5 -44.5q22 -1 36.5 -3t27.5 -9q37 -18 37 -54q0 -22 -13 -47t-33 -47q-39 -44 -97.5 -69.5t-118.5 -26.5q-43 -1 -83.5 17t-40.5 51q0 17 12 36q9 15 42 28t59 13q29 0 29 -18q0 -6 -4 -14q18 -30 44 -30q11 0 24 6q26 18 38 41q3 11 3 17
q0 20 -15.5 25.5t-35 6.5t-27.5 2q-47 5 -78.5 15.5t-50.5 38.5q-17 26 -17 56q0 32 19 64.5t49 58.5q-8 4 -12 7q-37 22 -61 58t-24 77q0 16 2 24q15 75 88 114t163 39q59 0 105 -17q15 -5 15 -19q0 -5 -3 -13q-10 -24 -14 -45t-5 -48q-1 -19 -33 -35.5t-62 -16.5
q-34 0 -33 22q1 45 15 87q-14 2 -20 2q-37 0 -62 -18t-25 -49q0 -22 16 -48q20 -32 52 -48.5t79 -28.5q9 -2 44 -9t56.5 -22.5t21.5 -40.5q0 -11 -2 -17q-10 -40 -38.5 -68.5zM179 316q-14 -18 -15 -37l7 -3q41 -24 61 -24q12 0 18 6q15 17 15 25q0 10 -11.5 14.5t-24.5 7
t-18 3.5q-14 2 -32 8z" />
    <glyph glyph-name="dieresis" unicode="&#xa8;" 
d="M142 668q-1 2 -1 6q0 8 13 24q14 15 46 27q30 12 52 9q23 -2 29 -15l15 -31q3 8 11 16q13 13 45 27q26 11 52 9q26 -3 28 -15l10 -35l1 -6q0 -10 -12 -26q-15 -16 -46 -28q-28 -11 -53 -8q-9 1 -18.5 5.5t-10.5 11.5l-8 32q-1 -4 -4.5 -8.5t-5.5 -7.5q-16 -17 -45 -28
q-25 -9 -45 -9q-28 0 -38 19z" />
    <glyph glyph-name="copyright" unicode="&#xa9;" 
d="M47 512q17 9 39 15q127 117 252 117q82 0 156 -54q57 -41 87 -102.5t30 -128.5q0 -44 -13.5 -87.5t-40.5 -81.5q-47 -65 -119 -102.5t-150 -37.5q-69 0 -130 30q-81 39 -126 111t-45 156q0 75 37 145q6 11 23 20zM288 555q-27 0 -52 -13t-54 -37q-24 -21 -50 -30
q-17 -46 -17 -92q0 -47 17 -91.5t50 -79.5q31 -34 71 -55t79 -21q68 0 108 64q35 58 35 126q0 66 -33 123q-17 29 -42.5 53.5t-55.5 38.5q-28 14 -56 14zM127 316q0 13 11.5 26t24.5 20q36 16 63 34q4 2 22.5 13t21.5 22q5 19 40 35t64 16q30 0 26 -20q-7 -33 -35 -61
t-73 -56q51 -30 97 -70q9 -7 9 -17q0 -14 -15.5 -28.5t-38.5 -24t-44 -9.5t-32 11q-50 52 -124 87q-17 9 -17 22z" />
    <glyph glyph-name="guillemotleft" unicode="&#xab;" horiz-adv-x="632" 
d="M249.5 393.5q-31.5 -36.5 -76.5 -74.5l130 -128q9 -9 9 -20q0 -22 -32 -41.5t-64 -19.5q-23 0 -35 12l-152 153q-9 9 -9 19q0 17 18.5 33.5t35.5 21.5q33 10 57.5 41.5t45.5 74.5q8 16 39.5 29t58.5 13q30 0 30 -18q0 -4 -3 -12q-21 -47 -52.5 -83.5zM529.5 393.5
q-31.5 -36.5 -76.5 -74.5l130 -128q9 -9 9 -20q0 -22 -32 -41.5t-64 -19.5q-23 0 -35 12l-152 153q-9 9 -9 19q0 17 18.5 33.5t35.5 21.5q33 10 57.5 41.5t45.5 74.5q8 16 39.5 29t58.5 13q30 0 30 -18q0 -4 -3 -12q-21 -47 -52.5 -83.5z" />
    <glyph glyph-name="logicalnot" unicode="&#xac;" 
d="M494.5 141.5q-32.5 -17.5 -63.5 -17.5q-19 0 -29.5 7.5t-8.5 23.5q2 14 6 30q13 55 11 77q-6 1 -19 1q-27 0 -60 -5q-7 -1 -27.5 -3t-35.5 -1q-89 1 -179 15q-25 4 -25 16q0 11 19 26t44 25t39 8q82 -11 155 -11q84 0 155 14q12 2 19 2q31 0 44 -21q9 -14 9 -40
q0 -23 -11 -74q-1 -8 -3 -15.5t-3 -15.5q-4 -24 -36.5 -41.5z" />
    <glyph glyph-name="registered" unicode="&#xae;" 
d="M617 454q0 -74 -37.5 -142t-102.5 -110q-67 -42 -147 -42q-85 0 -163 46.5t-123 123.5q-34 59 -34 124q0 66 35.5 126t96.5 98q80 68 176 68q67 0 130.5 -33t110.5 -92q58 -72 58 -167zM362 246q43 0 71.5 32t39.5 82q-16 -12 -39 -20.5t-40 -8.5q-10 0 -16 3
q-41 18 -70 33q-16 -11 -38.5 -18.5t-39.5 -7.5q-28 0 -29 16q-6 51 -15 98q-1 7 -2.5 24.5t-6 31t-12.5 18.5q-7 4 -7 12t7.5 17.5t15.5 16.5q33 26 80 24q59 -2 107 -20q24 -8 41 -17t20 -23q1 -3 1 -8q0 -32 -62 -66l89 -46q4 -1 23 -11q3 43 -8 78q-9 29 -41.5 73.5
t-74.5 77.5t-79 33q-21 0 -41 -15q-17 -13 -39 -20q-29 -23 -43 -60t-14 -79q0 -40 13 -77q22 -57 71.5 -105.5t106.5 -63.5q15 -4 31 -4z" />
    <glyph glyph-name="macron" unicode="&#xaf;" 
d="M116 647.5q-7 5.5 -7 14.5q0 10 11 23q15 18 41 26.5t52 8.5q76 -2 118 -2t82 3q25 11 47 11q14 0 24 -5.5t13 -15.5l2 -8q1 -3 1 -9q0 -17 -15 -32t-36 -23t-37 -6q-59 4 -176 6q-34 0 -100 2q-13 1 -20 6.5z" />
    <glyph glyph-name="degree" unicode="&#xb0;" 
d="M424 690.5q42 -32.5 42 -82.5q0 -14 -2 -22q-8 -37 -36 -68t-67 -49.5t-77 -22.5q-38 -3 -70.5 13.5t-51 48.5t-18.5 70q1 34 23.5 60t57.5 40q3 8 9 14q16 18 42.5 27.5t51.5 7.5q54 -4 96 -36.5zM331 569q0 14 -6 29q-9 20 -26 33q-14 -6 -21 -8l-2 -8q0 -16 4 -29
q5 -17 15 -32q4 -5 11 -11.5t11 -11.5q2 5 7 12t6 12t1 14z" />
    <glyph glyph-name="plusminus" unicode="&#xb1;" 
d="M78 368q0 11 19 26.5t43.5 25t39.5 7.5q43 -6 83 -9v16q1 20 33.5 37.5t62.5 17.5q16 0 25.5 -6t9.5 -18q0 -30 1 -45q34 3 64 9q9 2 23 2q15 0 22.5 -5t7.5 -13q0 -15 -20 -32.5t-46 -21.5q-17 -4 -51 -8q0 -31 1 -46q0 -20 -33.5 -37t-64.5 -17q-36 0 -36 24q0 44 1 66
q-78 -1 -160 11q-25 4 -25 16zM258.5 99q-77.5 -3 -155.5 -5q-38 -1 -38 16q0 11 14 25t34 24.5t35 10.5q77 3 155 6t156 5q38 1 38 -16q0 -16 -29 -37t-54 -23q-78 -3 -155.5 -6z" />
    <glyph glyph-name="acute" unicode="&#xb4;" 
d="M181 778q0 12 11 23l20.5 20.5t28.5 31.5t20 29q11 22 35 34t52 14q14 2 30 -7t16 -22q0 -7 -4 -14q-53 -82 -114 -113q-32 -16 -60 -16q-12 0 -21 3q-14 4 -14 17z" />
    <glyph glyph-name="paragraph" unicode="&#xb6;" 
d="M503.5 5q-32.5 -17 -63.5 -17q-17 0 -27 6t-9 19l3 35q-14 -16 -41.5 -27t-50.5 -11q-25 0 -27 15q-12 130 -15 263q-86 14 -149 47t-63 90q0 10 3 22q12 53 55 96.5t100.5 71.5t112.5 38q9 2 22 2q30 0 30 -18q0 -4 -2 -10q23 -3 22 -22q-4 -84 -4 -188v-58l7 -1l12 -3
v69q0 62 -2 188q-1 19 30.5 36t61.5 17q35 0 36 -24q3 -102 3 -203q0 -189 -11 -395q-1 -21 -33.5 -38zM272 384q0 103 4 184q-35 -17 -60 -45t-25 -57q0 -20 13 -37q22 -30 68 -45zM411 123q6 125 7 185q-8 -8 -17 -12q3 -95 10 -173z" />
    <glyph glyph-name="periodcentered" unicode="&#xb7;" 
d="M190 337q0 7 6 14t7 8q13 14 43 26q20 9 42 9q23 0 34 -15v1v-1q7 -9 23.5 -24t31.5 -26q8 -5 8 -15t-10 -21t-21 -19q-21 -13 -42 -17q-9 -3 -24 -3q-13 0 -21 4q-38 20 -75 73q-2 4 -2 6z" />
    <glyph glyph-name="cedilla" unicode="&#xb8;" 
d="M239 -279q-17 0 -35 3q-20 4 -33 10l-24 13l11 -6q-18 10 -18 27q0 10 6 20.5t15 18.5q14 12 32 19t36 7q17 0 30 -6q8 -3 14 -3q11 0 17 8t6 19q0 15 -11 26.5t-30 9.5q-22 -3 -43 5t-21 25q0 11 11 25q9 11 17 29t14 34q8 19 28 32t44 19q8 2 24 2q44 0 36 -23
q-7 -20 -23 -58q42 -6 67 -34q24 -25 24 -60q0 -30 -20 -65q-21 -34 -54.5 -58t-73.5 -34q-25 -5 -46 -5z" />
    <glyph glyph-name="guillemotright" unicode="&#xbb;" horiz-adv-x="635" 
d="M625 305q0 -11 -7 -22.5t-15 -18.5q-30 -22 -54 -46.5t-61 -66.5q-16 -18 -40 -28t-47 -8q-14 2 -27 10t-13 20q0 7 4 14q36 60 96 110q-53 34 -90 86.5t-71 129.5q-2 6 -2 8q0 20 33.5 38t64.5 18q27 0 34 -16q26 -57 47.5 -94t53.5 -68.5t77 -44.5q17 -6 17 -21z
M367 305q0 -11 -7 -22.5t-15 -18.5q-30 -22 -54 -46.5t-61 -66.5q-16 -18 -40 -28t-47 -8q-14 2 -27 10t-13 20q0 7 4 14q36 60 96 110q-53 34 -90 86.5t-71 129.5q-2 6 -2 8q0 20 33.5 38t64.5 18q27 0 34 -16q26 -57 47.5 -94t53.5 -68.5t77 -44.5q17 -6 17 -21z" />
    <glyph glyph-name="questiondown" unicode="&#xbf;" horiz-adv-x="388" 
d="M127 400.5q-9 4.5 -10 11.5q-2 16 -4 44l-2 21q-3 34 55 56q26 11 50 8q7 0 17 -4t11 -11l7 -75q0 -12 -23 -32q-16 -12 -41 -19q-22 -6 -33 -6l-9 1q-9 1 -18 5.5zM388 10q0 -19 -25 -34.5t-47 -20.5q-83 -20 -189 -20q-24 0 -76 2q-44 2 -46 33q-5 66 -5 198
q0 19 15.5 33.5t37 22.5t38.5 7q13 -1 18.5 2t5.5 11q0 6 -3 16q-2 8 -2 11q0 26 31 46.5t64 20.5q17 0 28.5 -6.5t15.5 -20.5q6 -21 6 -39q0 -46 -33.5 -80.5t-84.5 -50.5v-33q0 -54 1 -82q26 -1 76 1q-20 31 -31 54q-2 3 -2 9q0 20 33.5 39t65.5 19q29 0 37 -17
q29 -60 64 -103q7 -8 7 -18z" />
    <glyph glyph-name="Agrave" unicode="&#xc0;" 
d="M415 355q-30 108 -46 184q-39 -78 -103 -190q-5 -11 -17 -31q40 62 91 62q20 0 39 -8q16 -6 36 -17zM636 255l11 -22q14 -24 21 -40.5t7 -33.5q0 -26 -22 -53.5t-48 -40.5q-16 -9 -34 -9q-30 0 -59.5 18.5t-70.5 53.5q-29 24 -44 34q-10 7 -42 22q-56 28 -86.5 50
t-30.5 52q0 8 7 24q-19 -34 -53 -104q-42 -85 -48 -95q-12 -22 -39 -48.5t-50 -26.5q-12 0 -21 9q-7 7 -7 22q0 42 64 149q4 8 13 23l22 42q68 128 99 193q18 38 52 114l36 81q22 47 44 78.5t55 48.5q17 9 32 9q20 0 29 -18.5t16 -54.5q18 -103 50 -218q41 -139 97 -259z
M245 942q-6 6 -6 14q0 20 37 39t69 19q18 0 26 -7l2 -2l4 -4l44 -48q6 -6 24 -22.5t24 -31.5q2 -6 2 -10q0 -23 -40 -47q-27 -16 -61 -16q-16 0 -27 4q0 1 -0.5 1h-0.5q-15 5 -18 20q-4 8 -16.5 21.5t-17.5 19.5z" />
    <glyph glyph-name="Aacute" unicode="&#xc1;" horiz-adv-x="680" 
d="M415 355q-30 108 -46 184q-39 -78 -103 -190q-5 -11 -17 -31q40 62 91 62q20 0 39 -8q16 -6 36 -17zM636 255l11 -22q14 -24 21 -40.5t7 -33.5q0 -26 -22 -53.5t-48 -40.5q-16 -9 -34 -9q-30 0 -59.5 18.5t-70.5 53.5q-29 24 -44 34q-10 7 -42 22q-56 28 -86.5 50
t-30.5 52q0 8 7 24q-19 -34 -53 -104q-42 -85 -48 -95q-12 -22 -39 -48.5t-50 -26.5q-12 0 -21 9q-7 7 -7 22q0 42 64 149q4 8 13 23l22 42q68 128 99 193q18 38 52 114l36 81q22 47 44 78.5t55 48.5q17 9 32 9q20 0 29 -18.5t16 -54.5q18 -103 50 -218q41 -139 97 -259z
M309 825q0 12 11 23l20.5 20.5t28.5 31.5t20 29q11 22 35 34t52 14q14 2 30 -7t16 -22q0 -7 -4 -14q-53 -82 -114 -113q-32 -16 -60 -16q-12 0 -21 3q-14 4 -14 17z" />
    <glyph glyph-name="Acircumflex" unicode="&#xc2;" horiz-adv-x="679" 
d="M415 355q-30 108 -46 184q-39 -78 -103 -190q-5 -11 -17 -31q40 62 91 62q20 0 39 -8q16 -6 36 -17zM636 255l11 -22q14 -24 21 -40.5t7 -33.5q0 -26 -22 -53.5t-48 -40.5q-16 -9 -34 -9q-30 0 -59.5 18.5t-70.5 53.5q-29 24 -44 34q-10 7 -42 22q-56 28 -86.5 50
t-30.5 52q0 8 7 24q-19 -34 -53 -104q-42 -85 -48 -95q-12 -22 -39 -48.5t-50 -26.5q-12 0 -21 9q-7 7 -7 22q0 42 64 149q4 8 13 23l22 42q68 128 99 193q18 38 52 114l36 81q22 47 44 78.5t55 48.5q17 9 32 9q20 0 29 -18.5t16 -54.5q18 -103 50 -218q41 -139 97 -259z
M535 933.5q23 -15.5 46 -27t30 -14.5q17 -8 17 -23q0 -9 -6.5 -19.5t-15.5 -17.5q-13 -11 -31.5 -17.5t-36.5 -6.5q-16 0 -27 4q-39 14 -71 33q-5 3 -18 16q-29 -26 -57 -44q-41 -26 -74 -26q-13 0 -21 4q-15 7 -15 19q0 8 6.5 17t16.5 15q65 46 92 93q10 17 39 34t54 17
q22 0 32 -15q17 -26 40 -41.5z" />
    <glyph glyph-name="Atilde" unicode="&#xc3;" 
d="M415 355q-30 108 -46 184q-39 -78 -103 -190q-5 -11 -17 -31q40 62 91 62q20 0 39 -8q16 -6 36 -17zM636 255l11 -22q14 -24 21 -40.5t7 -33.5q0 -26 -22 -53.5t-48 -40.5q-16 -9 -34 -9q-30 0 -59.5 18.5t-70.5 53.5q-29 24 -44 34q-10 7 -42 22q-56 28 -86.5 50
t-30.5 52q0 8 7 24q-19 -34 -53 -104q-42 -85 -48 -95q-12 -22 -39 -48.5t-50 -26.5q-12 0 -21 9q-7 7 -7 22q0 42 64 149q4 8 13 23l22 42q68 128 99 193q18 38 52 114l36 81q22 47 44 78.5t55 48.5q17 9 32 9q20 0 29 -18.5t16 -54.5q18 -103 50 -218q41 -139 97 -259z
M539.5 990q23.5 18 46.5 18q14 0 22.5 -8t8.5 -25q1 -41 -22 -70t-56.5 -44t-64.5 -15q-9 0 -13 1q-30 3 -78 22q-25 9 -32 11l-36 9l-4 -12q-4 -20 -30 -36t-49 -16q-25 0 -21 20q11 59 43 97t78 41q13 0 66 -16q10 -3 49 -13t56 -10q12 0 12 5q1 23 24.5 41z" />
    <glyph glyph-name="Adieresis" unicode="&#xc4;" horiz-adv-x="679" 
d="M415 355q-30 108 -46 184q-39 -78 -103 -190q-5 -11 -17 -31q40 62 91 62q20 0 39 -8q16 -6 36 -17zM636 255l11 -22q14 -24 21 -40.5t7 -33.5q0 -26 -22 -53.5t-48 -40.5q-16 -9 -34 -9q-30 0 -59.5 18.5t-70.5 53.5q-29 24 -44 34q-10 7 -42 22q-56 28 -86.5 50
t-30.5 52q0 8 7 24q-19 -34 -53 -104q-42 -85 -48 -95q-12 -22 -39 -48.5t-50 -26.5q-12 0 -21 9q-7 7 -7 22q0 42 64 149q4 8 13 23l22 42q68 128 99 193q18 38 52 114l36 81q22 47 44 78.5t55 48.5q17 9 32 9q20 0 29 -18.5t16 -54.5q18 -103 50 -218q41 -139 97 -259z
M283 876q-1 2 -1 6q0 8 13 24q14 15 46 27q30 12 52 9q23 -2 29 -15l15 -31q3 8 11 16q13 13 45 27q26 11 52 9q26 -3 28 -15l10 -35l1 -6q0 -10 -12 -26q-15 -16 -46 -28q-28 -11 -53 -8q-9 1 -18.5 5.5t-10.5 11.5l-8 32q-1 -4 -4.5 -8.5t-5.5 -7.5q-16 -17 -45 -28
q-25 -9 -45 -9q-28 0 -38 19z" />
    <glyph glyph-name="Aring" unicode="&#xc5;" horiz-adv-x="679" 
d="M415 355q-30 108 -46 184q-39 -78 -103 -190q-5 -11 -17 -31q40 62 91 62q20 0 39 -8q16 -6 36 -17zM636 255l11 -22q14 -24 21 -40.5t7 -33.5q0 -26 -22 -53.5t-48 -40.5q-16 -9 -34 -9q-30 0 -59.5 18.5t-70.5 53.5q-29 24 -44 34q-10 7 -42 22q-56 28 -86.5 50
t-30.5 52q0 8 7 24q-19 -34 -53 -104q-42 -85 -48 -95q-12 -22 -39 -48.5t-50 -26.5q-12 0 -21 9q-7 7 -7 22q0 42 64 149q4 8 13 23l22 42q68 128 99 193q18 38 52 114l36 81q22 47 44 78.5t55 48.5q17 9 32 9q20 0 29 -18.5t16 -54.5q18 -103 50 -218q41 -139 97 -259z
M456 1095q61 0 99 -42q28 -32 28 -68q0 -37 -28.5 -70.5t-70.5 -54.5q-26 -13 -62.5 -22.5t-69.5 -9.5q-90 0 -105 69q-3 15 -3 28q0 51 34.5 91t85.5 55q45 24 92 24zM409 1006zM446 943q0 13 -6 29t-19 27l-9 6q-14 -11 -29 -17q-2 -7 -2 -22q0 -24 8.5 -41t24.5 -17
q11 0 18 5q14 8 14 30z" />
    <glyph glyph-name="AE" unicode="&#xc6;" horiz-adv-x="988" 
d="M988 440q0 -14 -21.5 -34.5t-49.5 -36t-44 -15.5q-94 -3 -189 -3h-63q1 -24 1 -73q0 -50 -1 -75q87 3 172 3q42 0 124 -2q17 -1 26 -8.5t9 -19.5q0 -11 -9 -23q-14 -22 -46.5 -37t-60.5 -15q-36 -1 -108 -1h-109v0q0 -20 -21 -38t-52 -28.5t-58 -10.5q-23 0 -37.5 9.5
t-13.5 28.5q5 135 5 244v50q-80 2 -117 2q-80 -130 -159 -225q-18 -21 -53 -35t-62 -11q-19 2 -35 9.5t-16 20.5q0 9 7 17q114 154 185 287l12 24q116 228 116 272q0 6 -3 9q-15 15 -15 30q0 21 22.5 40.5t52 32t47.5 10.5q64 -6 156 -6q124 0 294 17q7 1 19 1
q31 0 46.5 -12t15.5 -30q0 -26 -25.5 -51.5t-64.5 -33.5q-111 -24 -259 -27q10 -129 14 -232q193 0 332 -5q36 -1 36 -19zM440 463q-2 68 -4 105q-8 -17 -30 -59l-15 -29l-9 -17h58z" />
    <glyph glyph-name="Ccedilla" unicode="&#xc7;" horiz-adv-x="537" 
d="M264 575l2 1zM468 320q24 0 38.5 -29t14.5 -63q0 -18 -5 -31q-15 -39 -49 -71t-82 -65q-47 -31 -110.5 -56.5t-117.5 -25.5q-81 0 -108 64q-16 36 -16 91q0 69 22.5 142.5t61.5 174.5q39 99 93 188.5t119 89.5q17 0 31 -7q11 76 51 112q25 21 43 21q21 0 32 -25
q7 -18 7 -46q0 -14 -2 -38l-1 -30q-2 -73 -9 -146q-6 -66 -29 -126t-73 -65q-25 -3 -40.5 26t-32.5 85q-11 36 -18.5 54.5t-16.5 27.5q-57 -101 -84 -221l-5 -20q-8 -36 -12.5 -59.5t-4.5 -46.5q0 -51 26 -70q18 -15 51 -15q22 0 48 7q26 6 55 19q9 4 27 14q8 1 8 6
q0 4 -5 8q2 9 4 25q2 15 5 25t10 21q26 38 55 51q9 4 19 4zM239 -279q-17 0 -35 3q-20 4 -33 10l-24 13l11 -6q-18 10 -18 27q0 10 6 20.5t15 18.5q14 12 32 19t36 7q17 0 30 -6q8 -3 14 -3q11 0 17 8t6 19q0 15 -11 26.5t-30 9.5q-22 -3 -43 5t-21 25q0 11 11 25
q9 11 17 29t14 34q8 19 28 32t44 19q8 2 24 2q44 0 36 -23q-7 -20 -23 -58q42 -6 67 -34q24 -25 24 -60q0 -30 -20 -65q-21 -34 -54.5 -58t-73.5 -34q-25 -5 -46 -5z" />
    <glyph glyph-name="Egrave" unicode="&#xc8;" 
d="M565 152q0 -13 -5.5 -28.5t-14.5 -28.5q-19 -28 -43.5 -38t-63.5 -12q-79 -3 -113 -3q-98 -3 -136 -5q-78 -3 -137 -20q-24 -6 -33 -6q-11 0 -17 7t-6 25q0 19 7.5 39.5t23.5 55.5q14 27 22 50q2 7 9.5 28t10.5 38q1 5 1 12q0 6 -2 14.5t-3 16.5q-1 16 4.5 31.5
t16.5 35.5q17 35 20 50q18 86 20 130l1 31q0 30 -6 44q-5 12 -18 24q-12 12 -16 20q-5 9 -5 24q0 17 8.5 36.5t21.5 35.5q23 30 55 30q24 0 48.5 -14t59.5 -41q26 -20 39 -28q47 -28 79 -43t68 -22q17 -3 32 -3q16 0 32 3q6 1 19.5 6.5t20.5 5.5t12 -4q10 -7 10 -23
t-9.5 -35.5t-19.5 -32.5q-31 -38 -88 -46q-18 -3 -37 -3q-51 0 -100 17.5t-112 49.5q-6 -77 -23 -160l34 8q53 13 86.5 19.5t65.5 6.5q14 0 21 -1q35 -3 35 -35q0 -15 -7.5 -33t-18.5 -33q-20 -27 -49 -35t-75 -9l-34 -2q-36 -4 -55 -7q-19 -2 -23.5 -4.5t-8 -9.5t-7.5 -13
q-7 -12 -13 -31t-10 -38q-6 -28 -10 -40q56 13 163.5 24.5t181.5 11.5q32 0 53 -3q38 -5 38 -40zM183 900q-6 6 -6 14q0 20 37 39t69 19q18 0 26 -7l2 -2l4 -4l44 -48q6 -6 24 -22.5t24 -31.5q2 -6 2 -10q0 -23 -40 -47q-27 -16 -61 -16q-16 0 -27 4q0 1 -0.5 1h-0.5
q-15 5 -18 20q-4 8 -16.5 21.5t-17.5 19.5z" />
    <glyph glyph-name="Eacute" unicode="&#xc9;" 
d="M565 152q0 -13 -5.5 -28.5t-14.5 -28.5q-19 -28 -43.5 -38t-63.5 -12q-79 -3 -113 -3q-98 -3 -136 -5q-78 -3 -137 -20q-24 -6 -33 -6q-11 0 -17 7t-6 25q0 19 7.5 39.5t23.5 55.5q14 27 22 50q2 7 9.5 28t10.5 38q1 5 1 12q0 6 -2 14.5t-3 16.5q-1 16 4.5 31.5
t16.5 35.5q17 35 20 50q18 86 20 130l1 31q0 30 -6 44q-5 12 -18 24q-12 12 -16 20q-5 9 -5 24q0 17 8.5 36.5t21.5 35.5q23 30 55 30q24 0 48.5 -14t59.5 -41q26 -20 39 -28q47 -28 79 -43t68 -22q17 -3 32 -3q16 0 32 3q6 1 19.5 6.5t20.5 5.5t12 -4q10 -7 10 -23
t-9.5 -35.5t-19.5 -32.5q-31 -38 -88 -46q-18 -3 -37 -3q-51 0 -100 17.5t-112 49.5q-6 -77 -23 -160l34 8q53 13 86.5 19.5t65.5 6.5q14 0 21 -1q35 -3 35 -35q0 -15 -7.5 -33t-18.5 -33q-20 -27 -49 -35t-75 -9l-34 -2q-36 -4 -55 -7q-19 -2 -23.5 -4.5t-8 -9.5t-7.5 -13
q-7 -12 -13 -31t-10 -38q-6 -28 -10 -40q56 13 163.5 24.5t181.5 11.5q32 0 53 -3q38 -5 38 -40zM297 820q0 12 11 23l20.5 20.5t28.5 31.5t20 29q11 22 35 34t52 14q14 2 30 -7t16 -22q0 -7 -4 -14q-53 -82 -114 -113q-32 -16 -60 -16q-12 0 -21 3q-14 4 -14 17z" />
    <glyph glyph-name="Ecircumflex" unicode="&#xca;" horiz-adv-x="567" 
d="M565 152q0 -13 -5.5 -28.5t-14.5 -28.5q-19 -28 -43.5 -38t-63.5 -12q-79 -3 -113 -3q-98 -3 -136 -5q-78 -3 -137 -20q-24 -6 -33 -6q-11 0 -17 7t-6 25q0 19 7.5 39.5t23.5 55.5q14 27 22 50q2 7 9.5 28t10.5 38q1 5 1 12q0 6 -2 14.5t-3 16.5q-1 16 4.5 31.5
t16.5 35.5q17 35 20 50q18 86 20 130l1 31q0 30 -6 44q-5 12 -18 24q-12 12 -16 20q-5 9 -5 24q0 17 8.5 36.5t21.5 35.5q23 30 55 30q24 0 48.5 -14t59.5 -41q26 -20 39 -28q47 -28 79 -43t68 -22q17 -3 32 -3q16 0 32 3q6 1 19.5 6.5t20.5 5.5t12 -4q10 -7 10 -23
t-9.5 -35.5t-19.5 -32.5q-31 -38 -88 -46q-18 -3 -37 -3q-51 0 -100 17.5t-112 49.5q-6 -77 -23 -160l34 8q53 13 86.5 19.5t65.5 6.5q14 0 21 -1q35 -3 35 -35q0 -15 -7.5 -33t-18.5 -33q-20 -27 -49 -35t-75 -9l-34 -2q-36 -4 -55 -7q-19 -2 -23.5 -4.5t-8 -9.5t-7.5 -13
q-7 -12 -13 -31t-10 -38q-6 -28 -10 -40q56 13 163.5 24.5t181.5 11.5q32 0 53 -3q38 -5 38 -40zM398 962.5q23 -15.5 46 -27t30 -14.5q17 -8 17 -23q0 -9 -6.5 -19.5t-15.5 -17.5q-13 -11 -31.5 -17.5t-36.5 -6.5q-16 0 -27 4q-39 14 -71 33q-5 3 -18 16q-29 -26 -57 -44
q-41 -26 -74 -26q-13 0 -21 4q-15 7 -15 19q0 8 6.5 17t16.5 15q65 46 92 93q10 17 39 34t54 17q22 0 32 -15q17 -26 40 -41.5z" />
    <glyph glyph-name="Edieresis" unicode="&#xcb;" horiz-adv-x="567" 
d="M565 152q0 -13 -5.5 -28.5t-14.5 -28.5q-19 -28 -43.5 -38t-63.5 -12q-79 -3 -113 -3q-98 -3 -136 -5q-78 -3 -137 -20q-24 -6 -33 -6q-11 0 -17 7t-6 25q0 19 7.5 39.5t23.5 55.5q14 27 22 50q2 7 9.5 28t10.5 38q1 5 1 12q0 6 -2 14.5t-3 16.5q-1 16 4.5 31.5
t16.5 35.5q17 35 20 50q18 86 20 130l1 31q0 30 -6 44q-5 12 -18 24q-12 12 -16 20q-5 9 -5 24q0 17 8.5 36.5t21.5 35.5q23 30 55 30q24 0 48.5 -14t59.5 -41q26 -20 39 -28q47 -28 79 -43t68 -22q17 -3 32 -3q16 0 32 3q6 1 19.5 6.5t20.5 5.5t12 -4q10 -7 10 -23
t-9.5 -35.5t-19.5 -32.5q-31 -38 -88 -46q-18 -3 -37 -3q-51 0 -100 17.5t-112 49.5q-6 -77 -23 -160l34 8q53 13 86.5 19.5t65.5 6.5q14 0 21 -1q35 -3 35 -35q0 -15 -7.5 -33t-18.5 -33q-20 -27 -49 -35t-75 -9l-34 -2q-36 -4 -55 -7q-19 -2 -23.5 -4.5t-8 -9.5t-7.5 -13
q-7 -12 -13 -31t-10 -38q-6 -28 -10 -40q56 13 163.5 24.5t181.5 11.5q32 0 53 -3q38 -5 38 -40zM172 858q-1 2 -1 6q0 8 13 24q14 15 46 27q30 12 52 9q23 -2 29 -15l15 -31q3 8 11 16q13 13 45 27q26 11 52 9q26 -3 28 -15l10 -35l1 -6q0 -10 -12 -26q-15 -16 -46 -28
q-28 -11 -53 -8q-9 1 -18.5 5.5t-10.5 11.5l-8 32q-1 -4 -4.5 -8.5t-5.5 -7.5q-16 -17 -45 -28q-25 -9 -45 -9q-28 0 -38 19z" />
    <glyph glyph-name="Igrave" unicode="&#xcc;" horiz-adv-x="181" 
d="M127 162q0 -25 -12.5 -55.5t-33.5 -52t-44 -21.5q-19 0 -25.5 18.5t-6.5 47.5q0 85 11 219q0 11 2 31q1 15 5 45q1 10 4 42.5t3 59.5q0 24 -3 46l-3 22q-4 22 -4 32q0 29 14.5 58t38.5 47q19 13 32 13q30 0 30 -74l-1 -34v-109q0 -72 -1 -108q-1 -22 -5 -68
q-1 -13 -3 -43t-2 -54q0 -25 3 -51zM-45 895q-6 6 -6 14q0 20 37 39t69 19q18 0 26 -7l2 -2l4 -4l44 -48q6 -6 24 -22.5t24 -31.5q2 -6 2 -10q0 -23 -40 -47q-27 -16 -61 -16q-16 0 -27 4q0 1 -0.5 1h-0.5q-15 5 -18 20q-4 8 -16.5 21.5t-17.5 19.5z" />
    <glyph glyph-name="Iacute" unicode="&#xcd;" horiz-adv-x="172" 
d="M127 162q0 -25 -12.5 -55.5t-33.5 -52t-44 -21.5q-19 0 -25.5 18.5t-6.5 47.5q0 85 11 219q0 11 2 31q1 15 5 45q1 10 4 42.5t3 59.5q0 24 -3 46l-3 22q-4 22 -4 32q0 29 14.5 58t38.5 47q19 13 32 13q30 0 30 -74l-1 -34v-109q0 -72 -1 -108q-1 -22 -5 -68
q-1 -13 -3 -43t-2 -54q0 -25 3 -51zM12 804q0 12 11 23l20.5 20.5t28.5 31.5t20 29q11 22 35 34t52 14q14 2 30 -7t16 -22q0 -7 -4 -14q-53 -82 -114 -113q-32 -16 -60 -16q-12 0 -21 3q-14 4 -14 17z" />
    <glyph glyph-name="Icircumflex" unicode="&#xce;" horiz-adv-x="161" 
d="M127 162q0 -25 -12.5 -55.5t-33.5 -52t-44 -21.5q-19 0 -25.5 18.5t-6.5 47.5q0 85 11 219q0 11 2 31q1 15 5 45q1 10 4 42.5t3 59.5q0 24 -3 46l-3 22q-4 22 -4 32q0 29 14.5 58t38.5 47q19 13 32 13q30 0 30 -74l-1 -34v-109q0 -72 -1 -108q-1 -22 -5 -68
q-1 -13 -3 -43t-2 -54q0 -25 3 -51zM207 874.5q23 -15.5 46 -27t30 -14.5q17 -8 17 -23q0 -9 -6.5 -19.5t-15.5 -17.5q-13 -11 -31.5 -17.5t-36.5 -6.5q-16 0 -27 4q-39 14 -71 33q-5 3 -18 16q-29 -26 -57 -44q-41 -26 -74 -26q-13 0 -21 4q-15 7 -15 19q0 8 6.5 17
t16.5 15q65 46 92 93q10 17 39 34t54 17q22 0 32 -15q17 -26 40 -41.5z" />
    <glyph glyph-name="Idieresis" unicode="&#xcf;" horiz-adv-x="161" 
d="M127 162q0 -25 -12.5 -55.5t-33.5 -52t-44 -21.5q-19 0 -25.5 18.5t-6.5 47.5q0 85 11 219q0 11 2 31q1 15 5 45q1 10 4 42.5t3 59.5q0 24 -3 46l-3 22q-4 22 -4 32q0 29 14.5 58t38.5 47q19 13 32 13q30 0 30 -74l-1 -34v-109q0 -72 -1 -108q-1 -22 -5 -68
q-1 -13 -3 -43t-2 -54q0 -25 3 -51zM-60 844q-1 2 -1 6q0 8 13 24q14 15 46 27q30 12 52 9q23 -2 29 -15l15 -31q3 8 11 16q13 13 45 27q26 11 52 9q26 -3 28 -15l10 -35l1 -6q0 -10 -12 -26q-15 -16 -46 -28q-27 -11 -53 -8q-9 1 -18.5 5.5t-10.5 11.5l-8 32
q-1 -4 -4.5 -8.5t-5.5 -7.5q-16 -17 -45 -28q-25 -9 -45 -9q-29 0 -38 19z" />
    <glyph glyph-name="Eth" unicode="&#xd0;" horiz-adv-x="725" 
d="M59 846q21 0 39 -12q7 -5 13 -10t11 -9q6 -4 16 -8t17 -8q30 -16 88 -50l89 -51q77 -44 135 -76l64 -34q57 -29 96.5 -52t73.5 -52q25 -23 39 -45t14 -48l-1 -11q-10 -58 -61 -111q-39 -42 -91.5 -72t-120.5 -57q-116 -44 -266 -79q-16 -4 -23 -5l-41 -10l-58 -11
q-27 -5 -66 -10q-4 -1 -14.5 -3.5t-18.5 -2.5q-4 0 -12 2q-21 4 -21 25q0 14 9.5 32.5t19.5 29.5q30 35 88 48q12 3 14.5 6.5t3.5 16.5q0 18 2 54q8 95 10 145q4 48 5 72q1 5 2 13.5t1 20.5q0 13 -4 24q-21 51 -67 126q0 -1 1.5 -2.5t2.5 -5.5q-13 23 -43 67q-4 5 -9 13
t-9 13q-3 3 -8 8.5t-8 9.5q-5 10 -5 18q0 22 21.5 46t43.5 38q13 7 28 7zM264 195q91 20 197 53q57 18 93 33t68 39q-29 35 -65.5 60.5t-103.5 65.5l-75 45l-121 75q37 -105 37 -197q0 -67 -19 -133zM0 350q0 11 19 26t43 24.5t39 7.5q60 -9 117 -9q68 0 139 12q21 3 27 3
q31 0 32 -23q1 -18 -24.5 -32t-47.5 -18q-81 -20 -176 -20q-73 0 -143 12q-25 4 -25 17z" />
    <glyph glyph-name="Ntilde" unicode="&#xd1;" horiz-adv-x="469" 
d="M202 847h3q16 0 21 -14q6 -11 8 -30q2 -10 2 -14q14 -49 25.5 -85.5t19.5 -61.5q8 -27 25 -81.5t29 -96.5q4 -13 5 -17q0 28 -2 84l-1 42l-1 26q-1 41 -3.5 68t-9.5 53q0 26 8 46l12 26q11 21 33 42q16 14 35 17q17 0 26 -15q15 -39 17 -85q0 -28 1 -41q0 -52 1 -77
q0 -55 -2 -163q0 -55 -6 -163l-1 -21q-1 -11 -2.5 -38t-4.5 -48q-9 -67 -22 -106q-11 -29 -20 -45q-10 -19 -34 -41q-17 -15 -33 -15q-6 0 -12 3q-16 8 -27 42q-9 28 -18 66q-6 28 -8 42q-11 56 -16 76q-11 56 -37 166q-33 -204 -102 -338q-7 -15 -19.5 -28t-25.5 -19
q-7 -4 -16 -4q-8 0 -12 2q-13 9 -13 31q0 9 1 13q5 25 16 44l2 4q18 41 32 90q16 67 25 138t16 162q2 50 2 73l-1 52q0 18 -1 28q0 7 -0.5 17.5t0.5 24.5q0 34 1.5 53.5t8.5 37.5q16 41 42 63q15 12 33 15zM385.5 984q23.5 18 46.5 18q14 0 22.5 -8t8.5 -25q1 -41 -22 -70
t-56.5 -44t-64.5 -15q-9 0 -13 1q-30 3 -78 22q-25 9 -32 11l-36 9l-4 -12q-4 -20 -30 -36t-49 -16q-25 0 -21 20q11 59 43 97t78 41q13 0 66 -16q10 -3 49 -13t56 -10q12 0 12 5q1 23 24.5 41z" />
    <glyph glyph-name="Ograve" unicode="&#xd2;" 
d="M361 837q87 0 130 -74.5t43 -193.5q0 -124 -43.5 -255.5t-119 -218.5t-167.5 -87q-43 0 -84 20q-50 25 -74.5 85t-24.5 144q0 114 40.5 242.5t107.5 221.5t142 110q27 6 50 6zM198.5 615.5q-42.5 -52.5 -67 -131t-24.5 -153.5q0 -76 27 -123.5t81 -47.5q22 0 44 7
q46 15 85.5 68t62.5 124.5t23 138.5q0 78 -33.5 125.5t-103.5 45.5q-52 -1 -94.5 -53.5zM267 915q-6 6 -6 14q0 20 37 39t69 19q18 0 26 -7l2 -2l4 -4l44 -48q6 -6 24 -22.5t24 -31.5q2 -6 2 -10q0 -23 -40 -47q-27 -16 -61 -16q-16 0 -27 4q0 1 -0.5 1h-0.5q-15 5 -18 20
q-4 8 -16.5 21.5t-17.5 19.5z" />
    <glyph glyph-name="Oacute" unicode="&#xd3;" 
d="M361 837q87 0 130 -74.5t43 -193.5q0 -124 -43.5 -255.5t-119 -218.5t-167.5 -87q-43 0 -84 20q-50 25 -74.5 85t-24.5 144q0 114 40.5 242.5t107.5 221.5t142 110q27 6 50 6zM198.5 615.5q-42.5 -52.5 -67 -131t-24.5 -153.5q0 -76 27 -123.5t81 -47.5q22 0 44 7
q46 15 85.5 68t62.5 124.5t23 138.5q0 78 -33.5 125.5t-103.5 45.5q-52 -1 -94.5 -53.5zM232 809q0 12 11 23l20.5 20.5t28.5 31.5t20 29q11 22 35 34t52 14q14 2 30 -7t16 -22q0 -7 -4 -14q-53 -82 -114 -113q-32 -16 -60 -16q-12 0 -21 3q-14 4 -14 17z" />
    <glyph glyph-name="Ocircumflex" unicode="&#xd4;" horiz-adv-x="606" 
d="M361 837q87 0 130 -74.5t43 -193.5q0 -124 -43.5 -255.5t-119 -218.5t-167.5 -87q-43 0 -84 20q-50 25 -74.5 85t-24.5 144q0 114 40.5 242.5t107.5 221.5t142 110q27 6 50 6zM198.5 615.5q-42.5 -52.5 -67 -131t-24.5 -153.5q0 -76 27 -123.5t81 -47.5q22 0 44 7
q46 15 85.5 68t62.5 124.5t23 138.5q0 78 -33.5 125.5t-103.5 45.5q-52 -1 -94.5 -53.5zM494 921.5q23 -15.5 46 -27t30 -14.5q17 -8 17 -23q0 -9 -6.5 -19.5t-15.5 -17.5q-13 -11 -31.5 -17.5t-36.5 -6.5q-16 0 -27 4q-39 14 -71 33q-5 3 -18 16q-29 -26 -57 -44
q-41 -26 -74 -26q-13 0 -21 4q-15 7 -15 19q0 8 6.5 17t16.5 15q65 46 92 93q10 17 39 34t54 17q22 0 32 -15q17 -26 40 -41.5z" />
    <glyph glyph-name="Otilde" unicode="&#xd5;" 
d="M361 837q87 0 130 -74.5t43 -193.5q0 -124 -43.5 -255.5t-119 -218.5t-167.5 -87q-43 0 -84 20q-50 25 -74.5 85t-24.5 144q0 114 40.5 242.5t107.5 221.5t142 110q27 6 50 6zM198.5 615.5q-42.5 -52.5 -67 -131t-24.5 -153.5q0 -76 27 -123.5t81 -47.5q22 0 44 7
q46 15 85.5 68t62.5 124.5t23 138.5q0 78 -33.5 125.5t-103.5 45.5q-52 -1 -94.5 -53.5zM512.5 929q23.5 18 46.5 18q14 0 22.5 -8t8.5 -25q1 -41 -22 -70t-56.5 -44t-64.5 -15q-9 0 -13 1q-30 3 -78 22q-25 9 -32 11l-36 9l-4 -12q-4 -20 -30 -36t-49 -16q-25 0 -21 20
q11 59 43 97t78 41q13 0 66 -16q10 -3 49 -13t56 -10q12 0 12 5q1 23 24.5 41z" />
    <glyph glyph-name="Odieresis" unicode="&#xd6;" horiz-adv-x="606" 
d="M361 837q87 0 130 -74.5t43 -193.5q0 -124 -43.5 -255.5t-119 -218.5t-167.5 -87q-43 0 -84 20q-50 25 -74.5 85t-24.5 144q0 114 40.5 242.5t107.5 221.5t142 110q27 6 50 6zM198.5 615.5q-42.5 -52.5 -67 -131t-24.5 -153.5q0 -76 27 -123.5t81 -47.5q22 0 44 7
q46 15 85.5 68t62.5 124.5t23 138.5q0 78 -33.5 125.5t-103.5 45.5q-52 -1 -94.5 -53.5zM234 844q-1 2 -1 6q0 8 13 24q14 15 46 27q30 12 52 9q23 -2 29 -15l15 -31q3 8 11 16q13 13 45 27q26 11 52 9q26 -3 28 -15l10 -35l1 -6q0 -10 -12 -26q-15 -16 -46 -28
q-28 -11 -53 -8q-9 1 -18.5 5.5t-10.5 11.5l-8 32q-1 -4 -4.5 -8.5t-5.5 -7.5q-16 -17 -45 -28q-25 -9 -45 -9q-28 0 -38 19z" />
    <glyph glyph-name="multiply" unicode="&#xd7;" 
d="M480 450.5q7 -5.5 7 -13.5q0 -11 -11 -21l-104 -93l63 -71q6 -6 6 -13q0 -20 -34.5 -39t-64.5 -19q-18 0 -26 9l-43 48l-54 -45q-11 -10 -32 -17.5t-39 -7.5q-13 0 -21 4q-14 7 -14 18q0 14 22 32l86 75l-96 109q-6 6 -6 13q0 20 33 38.5t64 18.5q19 0 27 -9l77 -85
l15 13l34 30q17 15 38.5 24.5t42.5 9.5q7 0 11 -1q12 -2 19 -7.5z" />
    <glyph glyph-name="Oslash" unicode="&#xd8;" horiz-adv-x="608" 
d="M361 837q87 0 130 -74.5t43 -193.5q0 -124 -43.5 -255.5t-119 -218.5t-167.5 -87q-43 0 -84 20q-50 25 -74.5 85t-24.5 144q0 114 40.5 242.5t107.5 221.5t142 110q27 6 50 6zM198.5 615.5q-42.5 -52.5 -67 -131t-24.5 -153.5q0 -76 27 -123.5t81 -47.5q22 0 44 7
q46 15 85.5 68t62.5 124.5t23 138.5q0 78 -33.5 125.5t-103.5 45.5q-52 -1 -94.5 -53.5zM522.5 728q28.5 8 53.5 8q32 0 32 -13q0 -4 -6 -12q-79 -97 -161.5 -206.5t-96.5 -128.5q-119 -161 -198 -261q-10 -12 -38 -20.5t-54 -8.5q-37 0 -37 18q0 7 6 16q92 137 195.5 266
t266.5 323q9 11 37.5 19z" />
    <glyph glyph-name="Ugrave" unicode="&#xd9;" horiz-adv-x="490" 
d="M118 143l-3 -7zM464 610q11 -76 16 -121.5t5 -92.5q0 -61 -12 -121q-22 -94 -79 -141q-23 -19 -51 -29t-72 -20q-19 -4 -31 -7q-13 -3 -23 -6.5t-18 -5.5q-51 -14 -78.5 -20t-54.5 -6q-30 0 -42.5 11t-12.5 31q0 19 10 49q5 16 23 71q32 97 50.5 166.5t25.5 140.5
q-21 -20 -38 -20q-14 0 -24 13.5t-15 35.5q-3 15 -3 30q0 41 22 98q15 39 47.5 83.5t62.5 44.5q23 0 40 -29q23 -39 23 -110q0 -41 -5.5 -80t-17.5 -104q-24 -128 -83 -298q26 1 52.5 6.5t67.5 17.5l25 7q7 2 27 6q28 5 47 11t26 15q8 11 8 41q0 16 -5 61q-3 15 -3 25
q-3 48 -17 137q-1 9 -8 40q-14 64 -14 99q0 54 27 86q26 32 47 32q35 0 47 -94q2 -17 8 -53zM183 942q-6 6 -6 14q0 20 37 39t69 19q18 0 26 -7l2 -2l4 -4l44 -48q6 -6 24 -22.5t24 -31.5q2 -6 2 -10q0 -23 -40 -47q-27 -16 -61 -16q-16 0 -27 4q0 1 -0.5 1h-0.5
q-15 5 -18 20q-4 8 -16.5 21.5t-17.5 19.5z" />
    <glyph glyph-name="Uacute" unicode="&#xda;" horiz-adv-x="485" 
d="M118 143l-3 -7zM464 610q11 -76 16 -121.5t5 -92.5q0 -61 -12 -121q-22 -94 -79 -141q-23 -19 -51 -29t-72 -20q-19 -4 -31 -7q-13 -3 -23 -6.5t-18 -5.5q-51 -14 -78.5 -20t-54.5 -6q-30 0 -42.5 11t-12.5 31q0 19 10 49q5 16 23 71q32 97 50.5 166.5t25.5 140.5
q-21 -20 -38 -20q-14 0 -24 13.5t-15 35.5q-3 15 -3 30q0 41 22 98q15 39 47.5 83.5t62.5 44.5q23 0 40 -29q23 -39 23 -110q0 -41 -5.5 -80t-17.5 -104q-24 -128 -83 -298q26 1 52.5 6.5t67.5 17.5l25 7q7 2 27 6q28 5 47 11t26 15q8 11 8 41q0 16 -5 61q-3 15 -3 25
q-3 48 -17 137q-1 9 -8 40q-14 64 -14 99q0 54 27 86q26 32 47 32q35 0 47 -94q2 -17 8 -53zM239 855q0 12 11 23l20.5 20.5t28.5 31.5t20 29q11 22 35 34t52 14q14 2 30 -7t16 -22q0 -7 -4 -14q-53 -82 -114 -113q-32 -16 -60 -16q-12 0 -21 3q-14 4 -14 17z" />
    <glyph glyph-name="Ucircumflex" unicode="&#xdb;" horiz-adv-x="505" 
d="M118 143l-3 -7zM464 610q11 -76 16 -121.5t5 -92.5q0 -61 -12 -121q-22 -94 -79 -141q-23 -19 -51 -29t-72 -20q-19 -4 -31 -7q-13 -3 -23 -6.5t-18 -5.5q-51 -14 -78.5 -20t-54.5 -6q-30 0 -42.5 11t-12.5 31q0 19 10 49q5 16 23 71q32 97 50.5 166.5t25.5 140.5
q-21 -20 -38 -20q-14 0 -24 13.5t-15 35.5q-3 15 -3 30q0 41 22 98q15 39 47.5 83.5t62.5 44.5q23 0 40 -29q23 -39 23 -110q0 -41 -5.5 -80t-17.5 -104q-24 -128 -83 -298q26 1 52.5 6.5t67.5 17.5l25 7q7 2 27 6q28 5 47 11t26 15q8 11 8 41q0 16 -5 61q-3 15 -3 25
q-3 48 -17 137q-1 9 -8 40q-14 64 -14 99q0 54 27 86q26 32 47 32q35 0 47 -94q2 -17 8 -53zM381 952.5q23 -15.5 46 -27t30 -14.5q17 -8 17 -23q0 -9 -6.5 -19.5t-15.5 -17.5q-13 -11 -31.5 -17.5t-36.5 -6.5q-16 0 -27 4q-39 14 -71 33q-5 3 -18 16q-29 -26 -57 -44
q-41 -26 -74 -26q-13 0 -21 4q-15 7 -15 19q0 8 6.5 17t16.5 15q65 46 92 93q10 17 39 34t54 17q22 0 32 -15q17 -26 40 -41.5z" />
    <glyph glyph-name="Udieresis" unicode="&#xdc;" horiz-adv-x="505" 
d="M118 143l-3 -7zM464 610q11 -76 16 -121.5t5 -92.5q0 -61 -12 -121q-22 -94 -79 -141q-23 -19 -51 -29t-72 -20q-19 -4 -31 -7q-13 -3 -23 -6.5t-18 -5.5q-51 -14 -78.5 -20t-54.5 -6q-30 0 -42.5 11t-12.5 31q0 19 10 49q5 16 23 71q32 97 50.5 166.5t25.5 140.5
q-21 -20 -38 -20q-14 0 -24 13.5t-15 35.5q-3 15 -3 30q0 41 22 98q15 39 47.5 83.5t62.5 44.5q23 0 40 -29q23 -39 23 -110q0 -41 -5.5 -80t-17.5 -104q-24 -128 -83 -298q26 1 52.5 6.5t67.5 17.5l25 7q7 2 27 6q28 5 47 11t26 15q8 11 8 41q0 16 -5 61q-3 15 -3 25
q-3 48 -17 137q-1 9 -8 40q-14 64 -14 99q0 54 27 86q26 32 47 32q35 0 47 -94q2 -17 8 -53zM139 878q-1 2 -1 6q0 8 13 24q14 15 46 27q30 12 52 9q23 -2 29 -15l15 -31q3 8 11 16q13 13 45 27q26 11 52 9q26 -3 28 -15l10 -35l1 -6q0 -10 -12 -26q-15 -16 -46 -28
q-28 -11 -53 -8q-9 1 -18.5 5.5t-10.5 11.5l-8 32q-1 -4 -4.5 -8.5t-5.5 -7.5q-16 -17 -45 -28q-25 -9 -45 -9q-28 0 -38 19z" />
    <glyph glyph-name="Yacute" unicode="&#xdd;" 
d="M571 288q0 -58 -31 -109q-30 -49 -80.5 -84t-111.5 -53q-47 -14 -101 -14q-58 0 -110.5 16t-85.5 49.5t-33 82.5q0 28 12 62q9 28 27 55.5t40 27.5q21 0 21 -17q0 -7 -4 -17.5t-5 -13.5t-4 -10t-3 -12q-2 -30 22 -53.5t59 -38t64 -19.5q30 -6 64 -6q43 0 82 11t67 34
q26 22 26 57q0 20 -6.5 41t-18.5 53q-12 26 -18 50q-32 -47 -66 -78t-74 -31q-33 0 -58.5 25t-41.5 60q-24 55 -24 126q0 79 28 175q-25 0 -37.5 11.5t-12.5 31.5q0 19 10 40q12 27 43.5 46.5t62.5 19.5q34 0 52 -24q9 -12 9 -32q0 -17 -5 -35t-15 -49q-10 -28 -13 -42
q-7 -42 -7 -76q0 -65 25 -103q14 -21 29 -21q18 0 35.5 24.5t27.5 54.5q5 15 5 36q0 11 -2 35q-2 22 -2 34q0 41 22 68q23 27 40 27q20 0 30 -26.5t17 -66.5q3 -16 3 -31q0 -13 -2 -37q-3 -19 -3 -40q0 -26 17 -66l7 -19q28 -77 28 -129zM327 847q0 12 11 23l20.5 20.5
t28.5 31.5t20 29q11 22 35 34t52 14q14 2 30 -7t16 -22q0 -7 -4 -14q-53 -82 -114 -113q-32 -16 -60 -16q-12 0 -21 3q-14 4 -14 17z" />
    <glyph glyph-name="Thorn" unicode="&#xde;" 
d="M360 595q66 0 120 -26t86.5 -79t31.5 -132q-1 -71 -37 -137.5t-96 -114.5t-128 -69q-38 -11 -74 -11q-27 0 -54 6q-2 -48 -4 -72q-1 -20 -23 -38t-52.5 -28.5t-57.5 -10.5q-23 0 -36.5 9t-12.5 28q12 167 12 332q0 244 -27 485q-2 22 20 41t55.5 31t60.5 12q35 0 38 -20
q14 -113 22 -243q76 37 156 37zM413 317q0 18 -3 34q-7 43 -32 79t-63 51q-17 6 -28 6q-20 0 -31.5 -15t-24.5 -47q-4 -9 -19 -21l3 -138q20 -2 31.5 -11.5t11.5 -27.5q1 -33 16 -50.5t37 -17.5q16 0 32.5 9t28.5 26q41 57 41 123z" />
    <glyph glyph-name="germandbls" unicode="&#xdf;" horiz-adv-x="586" 
d="M464 467q55 -25 88.5 -66t33.5 -96q0 -22 -6 -46q-15 -62 -64.5 -103.5t-116 -61t-134.5 -19.5q-26 0 -52 3q-8 0 -16 3q1 -2 1 -7q2 -22 -21.5 -41.5t-58.5 -31.5t-62 -12q-36 0 -37 19q-1 15 -5 54q-1 13 -7.5 91.5t-6.5 153.5q0 202 67.5 332.5t244.5 145.5q7 1 21 1
q52 0 98 -20.5t73.5 -58.5t27.5 -90q0 -8 -2 -26q-10 -69 -66 -124zM333.5 207q25.5 5 46 19.5t20.5 41.5q0 13 -6 29q-14 39 -51 56.5t-85 19.5q-31 1 -45.5 12t-14.5 28q0 27 28.5 55t62.5 32q30 4 46.5 24t18.5 52q3 25 -9 47q-79 18 -106 25q-27 -13 -38.5 -61
t-17.5 -106q-4 -45 -4 -102q0 -89 13 -230q16 18 38 32.5t38 16.5q40 4 65.5 9z" />
    <glyph glyph-name="agrave" unicode="&#xe0;" horiz-adv-x="473" 
d="M227 339l-8 -20l70 -59l-7 29q-7 28 -28 119zM376.5 454.5q21.5 -89.5 52.5 -205.5q29 -110 38 -146q1 -3 1 -9q0 -24 -27 -41.5t-56 -17.5q-24 0 -37 13q-29 31 -61 59t-84 69l-33 27q-42 -90 -65 -133q-7 -15 -36.5 -27.5t-54.5 -12.5q-28 0 -28 18q0 5 3 12
q30 74 71 170l21 51l-25 25q-7 7 -7 16q0 17 22 32.5t49 20.5q48 115 90 234q4 14 25.5 24.5t45.5 13.5q17 5 29 5q28 0 31 -21q14 -87 35.5 -176.5zM156 859q-6 6 -6 14q0 20 37 39t69 19q18 0 26 -7l2 -2l4 -4l44 -48q6 -6 24 -22.5t24 -31.5q2 -6 2 -10q0 -23 -40 -47
q-27 -16 -61 -16q-16 0 -27 4q0 1 -0.5 1h-0.5q-15 5 -18 20q-4 8 -16.5 21.5t-17.5 19.5z" />
    <glyph glyph-name="aacute" unicode="&#xe1;" horiz-adv-x="473" 
d="M227 339l-8 -20l70 -59l-7 29q-7 28 -28 119zM376.5 454.5q21.5 -89.5 52.5 -205.5q29 -110 38 -146q1 -3 1 -9q0 -24 -27 -41.5t-56 -17.5q-24 0 -37 13q-29 31 -61 59t-84 69l-33 27q-42 -90 -65 -133q-7 -15 -36.5 -27.5t-54.5 -12.5q-28 0 -28 18q0 5 3 12
q30 74 71 170l21 51l-25 25q-7 7 -7 16q0 17 22 32.5t49 20.5q48 115 90 234q4 14 25.5 24.5t45.5 13.5q17 5 29 5q28 0 31 -21q14 -87 35.5 -176.5zM181 712q0 12 11 23l20.5 20.5t28.5 31.5t20 29q11 22 35 34t52 14q14 2 30 -7t16 -22q0 -7 -4 -14q-53 -82 -114 -113
q-32 -16 -60 -16q-12 0 -21 3q-14 4 -14 17z" />
    <glyph glyph-name="acircumflex" unicode="&#xe2;" horiz-adv-x="485" 
d="M227 339l-8 -20l70 -59l-7 29q-7 28 -28 119zM376.5 454.5q21.5 -89.5 52.5 -205.5q29 -110 38 -146q1 -3 1 -9q0 -24 -27 -41.5t-56 -17.5q-24 0 -37 13q-29 31 -61 59t-84 69l-33 27q-42 -90 -65 -133q-7 -15 -36.5 -27.5t-54.5 -12.5q-28 0 -28 18q0 5 3 12
q30 74 71 170l21 51l-25 25q-7 7 -7 16q0 17 22 32.5t49 20.5q48 115 90 234q4 14 25.5 24.5t45.5 13.5q17 5 29 5q28 0 31 -21q14 -87 35.5 -176.5zM390 829.5q23 -15.5 46 -27t30 -14.5q17 -8 17 -23q0 -9 -6.5 -19.5t-15.5 -17.5q-13 -11 -31.5 -17.5t-36.5 -6.5
q-16 0 -27 4q-39 14 -71 33q-5 3 -18 16q-29 -26 -57 -44q-41 -26 -74 -26q-13 0 -21 4q-15 7 -15 19q0 8 6.5 17t16.5 15q65 46 92 93q10 17 39 34t54 17q22 0 32 -15q17 -26 40 -41.5z" />
    <glyph glyph-name="atilde" unicode="&#xe3;" horiz-adv-x="473" 
d="M227 339l-8 -20l70 -59l-7 29q-7 28 -28 119zM376.5 454.5q21.5 -89.5 52.5 -205.5q29 -110 38 -146q1 -3 1 -9q0 -24 -27 -41.5t-56 -17.5q-24 0 -37 13q-29 31 -61 59t-84 69l-33 27q-42 -90 -65 -133q-7 -15 -36.5 -27.5t-54.5 -12.5q-28 0 -28 18q0 5 3 12
q30 74 71 170l21 51l-25 25q-7 7 -7 16q0 17 22 32.5t49 20.5q48 115 90 234q4 14 25.5 24.5t45.5 13.5q17 5 29 5q28 0 31 -21q14 -87 35.5 -176.5zM361 828.5q16 12.5 33 12.5q21 0 21 -24q1 -30 -17 -51.5t-44 -31t-47 -6.5q-16 2 -33.5 8t-21.5 7q-19 7 -22 8t-9.5 2
t-15.5 4l-3 -8q-2 -14 -21 -25t-35 -11q-17 0 -14 14q8 41 30 67.5t54 28.5q6 0 43 -11q10 -3 37.5 -10t39.5 -7q8 0 8 4q1 17 17 29.5z" />
    <glyph glyph-name="adieresis" unicode="&#xe4;" horiz-adv-x="485" 
d="M227 339l-8 -20l70 -59l-7 29q-7 28 -28 119zM376.5 454.5q21.5 -89.5 52.5 -205.5q29 -110 38 -146q1 -3 1 -9q0 -24 -27 -41.5t-56 -17.5q-24 0 -37 13q-29 31 -61 59t-84 69l-33 27q-42 -90 -65 -133q-7 -15 -36.5 -27.5t-54.5 -12.5q-28 0 -28 18q0 5 3 12
q30 74 71 170l21 51l-25 25q-7 7 -7 16q0 17 22 32.5t49 20.5q48 115 90 234q4 14 25.5 24.5t45.5 13.5q17 5 29 5q28 0 31 -21q14 -87 35.5 -176.5zM142 784q-1 2 -1 6q0 8 13 24q14 15 46 27q30 12 52 9q23 -2 29 -15l15 -31q3 8 11 16q13 13 45 27q26 11 52 9
q26 -3 28 -15l10 -35l1 -6q0 -10 -12 -26q-15 -16 -46 -28q-28 -11 -53 -8q-9 1 -18.5 5.5t-10.5 11.5l-8 32q-1 -4 -4.5 -8.5t-5.5 -7.5q-16 -17 -45 -28q-25 -9 -45 -9q-28 0 -38 19z" />
    <glyph glyph-name="aring" unicode="&#xe5;" horiz-adv-x="485" 
d="M227 339l-8 -20l70 -59l-7 29q-7 28 -28 119zM376.5 454.5q21.5 -89.5 52.5 -205.5q29 -110 38 -146q1 -3 1 -9q0 -24 -27 -41.5t-56 -17.5q-24 0 -37 13q-29 31 -61 59t-84 69l-33 27q-42 -90 -65 -133q-7 -15 -36.5 -27.5t-54.5 -12.5q-28 0 -28 18q0 5 3 12
q30 74 71 170l21 51l-25 25q-7 7 -7 16q0 17 22 32.5t49 20.5q48 115 90 234q4 14 25.5 24.5t45.5 13.5q17 5 29 5q28 0 31 -21q14 -87 35.5 -176.5zM291 869q32 0 53 -22q14 -17 14 -36t-15 -37t-37 -28q-13 -7 -32 -12t-37 -5q-47 0 -55 36q-2 10 -2 15q0 26 18.5 47.5
t44.5 28.5q24 13 48 13zM267 822zM286 789q0 9 -3 15q-2 8 -10 15l-4 3q-8 -6 -16 -9l-1 -12q0 -12 5 -21t13 -9q3 0 9 2q7 6 7 16z" />
    <glyph glyph-name="ae" unicode="&#xe6;" horiz-adv-x="818" 
d="M813 343q0 -12 -18 -28.5t-41 -29t-37 -12.5q-68 -3 -205 -3q0 -81 -1 -122q45 2 134 2q73 0 109 -1q14 -1 21.5 -7t7.5 -16t-7 -20q-12 -18 -39 -30t-50 -12l-89 -1l-89 1q-1 -29 -32 -47t-67 -18q-22 0 -36.5 8t-14.5 24q5 101 5 242l-97 2q-56 -95 -130 -185
q-14 -17 -43.5 -29t-51.5 -9q-42 6 -42 25q0 7 6 14q93 124 152 236q105 202 105 243q0 6 -2 8q-12 12 -12 24q0 16 18 32.5t42.5 26.5t39.5 9q68 -6 132 -6q104 0 237 15q6 1 15 1q26 0 39 -10t13 -26q0 -21 -20.5 -42t-52.5 -27q-93 -19 -213 -22q7 -83 10 -190
q160 0 274 -5q30 -1 30 -15zM362 362q0 21 -2 57l-1 28l-13 -26q-10 -18 -24 -46q-4 -5 -7 -13h47z" />
    <glyph glyph-name="ccedilla" unicode="&#xe7;" horiz-adv-x="532" 
d="M400.5 473q26.5 14 52.5 14q34 0 30 -26l-4 -23q-15 -85 -30.5 -143.5t-47 -113.5t-82.5 -87q-66 -42 -135 -42q-41 0 -76.5 17t-59.5 53q-42 62 -42 142q0 108 77 250q26 49 54.5 78t71.5 35q4 1 11 1q16 0 28 -6q30 66 46 99q7 15 33.5 26t49.5 11q30 0 30 -19
q0 -4 -3 -12q-69 -168 -112 -261q-7 -16 -32.5 -27t-49.5 -11q-16 0 -26 5t-10 16q0 7 4 15l15 34q-5 1 -9 5l-20 -47q-28 -61 -37 -122q-3 -19 -3 -39q0 -43 13 -81t41 -61q23 -20 45 -20q88 0 147 306q4 20 30.5 34zM200 -231q-17 0 -35 3q-20 4 -33 10l-24 13l11 -6
q-18 10 -18 27q0 10 6 20.5t15 18.5q14 12 32 19t36 7q17 0 30 -6q8 -3 14 -3q11 0 17 8t6 19q0 15 -11 26.5t-30 9.5q-22 -3 -43 5t-21 25q0 11 11 25q9 11 17 29t14 34q8 19 28 32t44 19q8 2 24 2q44 0 36 -23q-7 -20 -23 -58q42 -7 67 -34q24 -25 24 -60q0 -30 -20 -65
q-21 -34 -54.5 -58t-73.5 -34q-25 -5 -46 -5z" />
    <glyph glyph-name="egrave" unicode="&#xe8;" horiz-adv-x="473" 
d="M463 123q0 -16 -19 -35q-21 -21 -54 -21q-16 0 -27 4q-53 17 -96 17q-75 0 -153 -48q-13 -9 -31.5 -14.5t-34.5 -5.5q-15 0 -24 5.5t-9 17.5q0 7 2 12q29 81 46.5 146t23.5 132q9 90 9 132q0 111 -43 170q-5 6 -5 16q0 20 28 37.5t55 17.5q18 0 26 -8q13 -5 17 -16
q25 -66 69 -111.5t104 -45.5q11 0 33 4q14 2 18 2q17 0 25.5 -7.5t8.5 -20.5q0 -14 -11.5 -28t-30.5 -20q-41 -14 -82 -14q-49 0 -94 20q-2 -56 -5 -84l-7 -63q39 7 78 12l14 1q40 0 40 -27q0 -18 -20 -32t-41 -18q-31 -6 -85 -13q-11 -49 -24 -92q66 24 134 24
q75 0 150 -28q15 -5 15 -18zM183 942q-6 6 -6 14q0 20 37 39t69 19q18 0 26 -7l2 -2l4 -4l44 -48q6 -6 24 -22.5t24 -31.5q2 -6 2 -10q0 -23 -40 -47q-27 -16 -61 -16q-16 0 -27 4q0 1 -0.5 1h-0.5q-15 5 -18 20q-4 8 -16.5 21.5t-17.5 19.5z" />
    <glyph glyph-name="eacute" unicode="&#xe9;" horiz-adv-x="468" 
d="M463 123q0 -16 -19 -35q-21 -21 -54 -21q-16 0 -27 4q-53 17 -96 17q-75 0 -153 -48q-13 -9 -31.5 -14.5t-34.5 -5.5q-15 0 -24 5.5t-9 17.5q0 7 2 12q29 81 46.5 146t23.5 132q9 90 9 132q0 111 -43 170q-5 6 -5 16q0 20 28 37.5t55 17.5q18 0 26 -8q13 -5 17 -16
q25 -66 69 -111.5t104 -45.5q11 0 33 4q14 2 18 2q17 0 25.5 -7.5t8.5 -20.5q0 -14 -11.5 -28t-30.5 -20q-41 -14 -82 -14q-49 0 -94 20q-2 -56 -5 -84l-7 -63q39 7 78 12l14 1q40 0 40 -27q0 -18 -20 -32t-41 -18q-31 -6 -85 -13q-11 -49 -24 -92q66 24 134 24
q75 0 150 -28q15 -5 15 -18zM218 742q0 12 11 23l20.5 20.5t28.5 31.5t20 29q11 22 35 34t52 14q14 2 30 -7t16 -22q0 -7 -4 -14q-53 -82 -114 -113q-32 -16 -60 -16q-12 0 -21 3q-14 4 -14 17z" />
    <glyph glyph-name="ecircumflex" unicode="&#xea;" horiz-adv-x="480" 
d="M463 123q0 -16 -19 -35q-21 -21 -54 -21q-16 0 -27 4q-53 17 -96 17q-75 0 -153 -48q-13 -9 -31.5 -14.5t-34.5 -5.5q-15 0 -24 5.5t-9 17.5q0 7 2 12q29 81 46.5 146t23.5 132q9 90 9 132q0 111 -43 170q-5 6 -5 16q0 20 28 37.5t55 17.5q18 0 26 -8q13 -5 17 -16
q25 -66 69 -111.5t104 -45.5q11 0 33 4q14 2 18 2q17 0 25.5 -7.5t8.5 -20.5q0 -14 -11.5 -28t-30.5 -20q-41 -14 -82 -14q-49 0 -94 20q-2 -56 -5 -84l-7 -63q39 7 78 12l14 1q40 0 40 -27q0 -18 -20 -32t-41 -18q-31 -6 -85 -13q-11 -49 -24 -92q66 24 134 24
q75 0 150 -28q15 -5 15 -18zM371 895.5q23 -15.5 46 -27t30 -14.5q17 -8 17 -23q0 -9 -6.5 -19.5t-15.5 -17.5q-13 -11 -31.5 -17.5t-36.5 -6.5q-16 0 -27 4q-39 14 -71 33q-5 3 -18 16q-29 -26 -57 -44q-41 -26 -74 -26q-13 0 -21 4q-15 7 -15 19q0 8 6.5 17t16.5 15
q65 46 92 93q10 17 39 34t54 17q22 0 32 -15q17 -26 40 -41.5z" />
    <glyph glyph-name="edieresis" unicode="&#xeb;" horiz-adv-x="480" 
d="M463 123q0 -16 -19 -35q-21 -21 -54 -21q-16 0 -27 4q-53 17 -96 17q-75 0 -153 -48q-13 -9 -31.5 -14.5t-34.5 -5.5q-15 0 -24 5.5t-9 17.5q0 7 2 12q29 81 46.5 146t23.5 132q9 90 9 132q0 111 -43 170q-5 6 -5 16q0 20 28 37.5t55 17.5q18 0 26 -8q13 -5 17 -16
q25 -66 69 -111.5t104 -45.5q11 0 33 4q14 2 18 2q17 0 25.5 -7.5t8.5 -20.5q0 -14 -11.5 -28t-30.5 -20q-41 -14 -82 -14q-49 0 -94 20q-2 -56 -5 -84l-7 -63q39 7 78 12l14 1q40 0 40 -27q0 -18 -20 -32t-41 -18q-31 -6 -85 -13q-11 -49 -24 -92q66 24 134 24
q75 0 150 -28q15 -5 15 -18zM109 782q-1 2 -1 6q0 8 13 24q14 15 46 27q30 12 52 9q23 -2 29 -15l15 -31q3 8 11 16q13 13 45 27q26 11 52 9q26 -3 28 -15l10 -35l1 -6q0 -10 -12 -26q-15 -16 -46 -28q-28 -11 -53 -8q-9 1 -18.5 5.5t-10.5 11.5l-8 32q-1 -4 -4.5 -8.5
t-5.5 -7.5q-16 -17 -45 -28q-25 -9 -45 -9q-28 0 -38 19z" />
    <glyph glyph-name="igrave" unicode="&#xec;" horiz-adv-x="201" 
d="M95 608.5q28 15.5 56 15.5q16 0 26 -6.5t9 -20.5l-29 -543q-1 -21 -29 -36.5t-56 -15.5q-37 0 -36 29l30 542q1 20 29 35.5zM71.5 684q9.5 -7 25.5 -7q27 0 55 15t31 36q8 50 11 75q4 25 -31 25q-27 0 -56 -15t-31 -34l-12 -74q-2 -14 7.5 -21z" />
    <glyph glyph-name="iacute" unicode="&#xed;" horiz-adv-x="201" 
d="M95 608.5q28 15.5 56 15.5q16 0 26 -6.5t9 -20.5l-29 -543q-1 -21 -29 -36.5t-56 -15.5q-37 0 -36 29l30 542q1 20 29 35.5zM71.5 684q9.5 -7 25.5 -7q27 0 55 15t31 36q8 50 11 75q4 25 -31 25q-27 0 -56 -15t-31 -34l-12 -74q-2 -14 7.5 -21z" />
    <glyph glyph-name="icircumflex" unicode="&#xee;" horiz-adv-x="201" 
d="M95 608.5q28 15.5 56 15.5q16 0 26 -6.5t9 -20.5l-29 -543q-1 -21 -29 -36.5t-56 -15.5q-37 0 -36 29l30 542q1 20 29 35.5zM71.5 684q9.5 -7 25.5 -7q27 0 55 15t31 36q8 50 11 75q4 25 -31 25q-27 0 -56 -15t-31 -34l-12 -74q-2 -14 7.5 -21z" />
    <glyph glyph-name="idieresis" unicode="&#xef;" horiz-adv-x="201" 
d="M95 608.5q28 15.5 56 15.5q16 0 26 -6.5t9 -20.5l-29 -543q-1 -21 -29 -36.5t-56 -15.5q-37 0 -36 29l30 542q1 20 29 35.5zM71.5 684q9.5 -7 25.5 -7q27 0 55 15t31 36q8 50 11 75q4 25 -31 25q-27 0 -56 -15t-31 -34l-12 -74q-2 -14 7.5 -21z" />
    <glyph glyph-name="eth" unicode="&#xf0;" horiz-adv-x="494" 
d="M231 431q15 0 41 -4q-19 34 -40 60q-6 -2 -12.5 -4.5t-15.5 -5.5q-37 -11 -57 -11q-29 0 -34 17q-6 21 15 36t50 28l1 1q-22 22 -55 48q-8 6 -8 14q0 14 21 30.5t51 28t54 11.5q18 0 29 -8q32 -24 69 -61q3 1 14 5q30 11 56 11q30 0 35 -18q1 -3 1 -9q0 -26 -54 -51
q48 -63 75 -134t27 -143q0 -29 -4 -53q-9 -61 -47.5 -110.5t-95 -77.5t-117.5 -28q-47 0 -92 18q-65 26 -101.5 80t-36.5 116q0 43 18.5 82.5t55.5 70.5q73 61 157 61zM274 121q30 0 39 23.5t12 69.5v4q-28 2 -39 20q-45 84 -86 84q-13 0 -25 -9q-15 -12 -15 -40
q0 -17 4.5 -35.5t10.5 -31.5q11 -25 32 -50t43 -31q12 -4 24 -4z" />
    <glyph glyph-name="ntilde" unicode="&#xf1;" horiz-adv-x="443" 
d="M377 263q0 -78 6 -158q2 -6 2 -10q0 -3 -2 -9q0 -1 -0.5 -1h-0.5v-2q-6 -17 -28 -29.5t-47 -14.5q-40 -4 -48 21q-35 94 -111 260l-12 28q-8 -125 -10 -267q0 -21 -28 -37.5t-57 -16.5q-18 0 -29 7t-10 23q6 272 39 515l1 4q-2 22 27 40t58 18q30 0 37 -20
q32 -87 95 -224q6 94 21 191q3 20 32 35.5t57 15.5q36 0 32 -26q-24 -182 -24 -343zM360.5 881q23.5 18 46.5 18q14 0 22.5 -8t8.5 -25q1 -41 -22 -70t-56.5 -44t-64.5 -15q-9 0 -13 1q-30 3 -78 22q-25 9 -32 11l-36 9l-4 -12q-4 -20 -30 -36t-49 -16q-25 0 -21 20
q11 59 43 97t78 41q13 0 66 -16q10 -3 49 -13t56 -10q12 0 12 5q1 23 24.5 41z" />
    <glyph glyph-name="ograve" unicode="&#xf2;" 
d="M348 360q0 45 -15.5 82.5t-48.5 61.5q-22 16 -42 16q-8 0 -20 -4q9 -4 9 -14q0 -6 -4 -14q-23 -44 -36 -95.5t-13 -103.5q0 -60 18 -114q12 -30 25 -47q6 -7 12 -10q29 20 52.5 56t39.5 75q23 54 23 111zM395 557q35 -33 53 -79.5t18 -96.5q0 -59 -23 -121t-63 -114
t-89 -82q-46 -28 -90 -28t-77 27t-48 78q-17 52 -17 117q0 39 6 76q-7 -2 -21 -2q-34 0 -34 23q0 8 2 13q34 95 102.5 165.5t157.5 70.5q13 0 39 -4q49 -10 84 -43zM183 942q-6 6 -6 14q0 20 37 39t69 19q18 0 26 -7l2 -2l4 -4l44 -48q6 -6 24 -22.5t24 -31.5q2 -6 2 -10
q0 -23 -40 -47q-27 -16 -61 -16q-16 0 -27 4q0 1 -0.5 1h-0.5q-15 5 -18 20q-4 8 -16.5 21.5t-17.5 19.5z" />
    <glyph glyph-name="oacute" unicode="&#xf3;" horiz-adv-x="476" 
d="M348 360q0 45 -15.5 82.5t-48.5 61.5q-22 16 -42 16q-8 0 -20 -4q9 -4 9 -14q0 -6 -4 -14q-23 -44 -36 -95.5t-13 -103.5q0 -60 18 -114q12 -30 25 -47q6 -7 12 -10q29 20 52.5 56t39.5 75q23 54 23 111zM395 557q35 -33 53 -79.5t18 -96.5q0 -59 -23 -121t-63 -114
t-89 -82q-46 -28 -90 -28t-77 27t-48 78q-17 52 -17 117q0 39 6 76q-7 -2 -21 -2q-34 0 -34 23q0 8 2 13q34 95 102.5 165.5t157.5 70.5q13 0 39 -4q49 -10 84 -43zM181 778q0 12 11 23l20.5 20.5t28.5 31.5t20 29q11 22 35 34t52 14q14 2 30 -7t16 -22q0 -7 -4 -14
q-53 -82 -114 -113q-32 -16 -60 -16q-12 0 -21 3q-14 4 -14 17z" />
    <glyph glyph-name="ocircumflex" unicode="&#xf4;" horiz-adv-x="477" 
d="M348 360q0 45 -15.5 82.5t-48.5 61.5q-22 16 -42 16q-8 0 -20 -4q9 -4 9 -14q0 -6 -4 -14q-23 -44 -36 -95.5t-13 -103.5q0 -60 18 -114q12 -30 25 -47q6 -7 12 -10q29 20 52.5 56t39.5 75q23 54 23 111zM395 557q35 -33 53 -79.5t18 -96.5q0 -59 -23 -121t-63 -114
t-89 -82q-46 -28 -90 -28t-77 27t-48 78q-17 52 -17 117q0 39 6 76q-7 -2 -21 -2q-34 0 -34 23q0 8 2 13q34 95 102.5 165.5t157.5 70.5q13 0 39 -4q49 -10 84 -43zM398 736.5q23 -15.5 46 -27t30 -14.5q17 -8 17 -23q0 -9 -6.5 -19.5t-15.5 -17.5q-13 -11 -31.5 -17.5
t-36.5 -6.5q-16 0 -27 4q-39 14 -71 33q-5 3 -18 16q-29 -26 -57 -44q-41 -26 -74 -26q-13 0 -21 4q-15 7 -15 19q0 8 6.5 17t16.5 15q65 46 92 93q10 17 39 34t54 17q22 0 32 -15q17 -26 40 -41.5z" />
    <glyph glyph-name="otilde" unicode="&#xf5;" horiz-adv-x="490" 
d="M348 360q0 45 -15.5 82.5t-48.5 61.5q-22 16 -42 16q-8 0 -20 -4q9 -4 9 -14q0 -6 -4 -14q-23 -44 -36 -95.5t-13 -103.5q0 -60 18 -114q12 -30 25 -47q6 -7 12 -10q29 20 52.5 56t39.5 75q23 54 23 111zM395 557q35 -33 53 -79.5t18 -96.5q0 -59 -23 -121t-63 -114
t-89 -82q-46 -28 -90 -28t-77 27t-48 78q-17 52 -17 117q0 39 6 76q-7 -2 -21 -2q-34 0 -34 23q0 8 2 13q34 95 102.5 165.5t157.5 70.5q13 0 39 -4q49 -10 84 -43zM384.5 843q23.5 18 46.5 18q14 0 22.5 -8t8.5 -25q1 -41 -22 -70t-56.5 -44t-64.5 -15q-9 0 -13 1
q-30 3 -78 22q-25 9 -32 11l-36 9l-4 -12q-4 -20 -30 -36t-49 -16q-25 0 -21 20q11 59 43 97t78 41q13 0 66 -16q10 -3 49 -13t56 -10q12 0 12 5q1 23 24.5 41z" />
    <glyph glyph-name="odieresis" unicode="&#xf6;" horiz-adv-x="477" 
d="M348 360q0 45 -15.5 82.5t-48.5 61.5q-22 16 -42 16q-8 0 -20 -4q9 -4 9 -14q0 -6 -4 -14q-23 -44 -36 -95.5t-13 -103.5q0 -60 18 -114q12 -30 25 -47q6 -7 12 -10q29 20 52.5 56t39.5 75q23 54 23 111zM395 557q35 -33 53 -79.5t18 -96.5q0 -59 -23 -121t-63 -114
t-89 -82q-46 -28 -90 -28t-77 27t-48 78q-17 52 -17 117q0 39 6 76q-7 -2 -21 -2q-34 0 -34 23q0 8 2 13q34 95 102.5 165.5t157.5 70.5q13 0 39 -4q49 -10 84 -43zM142 766q-1 2 -1 6q0 8 13 24q14 15 46 27q30 12 52 9q23 -2 29 -15l15 -31q3 8 11 16q13 13 45 27
q26 11 52 9q26 -3 28 -15l10 -35l1 -6q0 -10 -12 -26q-15 -16 -46 -28q-28 -11 -53 -8q-9 1 -18.5 5.5t-10.5 11.5l-8 32q-1 -4 -4.5 -8.5t-5.5 -7.5q-16 -17 -45 -28q-25 -9 -45 -9q-28 0 -38 19z" />
    <glyph glyph-name="divide" unicode="&#xf7;" 
d="M546 328q0 -11 -14.5 -24.5t-34 -24t-35.5 -10.5q-193 -6 -367 -32q-4 -1 -11 -1q-13 0 -20.5 6t-7.5 17q0 6 1 10q5 18 31 29t52 14q187 29 367 32q39 1 39 -16zM224 435q-14 5 -14 17q0 15 22 33q13 10 32 17t37 7q12 0 21 -3q35 -12 65 -33q8 -5 8 -12
q0 -10 -13.5 -22.5t-24.5 -18.5q-30 -16 -56 -16q-18 0 -30 8l-13 8l-3 2l-4 2q-18 8 -27 11zM306 183q21 0 34 -8l-2 1l9 -5q6 -1 11 -4l10 -3q2 -1 5 -1l1 -1q11 -2 17.5 -5t10.5 -10q1 -2 1 -5q0 -10 -12 -24q-13 -16 -42 -26q-31 -10 -49 -8q-42 6 -77 29q-6 4 -6 12
t3 15q4 9 11.5 14.5t21.5 13.5q25 15 53 15z" />
    <glyph glyph-name="oslash" unicode="&#xf8;" horiz-adv-x="477" 
d="M348 360q0 45 -15.5 82.5t-48.5 61.5q-22 16 -42 16q-8 0 -20 -4q9 -4 9 -14q0 -6 -4 -14q-23 -44 -36 -95.5t-13 -103.5q0 -60 18 -114q12 -30 25 -47q6 -7 12 -10q29 20 52.5 56t39.5 75q23 54 23 111zM395 557q35 -33 53 -79.5t18 -96.5q0 -59 -23 -121t-63 -114
t-89 -82q-46 -28 -90 -28t-77 27t-48 78q-17 52 -17 117q0 39 6 76q-7 -2 -21 -2q-34 0 -34 23q0 8 2 13q34 95 102.5 165.5t157.5 70.5q13 0 39 -4q49 -10 84 -43zM505.5 642q28.5 8 53.5 8q32 0 32 -13q0 -4 -6 -12q-79 -97 -161.5 -206.5t-96.5 -128.5
q-119 -161 -198 -261q-10 -12 -38 -20.5t-54 -8.5q-37 0 -37 18q0 7 6 16q92 137 195.5 266t266.5 323q9 11 37.5 19z" />
    <glyph glyph-name="ugrave" unicode="&#xf9;" 
d="M351.5 608.5q27.5 15.5 55.5 15.5q16 0 26 -6.5t9 -20.5q-2 -38 -2 -61q-5 -130 -17.5 -221t-55.5 -171t-128 -105q-29 -8 -55 -8q-64 0 -112.5 38t-55.5 103q-2 26 -2 39q0 69 21 141t61 174q12 27 27 69q6 17 30.5 28.5t48.5 11.5q16 0 26 -6.5t10 -18.5q0 -4 -2 -12
q-20 -58 -31 -87q-29 -81 -45 -135.5t-22 -111.5q-2 -24 -2 -38q0 -59 29 -85q9 -9 24 -16.5t28 -8.5l8 -2q1 0 4 3q25 16 40.5 54.5t20.5 68.5t14 95q7 53 11.5 116t7.5 122q1 20 28.5 35.5zM183 942q-6 6 -6 14q0 20 37 39t69 19q18 0 26 -7l2 -2l4 -4l44 -48
q6 -6 24 -22.5t24 -31.5q2 -6 2 -10q0 -23 -40 -47q-27 -16 -61 -16q-16 0 -27 4q0 1 -0.5 1h-0.5q-15 5 -18 20q-4 8 -16.5 21.5t-17.5 19.5z" />
    <glyph glyph-name="uacute" unicode="&#xfa;" horiz-adv-x="447" 
d="M351.5 608.5q27.5 15.5 55.5 15.5q16 0 26 -6.5t9 -20.5q-2 -38 -2 -61q-5 -130 -17.5 -221t-55.5 -171t-128 -105q-29 -8 -55 -8q-64 0 -112.5 38t-55.5 103q-2 26 -2 39q0 69 21 141t61 174q12 27 27 69q6 17 30.5 28.5t48.5 11.5q16 0 26 -6.5t10 -18.5q0 -4 -2 -12
q-20 -58 -31 -87q-29 -81 -45 -135.5t-22 -111.5q-2 -24 -2 -38q0 -59 29 -85q9 -9 24 -16.5t28 -8.5l8 -2q1 0 4 3q25 16 40.5 54.5t20.5 68.5t14 95q7 53 11.5 116t7.5 122q1 20 28.5 35.5zM181 778q0 12 11 23l20.5 20.5t28.5 31.5t20 29q11 22 35 34t52 14q14 2 30 -7
t16 -22q0 -7 -4 -14q-53 -82 -114 -113q-32 -16 -60 -16q-12 0 -21 3q-14 4 -14 17z" />
    <glyph glyph-name="ucircumflex" unicode="&#xfb;" horiz-adv-x="452" 
d="M351.5 608.5q27.5 15.5 55.5 15.5q16 0 26 -6.5t9 -20.5q-2 -38 -2 -61q-5 -130 -17.5 -221t-55.5 -171t-128 -105q-29 -8 -55 -8q-64 0 -112.5 38t-55.5 103q-2 26 -2 39q0 69 21 141t61 174q12 27 27 69q6 17 30.5 28.5t48.5 11.5q16 0 26 -6.5t10 -18.5q0 -4 -2 -12
q-20 -58 -31 -87q-29 -81 -45 -135.5t-22 -111.5q-2 -24 -2 -38q0 -59 29 -85q9 -9 24 -16.5t28 -8.5l8 -2q1 0 4 3q25 16 40.5 54.5t20.5 68.5t14 95q7 53 11.5 116t7.5 122q1 20 28.5 35.5zM398 736.5q23 -15.5 46 -27t30 -14.5q17 -8 17 -23q0 -9 -6.5 -19.5t-15.5 -17.5
q-13 -11 -31.5 -17.5t-36.5 -6.5q-16 0 -27 4q-39 14 -71 33q-5 3 -18 16q-29 -26 -57 -44q-41 -26 -74 -26q-13 0 -21 4q-15 7 -15 19q0 8 6.5 17t16.5 15q65 46 92 93q10 17 39 34t54 17q22 0 32 -15q17 -26 40 -41.5z" />
    <glyph glyph-name="udieresis" unicode="&#xfc;" horiz-adv-x="462" 
d="M351.5 608.5q27.5 15.5 55.5 15.5q16 0 26 -6.5t9 -20.5q-2 -38 -2 -61q-5 -130 -17.5 -221t-55.5 -171t-128 -105q-29 -8 -55 -8q-64 0 -112.5 38t-55.5 103q-2 26 -2 39q0 69 21 141t61 174q12 27 27 69q6 17 30.5 28.5t48.5 11.5q16 0 26 -6.5t10 -18.5q0 -4 -2 -12
q-20 -58 -31 -87q-29 -81 -45 -135.5t-22 -111.5q-2 -24 -2 -38q0 -59 29 -85q9 -9 24 -16.5t28 -8.5l8 -2q1 0 4 3q25 16 40.5 54.5t20.5 68.5t14 95q7 53 11.5 116t7.5 122q1 20 28.5 35.5zM142 748q-1 2 -1 6q0 8 13 24q14 15 46 27q30 12 52 9q23 -2 29 -15l15 -31
q3 8 11 16q13 13 45 27q26 11 52 9q26 -3 28 -15l10 -35l1 -6q0 -10 -12 -26q-15 -16 -46 -28q-28 -11 -53 -8q-9 1 -18.5 5.5t-10.5 11.5l-8 32q-1 -4 -4.5 -8.5t-5.5 -7.5q-16 -17 -45 -28q-25 -9 -45 -9q-28 0 -38 19z" />
    <glyph glyph-name="yacute" unicode="&#xfd;" 
d="M268.5 645.5q28.5 16.5 56.5 16.5q31 0 34 -21q22 -160 34 -275t12 -228q0 -152 -24 -269q-19 -93 -55 -167t-99 -115q-52 -33 -105 -33q-49 0 -96 25.5t-88 69.5q-8 10 -8 17q0 20 28.5 37.5t57.5 17.5q20 0 31 -11q5 -5 24 -25t39.5 -34t37.5 -14q9 0 13 2
q19 7 33.5 33t23.5 48t11 27q24 60 35 126.5t15 148.5q2 64 2 97q-26 -47 -61 -73.5t-85 -26.5q-71 0 -92.5 63.5t-22.5 155.5l-1 40q0 156 32 293q4 19 34 34t57 15q14 0 22 -6t6 -17q-23 -116 -29 -251q-2 -42 -2 -65q0 -38 5 -85q6 -42 14 -60l8 -16q7 13 19 39
q25 64 40 154l9 49q19 89 19 141q0 26 -2 39l-9 66q-2 21 26.5 37.5zM181 778q0 12 11 23l20.5 20.5t28.5 31.5t20 29q11 22 35 34t52 14q14 2 30 -7t16 -22q0 -7 -4 -14q-53 -82 -114 -113q-32 -16 -60 -16q-12 0 -21 3q-14 4 -14 17z" />
    <glyph glyph-name="thorn" unicode="&#xfe;" 
d="M367 518q50 0 92 -20.5t67 -61.5t25 -101q-1 -55 -29 -106.5t-74 -88.5t-99 -53q-32 -8 -59 -8q-22 0 -39 4q-2 -20 -2 -28l-2 -28q-1 -23 -35 -41t-67 -18q-18 0 -29 7t-10 21q10 124 10 261q0 193 -20 370q-2 17 15 32t43 24t47 9q12 0 20 -4t9 -11q12 -107 17 -189
q57 30 120 30zM407 302q0 18 -2 27q-6 33 -25 61t-48 40q-11 4 -21 4q-16 0 -24 -10t-21 -37q-3 -10 -13 -18q0 -34 1 -51l1 -55q32 -3 32 -29q1 -26 12.5 -39.5t29.5 -13.5q26 0 47 26q31 43 31 95z" />
    <glyph glyph-name="ydieresis" unicode="&#xff;" horiz-adv-x="436" 
d="M268.5 645.5q28.5 16.5 56.5 16.5q31 0 34 -21q22 -160 34 -275t12 -228q0 -152 -24 -269q-19 -93 -55 -167t-99 -115q-52 -33 -105 -33q-49 0 -96 25.5t-88 69.5q-8 10 -8 17q0 20 28.5 37.5t57.5 17.5q20 0 31 -11q5 -5 24 -25t39.5 -34t37.5 -14q9 0 13 2
q19 7 33.5 33t23.5 48t11 27q24 60 35 126.5t15 148.5q2 64 2 97q-26 -47 -61 -73.5t-85 -26.5q-71 0 -92.5 63.5t-22.5 155.5l-1 40q0 156 32 293q4 19 34 34t57 15q14 0 22 -6t6 -17q-23 -116 -29 -251q-2 -42 -2 -65q0 -38 5 -85q6 -42 14 -60l8 -16q7 13 19 39
q25 64 40 154l9 49q19 89 19 141q0 26 -2 39l-9 66q-2 21 26.5 37.5z" />
    <glyph glyph-name="Amacron" unicode="&#x100;" horiz-adv-x="679" 
d="M415 355q-30 108 -46 184q-39 -78 -103 -190q-5 -11 -17 -31q40 62 91 62q20 0 39 -8q16 -6 36 -17zM636 255l11 -22q14 -24 21 -40.5t7 -33.5q0 -26 -22 -53.5t-48 -40.5q-16 -9 -34 -9q-30 0 -59.5 18.5t-70.5 53.5q-29 24 -44 34q-10 7 -42 22q-56 28 -86.5 50
t-30.5 52q0 8 7 24q-19 -34 -53 -104q-42 -85 -48 -95q-12 -22 -39 -48.5t-50 -26.5q-12 0 -21 9q-7 7 -7 22q0 42 64 149q4 8 13 23l22 42q68 128 99 193q18 38 52 114l36 81q22 47 44 78.5t55 48.5q17 9 32 9q20 0 29 -18.5t16 -54.5q18 -103 50 -218q41 -139 97 -259z
M230 846.5q-7 5.5 -7 14.5q0 10 11 23q15 18 41 26.5t52 8.5q76 -2 118 -2t82 3q25 11 47 11q14 0 24 -5.5t13 -15.5l2 -8q1 -3 1 -9q0 -17 -15 -32t-36 -23t-37 -6q-59 4 -176 6q-34 0 -100 2q-13 1 -20 6.5z" />
    <glyph glyph-name="amacron" unicode="&#x101;" horiz-adv-x="490" 
d="M227 339l-8 -20l70 -59l-7 29q-7 28 -28 119zM376.5 454.5q21.5 -89.5 52.5 -205.5q29 -110 38 -146q1 -3 1 -9q0 -24 -27 -41.5t-56 -17.5q-24 0 -37 13q-29 31 -61 59t-84 69l-33 27q-42 -90 -65 -133q-7 -15 -36.5 -27.5t-54.5 -12.5q-28 0 -28 18q0 5 3 12
q30 74 71 170l21 51l-25 25q-7 7 -7 16q0 17 22 32.5t49 20.5q48 115 90 234q4 14 25.5 24.5t45.5 13.5q17 5 29 5q28 0 31 -21q14 -87 35.5 -176.5zM101 745.5q-7 5.5 -7 14.5q0 10 11 23q15 18 41 26.5t52 8.5q76 -2 118 -2t82 3q25 11 47 11q14 0 24 -5.5t13 -15.5l2 -8
q1 -3 1 -9q0 -17 -15 -32t-36 -23t-37 -6q-59 4 -176 6q-34 0 -100 2q-13 1 -20 6.5z" />
    <glyph glyph-name="Abreve" unicode="&#x102;" horiz-adv-x="675" 
d="M415 355q-30 108 -46 184q-39 -78 -103 -190q-5 -11 -17 -31q40 62 91 62q20 0 39 -8q16 -6 36 -17zM636 255l11 -22q14 -24 21 -40.5t7 -33.5q0 -26 -22 -53.5t-48 -40.5q-16 -9 -34 -9q-30 0 -59.5 18.5t-70.5 53.5q-29 24 -44 34q-10 7 -42 22q-56 28 -86.5 50
t-30.5 52q0 8 7 24q-19 -34 -53 -104q-42 -85 -48 -95q-12 -22 -39 -48.5t-50 -26.5q-12 0 -21 9q-7 7 -7 22q0 42 64 149q4 8 13 23l22 42q68 128 99 193q18 38 52 114l36 81q22 47 44 78.5t55 48.5q17 9 32 9q20 0 29 -18.5t16 -54.5q18 -103 50 -218q41 -139 97 -259z
M493 967q32 19 65 19q20 0 32 -8t12 -25q0 -40 -27.5 -70t-68.5 -46.5t-79 -19.5q-59 -4 -101.5 25t-67.5 84q-6 14 9.5 29.5t42 26t48.5 10.5q27 0 34 -16q11 -24 23.5 -41t30.5 -27q1 0 4 -1t7 -2q4 9 3 19q1 24 33 43z" />
    <glyph glyph-name="abreve" unicode="&#x103;" horiz-adv-x="473" 
d="M227 339l-8 -20l70 -59l-7 29q-7 28 -28 119zM376.5 454.5q21.5 -89.5 52.5 -205.5q29 -110 38 -146q1 -3 1 -9q0 -24 -27 -41.5t-56 -17.5q-24 0 -37 13q-29 31 -61 59t-84 69l-33 27q-42 -90 -65 -133q-7 -15 -36.5 -27.5t-54.5 -12.5q-28 0 -28 18q0 5 3 12
q30 74 71 170l21 51l-25 25q-7 7 -7 16q0 17 22 32.5t49 20.5q48 115 90 234q4 14 25.5 24.5t45.5 13.5q17 5 29 5q28 0 31 -21q14 -87 35.5 -176.5zM331 860q32 19 65 19q20 0 32 -8t12 -25q0 -40 -27.5 -70t-68.5 -46.5t-79 -19.5q-59 -4 -101.5 25t-67.5 84
q-6 14 9.5 29.5t42 26t48.5 10.5q27 0 34 -16q11 -24 23.5 -41t30.5 -27q1 0 4 -1t7 -2q4 9 3 19q1 24 33 43z" />
    <glyph glyph-name="Aogonek" unicode="&#x104;" horiz-adv-x="680" 
d="M415 355q-30 108 -46 184q-39 -78 -103 -190q-5 -11 -17 -31q40 62 91 62q20 0 39 -8q16 -6 36 -17zM636 255l11 -22q14 -24 21 -40.5t7 -33.5q0 -26 -22 -53.5t-48 -40.5q-16 -9 -34 -9q-30 0 -59.5 18.5t-70.5 53.5q-29 24 -44 34q-10 7 -42 22q-56 28 -86.5 50
t-30.5 52q0 8 7 24q-19 -34 -53 -104q-42 -85 -48 -95q-12 -22 -39 -48.5t-50 -26.5q-12 0 -21 9q-7 7 -7 22q0 42 64 149q4 8 13 23l22 42q68 128 99 193q18 38 52 114l36 81q22 47 44 78.5t55 48.5q17 9 32 9q20 0 29 -18.5t16 -54.5q18 -103 50 -218q41 -139 97 -259z
M571.5 37q-6.5 -10 -4.5 -23q1 -13 16 -22q7 0 10 -1q10 -2 19.5 -7.5t10.5 -13.5v-1q1 -4 1 -10q0 -19 -13.5 -31.5t-37.5 -24.5q-15 -8 -34 -8q-27 0 -55 18q-19 11 -31 22.5t-17 26.5q-3 10 -3 19q0 41 49 84q18 17 43.5 26.5t49.5 8.5q12 -1 19 -7t7 -14q0 -10 -11 -21
q-12 -11 -18.5 -21z" />
    <glyph glyph-name="aogonek" unicode="&#x105;" horiz-adv-x="473" 
d="M227 339l-8 -20l70 -59l-7 29q-7 28 -28 119zM376.5 454.5q21.5 -89.5 52.5 -205.5q29 -110 38 -146q1 -3 1 -9q0 -24 -27 -41.5t-56 -17.5q-24 0 -37 13q-29 31 -61 59t-84 69l-33 27q-42 -90 -65 -133q-7 -15 -36.5 -27.5t-54.5 -12.5q-28 0 -28 18q0 5 3 12
q30 74 71 170l21 51l-25 25q-7 7 -7 16q0 17 22 32.5t49 20.5q48 115 90 234q4 14 25.5 24.5t45.5 13.5q17 5 29 5q28 0 31 -21q14 -87 35.5 -176.5zM378.5 9q-6.5 -10 -4.5 -23q1 -13 16 -22q7 0 10 -1q10 -2 19.5 -7.5t10.5 -13.5v-1q1 -4 1 -10q0 -19 -13.5 -31.5
t-37.5 -24.5q-15 -8 -34 -8q-27 0 -55 18q-19 11 -31 22.5t-17 26.5q-3 10 -3 19q0 41 49 84q18 17 43.5 26.5t49.5 8.5q12 -1 19 -7t7 -14q0 -10 -11 -21q-12 -11 -18.5 -21z" />
    <glyph glyph-name="Cacute" unicode="&#x106;" horiz-adv-x="521" 
d="M264 575l2 1zM468 320q24 0 38.5 -29t14.5 -63q0 -18 -5 -31q-15 -39 -49 -71t-82 -65q-47 -31 -110.5 -56.5t-117.5 -25.5q-81 0 -108 64q-16 36 -16 91q0 69 22.5 142.5t61.5 174.5q39 99 93 188.5t119 89.5q17 0 31 -7q11 76 51 112q25 21 43 21q21 0 32 -25
q7 -18 7 -46q0 -14 -2 -38l-1 -30q-2 -73 -9 -146q-6 -66 -29 -126t-73 -65q-25 -3 -40.5 26t-32.5 85q-11 36 -18.5 54.5t-16.5 27.5q-57 -101 -84 -221l-5 -20q-8 -36 -12.5 -59.5t-4.5 -46.5q0 -51 26 -70q18 -15 51 -15q22 0 48 7q26 6 55 19q9 4 27 14q8 1 8 6
q0 4 -5 8q2 9 4 25q2 15 5 25t10 21q26 38 55 51q9 4 19 4zM244 837q0 12 11 23l20.5 20.5t28.5 31.5t20 29q11 22 35 34t52 14q14 2 30 -7t16 -22q0 -7 -4 -14q-53 -82 -114 -113q-32 -16 -60 -16q-12 0 -21 3q-14 4 -14 17z" />
    <glyph glyph-name="cacute" unicode="&#x107;" horiz-adv-x="519" 
d="M400.5 473q26.5 14 52.5 14q34 0 30 -26l-4 -23q-15 -85 -30.5 -143.5t-47 -113.5t-82.5 -87q-66 -42 -135 -42q-41 0 -76.5 17t-59.5 53q-42 62 -42 142q0 108 77 250q26 49 54.5 78t71.5 35q4 1 11 1q16 0 28 -6q30 66 46 99q7 15 33.5 26t49.5 11q30 0 30 -19
q0 -4 -3 -12q-69 -168 -112 -261q-7 -16 -32.5 -27t-49.5 -11q-16 0 -26 5t-10 16q0 7 4 15l15 34q-5 1 -9 5l-20 -47q-28 -61 -37 -122q-3 -19 -3 -39q0 -43 13 -81t41 -61q23 -20 45 -20q88 0 147 306q4 20 30.5 34zM199 778q0 12 11 23l20.5 20.5t28.5 31.5t20 29
q11 22 35 34t52 14q14 2 30 -7t16 -22q0 -7 -4 -14q-53 -82 -114 -113q-32 -16 -60 -16q-12 0 -21 3q-14 4 -14 17z" />
    <glyph glyph-name="Ccircumflex" unicode="&#x108;" horiz-adv-x="544" 
d="M264 575l2 1zM468 320q24 0 38.5 -29t14.5 -63q0 -18 -5 -31q-15 -39 -49 -71t-82 -65q-47 -31 -110.5 -56.5t-117.5 -25.5q-81 0 -108 64q-16 36 -16 91q0 69 22.5 142.5t61.5 174.5q39 99 93 188.5t119 89.5q17 0 31 -7q11 76 51 112q25 21 43 21q21 0 32 -25
q7 -18 7 -46q0 -14 -2 -38l-1 -30q-2 -73 -9 -146q-6 -66 -29 -126t-73 -65q-25 -3 -40.5 26t-32.5 85q-11 36 -18.5 54.5t-16.5 27.5q-57 -101 -84 -221l-5 -20q-8 -36 -12.5 -59.5t-4.5 -46.5q0 -51 26 -70q18 -15 51 -15q22 0 48 7q26 6 55 19q9 4 27 14q8 1 8 6
q0 4 -5 8q2 9 4 25q2 15 5 25t10 21q26 38 55 51q9 4 19 4zM476 1016.5q23 -15.5 46 -27t30 -14.5q17 -8 17 -23q0 -9 -6.5 -19.5t-15.5 -17.5q-13 -11 -31.5 -17.5t-36.5 -6.5q-16 0 -27 4q-39 14 -71 33q-5 3 -18 16q-29 -26 -57 -44q-41 -26 -74 -26q-13 0 -21 4
q-15 7 -15 19q0 8 6.5 17t16.5 15q65 46 92 93q10 17 39 34t54 17q22 0 32 -15q17 -26 40 -41.5z" />
    <glyph glyph-name="ccircumflex" unicode="&#x109;" horiz-adv-x="519" 
d="M400.5 473q26.5 14 52.5 14q34 0 30 -26l-4 -23q-15 -85 -30.5 -143.5t-47 -113.5t-82.5 -87q-66 -42 -135 -42q-41 0 -76.5 17t-59.5 53q-42 62 -42 142q0 108 77 250q26 49 54.5 78t71.5 35q4 1 11 1q16 0 28 -6q30 66 46 99q7 15 33.5 26t49.5 11q30 0 30 -19
q0 -4 -3 -12q-69 -168 -112 -261q-7 -16 -32.5 -27t-49.5 -11q-16 0 -26 5t-10 16q0 7 4 15l15 34q-5 1 -9 5l-20 -47q-28 -61 -37 -122q-3 -19 -3 -39q0 -43 13 -81t41 -61q23 -20 45 -20q88 0 147 306q4 20 30.5 34zM423 905.5q23 -15.5 46 -27t30 -14.5q17 -8 17 -23
q0 -9 -6.5 -19.5t-15.5 -17.5q-13 -11 -31.5 -17.5t-36.5 -6.5q-16 0 -27 4q-39 14 -71 33q-5 3 -18 16q-29 -26 -57 -44q-41 -26 -74 -26q-13 0 -21 4q-15 7 -15 19q0 8 6.5 17t16.5 15q65 46 92 93q10 17 39 34t54 17q22 0 32 -15q17 -26 40 -41.5z" />
    <glyph glyph-name="Cdotaccent" unicode="&#x10a;" 
d="M264 575l2 1zM468 320q24 0 38.5 -29t14.5 -63q0 -18 -5 -31q-15 -39 -49 -71t-82 -65q-47 -31 -110.5 -56.5t-117.5 -25.5q-81 0 -108 64q-16 36 -16 91q0 69 22.5 142.5t61.5 174.5q39 99 93 188.5t119 89.5q17 0 31 -7q11 76 51 112q25 21 43 21q21 0 32 -25
q7 -18 7 -46q0 -14 -2 -38l-1 -30q-2 -73 -9 -146q-6 -66 -29 -126t-73 -65q-25 -3 -40.5 26t-32.5 85q-11 36 -18.5 54.5t-16.5 27.5q-57 -101 -84 -221l-5 -20q-8 -36 -12.5 -59.5t-4.5 -46.5q0 -51 26 -70q18 -15 51 -15q22 0 48 7q26 6 55 19q9 4 27 14q8 1 8 6
q0 4 -5 8q2 9 4 25q2 15 5 25t10 21q26 38 55 51q9 4 19 4zM254 832q-12 15 -9 33q2 10 8 19t13 17q7 9 17.5 14.5t26.5 11.5q1 0 1 1q32 14 55 14q19 0 33 -10q11 -9 14 -24l1 -10q0 -12 -4 -21q-10 -24 -43 -42q-33 -19 -67 -19l-11 1q-25 2 -35 15z" />
    <glyph glyph-name="cdotaccent" unicode="&#x10b;" horiz-adv-x="530" 
d="M400.5 473q26.5 14 52.5 14q34 0 30 -26l-4 -23q-15 -85 -30.5 -143.5t-47 -113.5t-82.5 -87q-66 -42 -135 -42q-41 0 -76.5 17t-59.5 53q-42 62 -42 142q0 108 77 250q26 49 54.5 78t71.5 35q4 1 11 1q16 0 28 -6q30 66 46 99q7 15 33.5 26t49.5 11q30 0 30 -19
q0 -4 -3 -12q-69 -168 -112 -261q-7 -16 -32.5 -27t-49.5 -11q-16 0 -26 5t-10 16q0 7 4 15l15 34q-5 1 -9 5l-20 -47q-28 -61 -37 -122q-3 -19 -3 -39q0 -43 13 -81t41 -61q23 -20 45 -20q88 0 147 306q4 20 30.5 34zM224 791q-12 15 -9 33q2 10 8 19t13 17q7 9 17.5 14.5
t26.5 11.5q1 0 1 1q32 14 55 14q19 0 33 -10q11 -9 14 -24l1 -10q0 -12 -4 -21q-10 -24 -43 -42q-33 -19 -67 -19l-11 1q-25 2 -35 15z" />
    <glyph glyph-name="Ccaron" unicode="&#x10c;" horiz-adv-x="516" 
d="M264 575l2 1zM468 320q24 0 38.5 -29t14.5 -63q0 -18 -5 -31q-15 -39 -49 -71t-82 -65q-47 -31 -110.5 -56.5t-117.5 -25.5q-81 0 -108 64q-16 36 -16 91q0 69 22.5 142.5t61.5 174.5q39 99 93 188.5t119 89.5q17 0 31 -7q11 76 51 112q25 21 43 21q21 0 32 -25
q7 -18 7 -46q0 -14 -2 -38l-1 -30q-2 -73 -9 -146q-6 -66 -29 -126t-73 -65q-25 -3 -40.5 26t-32.5 85q-11 36 -18.5 54.5t-16.5 27.5q-57 -101 -84 -221l-5 -20q-8 -36 -12.5 -59.5t-4.5 -46.5q0 -51 26 -70q18 -15 51 -15q22 0 48 7q26 6 55 19q9 4 27 14q8 1 8 6
q0 4 -5 8q2 9 4 25q2 15 5 25t10 21q26 38 55 51q9 4 19 4zM193 961q0 11 14.5 23.5t26.5 18.5q32 18 61 18q18 0 29 -8q24 -16 44 -37q51 31 100 30q21 0 33.5 -9t12.5 -22q0 -19 -21 -36q-13 -11 -34 -24q-18 -11 -30.5 -21t-22.5 -25q-11 -15 -35 -26.5t-48 -11.5
q-35 0 -46 26q-22 55 -77 92q-7 4 -7 12z" />
    <glyph glyph-name="ccaron" unicode="&#x10d;" horiz-adv-x="519" 
d="M400.5 473q26.5 14 52.5 14q34 0 30 -26l-4 -23q-15 -85 -30.5 -143.5t-47 -113.5t-82.5 -87q-66 -42 -135 -42q-41 0 -76.5 17t-59.5 53q-42 62 -42 142q0 108 77 250q26 49 54.5 78t71.5 35q4 1 11 1q16 0 28 -6q30 66 46 99q7 15 33.5 26t49.5 11q30 0 30 -19
q0 -4 -3 -12q-69 -168 -112 -261q-7 -16 -32.5 -27t-49.5 -11q-16 0 -26 5t-10 16q0 7 4 15l15 34q-5 1 -9 5l-20 -47q-28 -61 -37 -122q-3 -19 -3 -39q0 -43 13 -81t41 -61q23 -20 45 -20q88 0 147 306q4 20 30.5 34zM172 895q0 11 14.5 23.5t26.5 18.5q32 18 61 18
q18 0 29 -8q24 -16 44 -37q51 31 100 30q21 0 33.5 -9t12.5 -22q0 -19 -21 -36q-13 -11 -34 -24q-18 -11 -30.5 -21t-22.5 -25q-11 -15 -35 -26.5t-48 -11.5q-35 0 -46 26q-22 55 -77 92q-7 4 -7 12z" />
    <glyph glyph-name="Dcaron" unicode="&#x10e;" 
d="M59 846q21 0 39 -12q7 -5 13 -10t11 -9q6 -4 16 -8t17 -8q30 -16 88 -50l89 -51q77 -44 135 -76l64 -34q57 -29 96.5 -52t73.5 -52q25 -23 39 -45t14 -48l-1 -11q-10 -58 -61 -111q-39 -42 -91.5 -72t-120.5 -57q-116 -44 -266 -79q-16 -4 -23 -5l-41 -10l-58 -11
q-27 -5 -66 -10q-4 -1 -14.5 -3.5t-18.5 -2.5q-4 0 -12 2q-21 4 -21 25q0 14 9.5 32.5t19.5 29.5q30 35 88 48q12 3 14.5 6.5t3.5 16.5q0 18 2 54q8 95 10 145q4 48 5 72q1 5 2 13.5t1 20.5q0 13 -4 24q-21 51 -67 126q0 -1 1.5 -2.5t2.5 -5.5q-13 23 -43 67q-4 5 -9 13
t-9 13q-3 3 -8 8.5t-8 9.5q-5 10 -5 18q0 22 21.5 46t43.5 38q13 7 28 7zM264 195q91 20 197 53q57 18 93 33t68 39q-29 35 -65.5 60.5t-103.5 65.5l-75 45l-121 75q37 -105 37 -197q0 -67 -19 -133zM183 901q0 11 14.5 23.5t26.5 18.5q32 18 61 18q18 0 29 -8
q24 -16 44 -37q51 31 100 30q21 0 33.5 -9t12.5 -22q0 -19 -21 -36q-13 -11 -34 -24q-18 -11 -30.5 -21t-22.5 -25q-11 -15 -35 -26.5t-48 -11.5q-35 0 -46 26q-22 55 -77 92q-7 4 -7 12z" />
    <glyph glyph-name="dcaron" unicode="&#x10f;" horiz-adv-x="450" 
d="M306 380q-80 24 -161 97q-2 -91 -4 -269q105 81 165 172zM437 422q0 -7 -4 -14q-53 -102 -140 -181t-211 -158q-12 -7 -27 -12.5t-29 -5.5q-15 0 -26 8q-12 9 -12 22q0 17 19 30q2 1 4 3t6 4l4 248q2 81 4 247q-1 2 -1 7q0 2 2 10v11q1 19 26 32.5t53 13.5q19 0 30.5 -7
t11.5 -22v-10q121 -167 264 -204q15 -5 19 -9q7 -5 7 -13zM287 573q0 4 2 12q1 10 8 22q20 60 20 111q0 15 -4 43q-2 16 15 36.5t42 35.5t42 15q15 0 18 -14q4 -24 4 -55q0 -33 -4 -60q-6 -58 -14 -93q0 -11 -6 -23q-15 -35 -54 -54q-18 -8 -34 -8q-23 0 -30 17q-5 7 -5 15z
" />
    <glyph glyph-name="Dcroat" unicode="&#x110;" horiz-adv-x="725" 
d="M59 846q21 0 39 -12q7 -5 13 -10t11 -9q6 -4 16 -8t17 -8q30 -16 88 -50l89 -51q77 -44 135 -76l64 -34q57 -29 96.5 -52t73.5 -52q25 -23 39 -45t14 -48l-1 -11q-10 -58 -61 -111q-39 -42 -91.5 -72t-120.5 -57q-116 -44 -266 -79q-16 -4 -23 -5l-41 -10l-58 -11
q-27 -5 -66 -10q-4 -1 -14.5 -3.5t-18.5 -2.5q-4 0 -12 2q-21 4 -21 25q0 14 9.5 32.5t19.5 29.5q30 35 88 48q12 3 14.5 6.5t3.5 16.5q0 18 2 54q8 95 10 145q4 48 5 72q1 5 2 13.5t1 20.5q0 13 -4 24q-21 51 -67 126q0 -1 1.5 -2.5t2.5 -5.5q-13 23 -43 67q-4 5 -9 13
t-9 13q-3 3 -8 8.5t-8 9.5q-5 10 -5 18q0 22 21.5 46t43.5 38q13 7 28 7zM264 195q91 20 197 53q57 18 93 33t68 39q-29 35 -65.5 60.5t-103.5 65.5l-75 45l-121 75q37 -105 37 -197q0 -67 -19 -133zM0 350q0 11 19 26t43 24.5t39 7.5q60 -9 117 -9q68 0 139 12q21 3 27 3
q31 0 32 -23q1 -18 -24.5 -32t-47.5 -18q-81 -20 -176 -20q-73 0 -143 12q-25 4 -25 17z" />
    <glyph glyph-name="dcroat" unicode="&#x111;" 
d="M619.5 475.5q7.5 7.5 7.5 19.5q0 16 -12 31q-19 24 -49 35t-62 11h-27l2 44q2 60 4 91q0 17 -21 34t-51 27.5t-54 10.5q-31 0 -32 -18q-7 -103 -8 -186l-57 1q-50 0 -101 -3q-16 -1 -24 -9.5t-8 -21.5q0 -14 7 -27q12 -23 42 -38.5t56 -16.5h28q10 0 24 -0.5t33 0.5
q0 -38 1 -56q-92 4 -162 -32t-75 -121q-5 -80 53.5 -134.5t141.5 -82t153 -33.5q23 -2 40 11.5t19 37.5q4 36 4 81q0 51 -8 153q-4 54 -5 80q-2 34 -2 100q82 4 120 4q15 0 22.5 7.5zM325 274q3 -43 3 -128q-33 10 -55 25t-22 35q0 24 30 49q15 14 44 19z" />
    <glyph glyph-name="Emacron" unicode="&#x112;" horiz-adv-x="567" 
d="M565 152q0 -13 -5.5 -28.5t-14.5 -28.5q-19 -28 -43.5 -38t-63.5 -12q-79 -3 -113 -3q-98 -3 -136 -5q-78 -3 -137 -20q-24 -6 -33 -6q-11 0 -17 7t-6 25q0 19 7.5 39.5t23.5 55.5q14 27 22 50q2 7 9.5 28t10.5 38q1 5 1 12q0 6 -2 14.5t-3 16.5q-1 16 4.5 31.5
t16.5 35.5q17 35 20 50q18 86 20 130l1 31q0 30 -6 44q-5 12 -18 24q-12 12 -16 20q-5 9 -5 24q0 17 8.5 36.5t21.5 35.5q23 30 55 30q24 0 48.5 -14t59.5 -41q26 -20 39 -28q47 -28 79 -43t68 -22q17 -3 32 -3q16 0 32 3q6 1 19.5 6.5t20.5 5.5t12 -4q10 -7 10 -23
t-9.5 -35.5t-19.5 -32.5q-31 -38 -88 -46q-18 -3 -37 -3q-51 0 -100 17.5t-112 49.5q-6 -77 -23 -160l34 8q53 13 86.5 19.5t65.5 6.5q14 0 21 -1q35 -3 35 -35q0 -15 -7.5 -33t-18.5 -33q-20 -27 -49 -35t-75 -9l-34 -2q-36 -4 -55 -7q-19 -2 -23.5 -4.5t-8 -9.5t-7.5 -13
q-7 -12 -13 -31t-10 -38q-6 -28 -10 -40q56 13 163.5 24.5t181.5 11.5q32 0 53 -3q38 -5 38 -40zM116 831.5q-7 5.5 -7 14.5q0 10 11 23q15 18 41 26.5t52 8.5q76 -2 118 -2t82 3q25 11 47 11q14 0 24 -5.5t13 -15.5l2 -8q1 -3 1 -9q0 -17 -15 -32t-36 -23t-37 -6
q-59 4 -176 6q-34 0 -100 2q-13 1 -20 6.5z" />
    <glyph glyph-name="emacron" unicode="&#x113;" horiz-adv-x="492" 
d="M463 123q0 -16 -19 -35q-21 -21 -54 -21q-16 0 -27 4q-53 17 -96 17q-75 0 -153 -48q-13 -9 -31.5 -14.5t-34.5 -5.5q-15 0 -24 5.5t-9 17.5q0 7 2 12q29 81 46.5 146t23.5 132q9 90 9 132q0 111 -43 170q-5 6 -5 16q0 20 28 37.5t55 17.5q18 0 26 -8q13 -5 17 -16
q25 -66 69 -111.5t104 -45.5q11 0 33 4q14 2 18 2q17 0 25.5 -7.5t8.5 -20.5q0 -14 -11.5 -28t-30.5 -20q-41 -14 -82 -14q-49 0 -94 20q-2 -56 -5 -84l-7 -63q39 7 78 12l14 1q40 0 40 -27q0 -18 -20 -32t-41 -18q-31 -6 -85 -13q-11 -49 -24 -92q66 24 134 24
q75 0 150 -28q15 -5 15 -18zM103 794.5q-7 5.5 -7 14.5q0 10 11 23q15 18 41 26.5t52 8.5q76 -2 118 -2t82 3q25 11 47 11q14 0 24 -5.5t13 -15.5l2 -8q1 -3 1 -9q0 -17 -15 -32t-36 -23t-37 -6q-59 4 -176 6q-34 0 -100 2q-13 1 -20 6.5z" />
    <glyph glyph-name="Ebreve" unicode="&#x114;" 
d="M565 152q0 -13 -5.5 -28.5t-14.5 -28.5q-19 -28 -43.5 -38t-63.5 -12q-79 -3 -113 -3q-98 -3 -136 -5q-78 -3 -137 -20q-24 -6 -33 -6q-11 0 -17 7t-6 25q0 19 7.5 39.5t23.5 55.5q14 27 22 50q2 7 9.5 28t10.5 38q1 5 1 12q0 6 -2 14.5t-3 16.5q-1 16 4.5 31.5
t16.5 35.5q17 35 20 50q18 86 20 130l1 31q0 30 -6 44q-5 12 -18 24q-12 12 -16 20q-5 9 -5 24q0 17 8.5 36.5t21.5 35.5q23 30 55 30q24 0 48.5 -14t59.5 -41q26 -20 39 -28q47 -28 79 -43t68 -22q17 -3 32 -3q16 0 32 3q6 1 19.5 6.5t20.5 5.5t12 -4q10 -7 10 -23
t-9.5 -35.5t-19.5 -32.5q-31 -38 -88 -46q-18 -3 -37 -3q-51 0 -100 17.5t-112 49.5q-6 -77 -23 -160l34 8q53 13 86.5 19.5t65.5 6.5q14 0 21 -1q35 -3 35 -35q0 -15 -7.5 -33t-18.5 -33q-20 -27 -49 -35t-75 -9l-34 -2q-36 -4 -55 -7q-19 -2 -23.5 -4.5t-8 -9.5t-7.5 -13
q-7 -12 -13 -31t-10 -38q-6 -28 -10 -40q56 13 163.5 24.5t181.5 11.5q32 0 53 -3q38 -5 38 -40zM398 932q32 19 65 19q20 0 32 -8t12 -25q0 -40 -27.5 -70t-68.5 -46.5t-79 -19.5q-59 -4 -101.5 25t-67.5 84q-6 14 9.5 29.5t42 26t48.5 10.5q27 0 34 -16q11 -24 23.5 -41
t30.5 -27q1 0 4 -1t7 -2q4 9 3 19q1 24 33 43z" />
    <glyph glyph-name="ebreve" unicode="&#x115;" 
d="M463 123q0 -16 -19 -35q-21 -21 -54 -21q-16 0 -27 4q-53 17 -96 17q-75 0 -153 -48q-13 -9 -31.5 -14.5t-34.5 -5.5q-15 0 -24 5.5t-9 17.5q0 7 2 12q29 81 46.5 146t23.5 132q9 90 9 132q0 111 -43 170q-5 6 -5 16q0 20 28 37.5t55 17.5q18 0 26 -8q13 -5 17 -16
q25 -66 69 -111.5t104 -45.5q11 0 33 4q14 2 18 2q17 0 25.5 -7.5t8.5 -20.5q0 -14 -11.5 -28t-30.5 -20q-41 -14 -82 -14q-49 0 -94 20q-2 -56 -5 -84l-7 -63q39 7 78 12l14 1q40 0 40 -27q0 -18 -20 -32t-41 -18q-31 -6 -85 -13q-11 -49 -24 -92q66 24 134 24
q75 0 150 -28q15 -5 15 -18zM360 876q32 19 65 19q20 0 32 -8t12 -25q0 -40 -27.5 -70t-68.5 -46.5t-79 -19.5q-59 -4 -101.5 25t-67.5 84q-6 14 9.5 29.5t42 26t48.5 10.5q27 0 34 -16q11 -24 23.5 -41t30.5 -27q1 0 4 -1t7 -2q4 9 3 19q1 24 33 43z" />
    <glyph glyph-name="Edotaccent" unicode="&#x116;" 
d="M565 152q0 -13 -5.5 -28.5t-14.5 -28.5q-19 -28 -43.5 -38t-63.5 -12q-79 -3 -113 -3q-98 -3 -136 -5q-78 -3 -137 -20q-24 -6 -33 -6q-11 0 -17 7t-6 25q0 19 7.5 39.5t23.5 55.5q14 27 22 50q2 7 9.5 28t10.5 38q1 5 1 12q0 6 -2 14.5t-3 16.5q-1 16 4.5 31.5
t16.5 35.5q17 35 20 50q18 86 20 130l1 31q0 30 -6 44q-5 12 -18 24q-12 12 -16 20q-5 9 -5 24q0 17 8.5 36.5t21.5 35.5q23 30 55 30q24 0 48.5 -14t59.5 -41q26 -20 39 -28q47 -28 79 -43t68 -22q17 -3 32 -3q16 0 32 3q6 1 19.5 6.5t20.5 5.5t12 -4q10 -7 10 -23
t-9.5 -35.5t-19.5 -32.5q-31 -38 -88 -46q-18 -3 -37 -3q-51 0 -100 17.5t-112 49.5q-6 -77 -23 -160l34 8q53 13 86.5 19.5t65.5 6.5q14 0 21 -1q35 -3 35 -35q0 -15 -7.5 -33t-18.5 -33q-20 -27 -49 -35t-75 -9l-34 -2q-36 -4 -55 -7q-19 -2 -23.5 -4.5t-8 -9.5t-7.5 -13
q-7 -12 -13 -31t-10 -38q-6 -28 -10 -40q56 13 163.5 24.5t181.5 11.5q32 0 53 -3q38 -5 38 -40zM271 813q-12 15 -9 33q2 10 8 19t13 17q7 9 17.5 14.5t26.5 11.5q1 0 1 1q32 14 55 14q19 0 33 -10q11 -9 14 -24l1 -10q0 -12 -4 -21q-10 -24 -43 -42q-33 -19 -67 -19l-11 1
q-25 2 -35 15z" />
    <glyph glyph-name="edotaccent" unicode="&#x117;" horiz-adv-x="463" 
d="M463 123q0 -16 -19 -35q-21 -21 -54 -21q-16 0 -27 4q-53 17 -96 17q-75 0 -153 -48q-13 -9 -31.5 -14.5t-34.5 -5.5q-15 0 -24 5.5t-9 17.5q0 7 2 12q29 81 46.5 146t23.5 132q9 90 9 132q0 111 -43 170q-5 6 -5 16q0 20 28 37.5t55 17.5q18 0 26 -8q13 -5 17 -16
q25 -66 69 -111.5t104 -45.5q11 0 33 4q14 2 18 2q17 0 25.5 -7.5t8.5 -20.5q0 -14 -11.5 -28t-30.5 -20q-41 -14 -82 -14q-49 0 -94 20q-2 -56 -5 -84l-7 -63q39 7 78 12l14 1q40 0 40 -27q0 -18 -20 -32t-41 -18q-31 -6 -85 -13q-11 -49 -24 -92q66 24 134 24
q75 0 150 -28q15 -5 15 -18zM203 767q-12 15 -9 33q2 10 8 19t13 17q7 9 17.5 14.5t26.5 11.5q1 0 1 1q32 14 55 14q19 0 33 -10q11 -9 14 -24l1 -10q0 -12 -4 -21q-10 -24 -43 -42q-33 -19 -67 -19l-11 1q-25 2 -35 15z" />
    <glyph glyph-name="Eogonek" unicode="&#x118;" 
d="M565 152q0 -13 -5.5 -28.5t-14.5 -28.5q-19 -28 -43.5 -38t-63.5 -12q-79 -3 -113 -3q-98 -3 -136 -5q-78 -3 -137 -20q-24 -6 -33 -6q-11 0 -17 7t-6 25q0 19 7.5 39.5t23.5 55.5q14 27 22 50q2 7 9.5 28t10.5 38q1 5 1 12q0 6 -2 14.5t-3 16.5q-1 16 4.5 31.5
t16.5 35.5q17 35 20 50q18 86 20 130l1 31q0 30 -6 44q-5 12 -18 24q-12 12 -16 20q-5 9 -5 24q0 17 8.5 36.5t21.5 35.5q23 30 55 30q24 0 48.5 -14t59.5 -41q26 -20 39 -28q47 -28 79 -43t68 -22q17 -3 32 -3q16 0 32 3q6 1 19.5 6.5t20.5 5.5t12 -4q10 -7 10 -23
t-9.5 -35.5t-19.5 -32.5q-31 -38 -88 -46q-18 -3 -37 -3q-51 0 -100 17.5t-112 49.5q-6 -77 -23 -160l34 8q53 13 86.5 19.5t65.5 6.5q14 0 21 -1q35 -3 35 -35q0 -15 -7.5 -33t-18.5 -33q-20 -27 -49 -35t-75 -9l-34 -2q-36 -4 -55 -7q-19 -2 -23.5 -4.5t-8 -9.5t-7.5 -13
q-7 -12 -13 -31t-10 -38q-6 -28 -10 -40q56 13 163.5 24.5t181.5 11.5q32 0 53 -3q38 -5 38 -40zM308.5 18q-6.5 -10 -4.5 -23q1 -13 16 -22q7 0 10 -1q10 -2 19.5 -7.5t10.5 -13.5v-1q1 -4 1 -10q0 -19 -13.5 -31.5t-37.5 -24.5q-15 -8 -34 -8q-27 0 -55 18
q-19 11 -31 22.5t-17 26.5q-3 10 -3 19q0 41 49 84q18 17 43.5 26.5t49.5 8.5q12 -1 19 -7t7 -14q0 -10 -11 -21q-12 -11 -18.5 -21z" />
    <glyph glyph-name="eogonek" unicode="&#x119;" horiz-adv-x="468" 
d="M463 123q0 -16 -19 -35q-21 -21 -54 -21q-16 0 -27 4q-53 17 -96 17q-75 0 -153 -48q-13 -9 -31.5 -14.5t-34.5 -5.5q-15 0 -24 5.5t-9 17.5q0 7 2 12q29 81 46.5 146t23.5 132q9 90 9 132q0 111 -43 170q-5 6 -5 16q0 20 28 37.5t55 17.5q18 0 26 -8q13 -5 17 -16
q25 -66 69 -111.5t104 -45.5q11 0 33 4q14 2 18 2q17 0 25.5 -7.5t8.5 -20.5q0 -14 -11.5 -28t-30.5 -20q-41 -14 -82 -14q-49 0 -94 20q-2 -56 -5 -84l-7 -63q39 7 78 12l14 1q40 0 40 -27q0 -18 -20 -32t-41 -18q-31 -6 -85 -13q-11 -49 -24 -92q66 24 134 24
q75 0 150 -28q15 -5 15 -18zM286.5 14q-6.5 -10 -4.5 -23q1 -13 16 -22q7 0 10 -1q10 -2 19.5 -7.5t10.5 -13.5v-1q1 -4 1 -10q0 -19 -13.5 -31.5t-37.5 -24.5q-15 -8 -34 -8q-27 0 -55 18q-19 11 -31 22.5t-17 26.5q-3 10 -3 19q0 41 49 84q18 17 43.5 26.5t49.5 8.5
q12 -1 19 -7t7 -14q0 -10 -11 -21q-12 -11 -18.5 -21z" />
    <glyph glyph-name="Ecaron" unicode="&#x11a;" 
d="M565 152q0 -13 -5.5 -28.5t-14.5 -28.5q-19 -28 -43.5 -38t-63.5 -12q-79 -3 -113 -3q-98 -3 -136 -5q-78 -3 -137 -20q-24 -6 -33 -6q-11 0 -17 7t-6 25q0 19 7.5 39.5t23.5 55.5q14 27 22 50q2 7 9.5 28t10.5 38q1 5 1 12q0 6 -2 14.5t-3 16.5q-1 16 4.5 31.5
t16.5 35.5q17 35 20 50q18 86 20 130l1 31q0 30 -6 44q-5 12 -18 24q-12 12 -16 20q-5 9 -5 24q0 17 8.5 36.5t21.5 35.5q23 30 55 30q24 0 48.5 -14t59.5 -41q26 -20 39 -28q47 -28 79 -43t68 -22q17 -3 32 -3q16 0 32 3q6 1 19.5 6.5t20.5 5.5t12 -4q10 -7 10 -23
t-9.5 -35.5t-19.5 -32.5q-31 -38 -88 -46q-18 -3 -37 -3q-51 0 -100 17.5t-112 49.5q-6 -77 -23 -160l34 8q53 13 86.5 19.5t65.5 6.5q14 0 21 -1q35 -3 35 -35q0 -15 -7.5 -33t-18.5 -33q-20 -27 -49 -35t-75 -9l-34 -2q-36 -4 -55 -7q-19 -2 -23.5 -4.5t-8 -9.5t-7.5 -13
q-7 -12 -13 -31t-10 -38q-6 -28 -10 -40q56 13 163.5 24.5t181.5 11.5q32 0 53 -3q38 -5 38 -40zM215 914q0 11 14.5 23.5t26.5 18.5q32 18 61 18q18 0 29 -8q24 -16 44 -37q51 31 100 30q21 0 33.5 -9t12.5 -22q0 -19 -21 -36q-13 -11 -34 -24q-18 -11 -30.5 -21t-22.5 -25
q-11 -15 -35 -26.5t-48 -11.5q-35 0 -46 26q-22 55 -77 92q-7 4 -7 12z" />
    <glyph glyph-name="ecaron" unicode="&#x11b;" horiz-adv-x="475" 
d="M463 123q0 -16 -19 -35q-21 -21 -54 -21q-16 0 -27 4q-53 17 -96 17q-75 0 -153 -48q-13 -9 -31.5 -14.5t-34.5 -5.5q-15 0 -24 5.5t-9 17.5q0 7 2 12q29 81 46.5 146t23.5 132q9 90 9 132q0 111 -43 170q-5 6 -5 16q0 20 28 37.5t55 17.5q18 0 26 -8q13 -5 17 -16
q25 -66 69 -111.5t104 -45.5q11 0 33 4q14 2 18 2q17 0 25.5 -7.5t8.5 -20.5q0 -14 -11.5 -28t-30.5 -20q-41 -14 -82 -14q-49 0 -94 20q-2 -56 -5 -84l-7 -63q39 7 78 12l14 1q40 0 40 -27q0 -18 -20 -32t-41 -18q-31 -6 -85 -13q-11 -49 -24 -92q66 24 134 24
q75 0 150 -28q15 -5 15 -18zM149 857q0 11 14.5 23.5t26.5 18.5q32 18 61 18q18 0 29 -8q24 -16 44 -37q51 31 100 30q21 0 33.5 -9t12.5 -22q0 -19 -21 -36q-13 -11 -34 -24q-18 -11 -30.5 -21t-22.5 -25q-11 -15 -35 -26.5t-48 -11.5q-35 0 -46 26q-22 55 -77 92
q-7 4 -7 12z" />
    <glyph glyph-name="Gcircumflex" unicode="&#x11c;" 
d="M558 83q6 -34 6 -50q0 -31 -14 -54q-12 -21 -33 -40.5t-41 -19.5q-45 0 -45 105l1 46q3 89 20 182q-22 -1 -27 -6t-8 -21q0 -11 -4 -24q-10 -40 -36 -77q-23 -33 -56 -55.5t-72 -30.5q-27 -5 -47 -5q-73 0 -125 44.5t-58 119.5q-1 8 -1 25q0 66 22 138.5t59 152.5
q76 165 178 250q31 26 68 42t71 16q30 0 54.5 -14t39.5 -44q20 -39 20 -87q0 -47 -18 -96.5t-48 -93.5q-14 -21 -38.5 -44.5t-44.5 -23.5q-12 0 -19 10q-7 8 -7 20q0 24 33 64l14 20q13 22 13 48q0 36 -22.5 64t-54.5 28q-23 0 -46 -17q-51 -37 -86 -116.5t-50 -158.5
q-5 -27 -5 -46q0 -64 37 -102.5t107 -36.5q-7 22 -14 30t-25 11q-6 1 -18.5 -2t-18.5 -3q-33 3 -33 29q0 10 5 27q11 34 32.5 51.5t47 23.5t65.5 10l30 4q7 1 34 7q6 1 39.5 8t62.5 7q58 0 66 -37q2 -12 2 -17q0 -20 -7 -48q-4 -25 -5 -33q-6 -49 -6 -100q0 -26 1 -38
q1 -14 5 -42zM467 971.5q23 -15.5 46 -27t30 -14.5q17 -8 17 -23q0 -9 -6.5 -19.5t-15.5 -17.5q-13 -11 -31.5 -17.5t-36.5 -6.5q-16 0 -27 4q-39 14 -71 33q-5 3 -18 16q-29 -26 -57 -44q-41 -26 -74 -26q-13 0 -21 4q-15 7 -15 19q0 8 6.5 17t16.5 15q65 46 92 93
q10 17 39 34t54 17q22 0 32 -15q17 -26 40 -41.5z" />
    <glyph glyph-name="gcircumflex" unicode="&#x11d;" horiz-adv-x="540" 
d="M483 384q7 -63 7 -136q0 -81 -10 -155q-3 -20 -31 -35.5t-55 -15.5q-16 0 -25 6.5t-8 20.5q10 92 10 163q-31 -79 -84 -133.5t-123 -54.5q-15 0 -30 3q-65 11 -93 59.5t-28 119.5q0 70 23 152q18 62 53.5 119.5t86.5 94.5t112 37q52 0 76 -20t24 -53q0 -41 -30 -90.5
t-64 -75.5q-10 -7 -27 -11.5t-33 -4.5q-18 0 -29 5t-11 14q0 13 20 30q13 11 35.5 47.5t22.5 57.5q0 19 -21 19q-30 0 -71 -90q-23 -45 -34 -98q-14 -64 -14 -118q0 -97 53 -107q21 -3 41.5 31.5t35.5 81.5q-13 -7 -39 -19q-16 -7 -35 -7q-20 0 -30 10q-6 8 -6 15
q0 9 5.5 17.5t13.5 13.5q127 87 242 139q9 4 22 4q20 0 35 -9.5t12 -23.5q1 -1 1 -3zM398 787.5q23 -15.5 46 -27t30 -14.5q17 -8 17 -23q0 -9 -6.5 -19.5t-15.5 -17.5q-13 -11 -31.5 -17.5t-36.5 -6.5q-16 0 -27 4q-39 14 -71 33q-5 3 -18 16q-29 -26 -57 -44
q-41 -26 -74 -26q-13 0 -21 4q-15 7 -15 19q0 8 6.5 17t16.5 15q65 46 92 93q10 17 39 34t54 17q22 0 32 -15q17 -26 40 -41.5z" />
    <glyph glyph-name="Gbreve" unicode="&#x11e;" 
d="M558 83q6 -34 6 -50q0 -31 -14 -54q-12 -21 -33 -40.5t-41 -19.5q-45 0 -45 105l1 46q3 89 20 182q-22 -1 -27 -6t-8 -21q0 -11 -4 -24q-10 -40 -36 -77q-23 -33 -56 -55.5t-72 -30.5q-27 -5 -47 -5q-73 0 -125 44.5t-58 119.5q-1 8 -1 25q0 66 22 138.5t59 152.5
q76 165 178 250q31 26 68 42t71 16q30 0 54.5 -14t39.5 -44q20 -39 20 -87q0 -47 -18 -96.5t-48 -93.5q-14 -21 -38.5 -44.5t-44.5 -23.5q-12 0 -19 10q-7 8 -7 20q0 24 33 64l14 20q13 22 13 48q0 36 -22.5 64t-54.5 28q-23 0 -46 -17q-51 -37 -86 -116.5t-50 -158.5
q-5 -27 -5 -46q0 -64 37 -102.5t107 -36.5q-7 22 -14 30t-25 11q-6 1 -18.5 -2t-18.5 -3q-33 3 -33 29q0 10 5 27q11 34 32.5 51.5t47 23.5t65.5 10l30 4q7 1 34 7q6 1 39.5 8t62.5 7q58 0 66 -37q2 -12 2 -17q0 -20 -7 -48q-4 -25 -5 -33q-6 -49 -6 -100q0 -26 1 -38
q1 -14 5 -42zM412 1001q32 19 65 19q20 0 32 -8t12 -25q0 -40 -27.5 -70t-68.5 -46.5t-79 -19.5q-59 -4 -101.5 25t-67.5 84q-6 14 9.5 29.5t42 26t48.5 10.5q27 0 34 -16q11 -24 23.5 -41t30.5 -27q1 0 4 -1t7 -2q4 9 3 19q1 24 33 43z" />
    <glyph glyph-name="gbreve" unicode="&#x11f;" horiz-adv-x="540" 
d="M483 384q7 -63 7 -136q0 -81 -10 -155q-3 -20 -31 -35.5t-55 -15.5q-16 0 -25 6.5t-8 20.5q10 92 10 163q-31 -79 -84 -133.5t-123 -54.5q-15 0 -30 3q-65 11 -93 59.5t-28 119.5q0 70 23 152q18 62 53.5 119.5t86.5 94.5t112 37q52 0 76 -20t24 -53q0 -41 -30 -90.5
t-64 -75.5q-10 -7 -27 -11.5t-33 -4.5q-18 0 -29 5t-11 14q0 13 20 30q13 11 35.5 47.5t22.5 57.5q0 19 -21 19q-30 0 -71 -90q-23 -45 -34 -98q-14 -64 -14 -118q0 -97 53 -107q21 -3 41.5 31.5t35.5 81.5q-13 -7 -39 -19q-16 -7 -35 -7q-20 0 -30 10q-6 8 -6 15
q0 9 5.5 17.5t13.5 13.5q127 87 242 139q9 4 22 4q20 0 35 -9.5t12 -23.5q1 -1 1 -3zM360 837q32 19 65 19q20 0 32 -8t12 -25q0 -40 -27.5 -70t-68.5 -46.5t-79 -19.5q-59 -4 -101.5 25t-67.5 84q-6 14 9.5 29.5t42 26t48.5 10.5q27 0 34 -16q11 -24 23.5 -41t30.5 -27
q1 0 4 -1t7 -2q4 9 3 19q1 24 33 43z" />
    <glyph glyph-name="Gdotaccent" unicode="&#x120;" 
d="M558 83q6 -34 6 -50q0 -31 -14 -54q-12 -21 -33 -40.5t-41 -19.5q-45 0 -45 105l1 46q3 89 20 182q-22 -1 -27 -6t-8 -21q0 -11 -4 -24q-10 -40 -36 -77q-23 -33 -56 -55.5t-72 -30.5q-27 -5 -47 -5q-73 0 -125 44.5t-58 119.5q-1 8 -1 25q0 66 22 138.5t59 152.5
q76 165 178 250q31 26 68 42t71 16q30 0 54.5 -14t39.5 -44q20 -39 20 -87q0 -47 -18 -96.5t-48 -93.5q-14 -21 -38.5 -44.5t-44.5 -23.5q-12 0 -19 10q-7 8 -7 20q0 24 33 64l14 20q13 22 13 48q0 36 -22.5 64t-54.5 28q-23 0 -46 -17q-51 -37 -86 -116.5t-50 -158.5
q-5 -27 -5 -46q0 -64 37 -102.5t107 -36.5q-7 22 -14 30t-25 11q-6 1 -18.5 -2t-18.5 -3q-33 3 -33 29q0 10 5 27q11 34 32.5 51.5t47 23.5t65.5 10l30 4q7 1 34 7q6 1 39.5 8t62.5 7q58 0 66 -37q2 -12 2 -17q0 -20 -7 -48q-4 -25 -5 -33q-6 -49 -6 -100q0 -26 1 -38
q1 -14 5 -42zM291 870q-12 15 -9 33q2 10 8 19t13 17q7 9 17.5 14.5t26.5 11.5q1 0 1 1q32 14 55 14q19 0 33 -10q11 -9 14 -24l1 -10q0 -12 -4 -21q-10 -24 -43 -42q-33 -19 -67 -19l-11 1q-25 2 -35 15zM364 -1q39 0 34 -23q-20 -93 -80 -159q-15 -17 -42 -26.5t-50 -7.5
q-27 3 -27 21q0 10 10 23q43 51 58 119q4 19 25.5 32t46.5 19q10 2 25 2z" />
    <glyph glyph-name="gdotaccent" unicode="&#x121;" horiz-adv-x="515" 
d="M483 384q7 -63 7 -136q0 -81 -10 -155q-3 -20 -31 -35.5t-55 -15.5q-16 0 -25 6.5t-8 20.5q10 92 10 163q-31 -79 -84 -133.5t-123 -54.5q-15 0 -30 3q-65 11 -93 59.5t-28 119.5q0 70 23 152q18 62 53.5 119.5t86.5 94.5t112 37q52 0 76 -20t24 -53q0 -41 -30 -90.5
t-64 -75.5q-10 -7 -27 -11.5t-33 -4.5q-18 0 -29 5t-11 14q0 13 20 30q13 11 35.5 47.5t22.5 57.5q0 19 -21 19q-30 0 -71 -90q-23 -45 -34 -98q-14 -64 -14 -118q0 -97 53 -107q21 -3 41.5 31.5t35.5 81.5q-13 -7 -39 -19q-16 -7 -35 -7q-20 0 -30 10q-6 8 -6 15
q0 9 5.5 17.5t13.5 13.5q127 87 242 139q9 4 22 4q20 0 35 -9.5t12 -23.5q1 -1 1 -3zM224 716q-12 15 -9 33q2 10 8 19t13 17q7 9 17.5 14.5t26.5 11.5q1 0 1 1q32 14 55 14q19 0 33 -10q11 -9 14 -24l1 -10q0 -12 -4 -21q-10 -24 -43 -42q-33 -19 -67 -19l-11 1
q-25 2 -35 15z" />
    <glyph glyph-name="Gcommaaccent" unicode="&#x122;" horiz-adv-x="594" 
d="M558 83q6 -34 6 -50q0 -31 -14 -54q-12 -21 -33 -40.5t-41 -19.5q-45 0 -45 105l1 46q3 89 20 182q-22 -1 -27 -6t-8 -21q0 -11 -4 -24q-10 -40 -36 -77q-23 -33 -56 -55.5t-72 -30.5q-27 -5 -47 -5q-73 0 -125 44.5t-58 119.5q-1 8 -1 25q0 66 22 138.5t59 152.5
q76 165 178 250q31 26 68 42t71 16q30 0 54.5 -14t39.5 -44q20 -39 20 -87q0 -47 -18 -96.5t-48 -93.5q-14 -21 -38.5 -44.5t-44.5 -23.5q-12 0 -19 10q-7 8 -7 20q0 24 33 64l14 20q13 22 13 48q0 36 -22.5 64t-54.5 28q-23 0 -46 -17q-51 -37 -86 -116.5t-50 -158.5
q-5 -27 -5 -46q0 -64 37 -102.5t107 -36.5q-7 22 -14 30t-25 11q-6 1 -18.5 -2t-18.5 -3q-33 3 -33 29q0 10 5 27q11 34 32.5 51.5t47 23.5t65.5 10l30 4q7 1 34 7q6 1 39.5 8t62.5 7q58 0 66 -37q2 -12 2 -17q0 -20 -7 -48q-4 -25 -5 -33q-6 -49 -6 -100q0 -26 1 -38
q1 -14 5 -42zM326 -96q39 0 34 -23q-20 -93 -80 -159q-15 -17 -42 -26.5t-50 -7.5q-27 3 -27 21q0 10 10 23q43 51 58 119q4 19 25.5 32t46.5 19q10 2 25 2z" />
    <glyph glyph-name="uni0123" unicode="&#x123;" horiz-adv-x="498" 
d="M483 384q7 -63 7 -136q0 -81 -10 -155q-3 -20 -31 -35.5t-55 -15.5q-16 0 -25 6.5t-8 20.5q10 92 10 163q-31 -79 -84 -133.5t-123 -54.5q-15 0 -30 3q-65 11 -93 59.5t-28 119.5q0 70 23 152q18 62 53.5 119.5t86.5 94.5t112 37q52 0 76 -20t24 -53q0 -41 -30 -90.5
t-64 -75.5q-10 -7 -27 -11.5t-33 -4.5q-18 0 -29 5t-11 14q0 13 20 30q13 11 35.5 47.5t22.5 57.5q0 19 -21 19q-30 0 -71 -90q-23 -45 -34 -98q-14 -64 -14 -118q0 -97 53 -107q21 -3 41.5 31.5t35.5 81.5q-13 -7 -39 -19q-16 -7 -35 -7q-20 0 -30 10q-6 8 -6 15
q0 9 5.5 17.5t13.5 13.5q127 87 242 139q9 4 22 4q20 0 35 -9.5t12 -23.5q1 -1 1 -3zM203 706q0 12 11 23l20.5 20.5t28.5 31.5t20 29q11 22 35 34t52 14q14 2 30 -7t16 -22q0 -7 -4 -14q-53 -82 -114 -113q-32 -16 -60 -16q-12 0 -21 3q-14 4 -14 17z" />
    <glyph glyph-name="Hcircumflex" unicode="&#x124;" horiz-adv-x="500" 
d="M485 494q15 0 24 -11q10 -11 10 -31q0 -10 -4 -26q-5 -24 -19 -44.5t-33 -32.5q-12 -7 -24 -9.5t-30 -4.5l-7 -1h-3l3 -76q8 2 11 2q5 0 11 -2q17 -3 24 -18q6 -11 6 -27q0 -9 -2 -23q-1 -3 -1 -8q-4 -36 -13.5 -65t-28.5 -54q-44 -54 -84 -54q-7 0 -11 1q-23 5 -31.5 24
t-11.5 43q-8 61 -8 138l1 79v8l1 16l-39 -7q-30 -7 -54 -15l-8 -4q-12 -79 -15 -121q-2 -16 -2 -48q1 -4 1 -14q0 -9 -1 -14q0 -19 -10.5 -35.5t-27.5 -24.5q-13 -6 -28 -6q-27 0 -46 18q-22 21 -22 56l1 15q3 52 11.5 103.5t23.5 123.5q12 64 17 96q14 85 20 155q4 44 5 81
v4q1 21 4.5 35t15.5 26v0q17 17 42 17q26 0 43 -17t17 -48q0 -16 -1 -23l-1 -5l-6 -74q-3 -59 -10 -105q-2 -20 -8 -52q14 5 47 14l6 2q15 3 26 7q0 71 -1 106v2q0 89 2 133q3 68 51 102v0q17 12 35 12q16 0 27 -11q12 -15 12 -39q0 -10 -2 -26q-1 -4 -1 -11q-1 -11 -1 -35
q0 -18 2 -56l1 -28l1 -41l3 -84l77 10l7 1zM375 1000.5q23 -15.5 46 -27t30 -14.5q17 -8 17 -23q0 -9 -6.5 -19.5t-15.5 -17.5q-13 -11 -31.5 -17.5t-36.5 -6.5q-16 0 -27 4q-39 14 -71 33q-5 3 -18 16q-29 -26 -57 -44q-41 -26 -74 -26q-13 0 -21 4q-15 7 -15 19
q0 8 6.5 17t16.5 15q65 46 92 93q10 17 39 34t54 17q22 0 32 -15q17 -26 40 -41.5z" />
    <glyph glyph-name="hcircumflex" unicode="&#x125;" horiz-adv-x="416" 
d="M280 610q26 15 54 15q17 0 27 -6.5t9 -20.5q-2 -86 -4 -260l-5 -261q-1 -22 -27.5 -38t-54.5 -16q-18 0 -28.5 7.5t-10.5 22.5l4 164q-4 -1 -12 -1l-20 1q-7 1 -21 1q-7 0 -17 -2q-5 -100 -14 -170q-2 -21 -30.5 -37t-56.5 -16q-17 0 -26.5 7t-8.5 21q15 138 19 252l1 30
q3 87 3 115q0 90 -11 111q-16 -1 -24.5 5.5t-8.5 16.5t8 21t20 18q38 21 65 21q22 0 39 -14q26 -22 26 -92l-1 -50q3 -51 3 -103l-1 -59q6 2 19 0t20 -2t16 1.5t16 2.5l7 279q0 21 26 36zM318 845.5q23 -15.5 46 -27t30 -14.5q17 -8 17 -23q0 -9 -6.5 -19.5t-15.5 -17.5
q-13 -11 -31.5 -17.5t-36.5 -6.5q-16 0 -27 4q-39 14 -71 33q-5 3 -18 16q-29 -26 -57 -44q-41 -26 -74 -26q-13 0 -21 4q-15 7 -15 19q0 8 6.5 17t16.5 15q65 46 92 93q10 17 39 34t54 17q22 0 32 -15q17 -26 40 -41.5z" />
    <glyph glyph-name="Hbar" unicode="&#x126;" horiz-adv-x="537" 
d="M485 494q15 0 24 -11q10 -11 10 -31q0 -10 -4 -26q-5 -24 -19 -44.5t-33 -32.5q-12 -7 -24 -9.5t-30 -4.5l-7 -1h-3l3 -76q8 2 11 2q5 0 11 -2q17 -3 24 -18q6 -11 6 -27q0 -9 -2 -23q-1 -3 -1 -8q-4 -36 -13.5 -65t-28.5 -54q-44 -54 -84 -54q-7 0 -11 1q-23 5 -31.5 24
t-11.5 43q-8 61 -8 138l1 79v8l1 16l-39 -7q-30 -7 -54 -15l-8 -4q-12 -79 -15 -121q-2 -16 -2 -48q1 -4 1 -14q0 -9 -1 -14q0 -19 -10.5 -35.5t-27.5 -24.5q-13 -6 -28 -6q-27 0 -46 18q-22 21 -22 56l1 15q3 52 11.5 103.5t23.5 123.5q12 64 17 96q14 85 20 155q4 44 5 81
v4q1 21 4.5 35t15.5 26v0q17 17 42 17q26 0 43 -17t17 -48q0 -16 -1 -23l-1 -5l-6 -74q-3 -59 -10 -105q-2 -20 -8 -52q14 5 47 14l6 2q15 3 26 7q0 71 -1 106v2q0 89 2 133q3 68 51 102v0q17 12 35 12q16 0 27 -11q12 -15 12 -39q0 -10 -2 -26q-1 -4 -1 -11q-1 -11 -1 -35
q0 -18 2 -56l1 -28l1 -41l3 -84l77 10l7 1zM35 545q-34 0 -35 25q-1 20 27 35t54 21q38 10 77 13t88 3q42 0 63 -1l62 -1q62 0 115 7q4 1 12 1q17 0 26.5 -8t6.5 -24q-3 -18 -29 -32t-50 -19q-49 -12 -112 -12q-29 0 -50 1t-36 2q-42 3 -84 3q-61 0 -105 -10q-16 -4 -30 -4z
" />
    <glyph glyph-name="hbar" unicode="&#x127;" horiz-adv-x="411" 
d="M280 610q26 15 54 15q17 0 27 -6.5t9 -20.5q-2 -86 -4 -260l-5 -261q-1 -22 -27.5 -38t-54.5 -16q-18 0 -28.5 7.5t-10.5 22.5l4 164q-4 -1 -12 -1l-20 1q-7 1 -21 1q-7 0 -17 -2q-5 -100 -14 -170q-2 -21 -30.5 -37t-56.5 -16q-17 0 -26.5 7t-8.5 21q15 138 19 252l1 30
q3 87 3 115q0 90 -11 111q-16 -1 -24.5 5.5t-8.5 16.5t8 21t20 18q38 21 65 21q22 0 39 -14q26 -22 26 -92l-1 -50q3 -51 3 -103l-1 -59q6 2 19 0t20 -2t16 1.5t16 2.5l7 279q0 21 26 36zM-36.5 452.5q-5.5 4.5 -5.5 10.5q0 8 8 18q12 13 31.5 19.5t38.5 6.5q58 -2 89 -2
t61 3q19 8 36 8q23 0 27 -16q1 -1 1 -3t1 -3q4 -14 -7 -27t-28 -20t-30 -5q-44 2 -132 4q-26 0 -76 2q-9 0 -14.5 4.5z" />
    <glyph glyph-name="Itilde" unicode="&#x128;" horiz-adv-x="316" 
d="M197 162q0 -25 -12.5 -55.5t-33.5 -52t-44 -21.5q-19 0 -25.5 18.5t-6.5 47.5q0 85 11 219q0 11 2 31q1 15 5 45q1 10 4 42.5t3 59.5q0 24 -3 46l-3 22q-4 22 -4 32q0 29 14.5 58t38.5 47q19 13 32 13q30 0 30 -74l-1 -34v-109q0 -72 -1 -108q-1 -22 -5 -68
q-1 -13 -3 -43t-2 -54q0 -25 3 -51zM288.5 910q23.5 18 46.5 18q14 0 22.5 -8t8.5 -25q1 -41 -22 -70t-56.5 -44t-64.5 -15q-9 0 -13 1q-30 3 -78 22q-25 9 -32 11l-36 9l-4 -12q-4 -20 -30 -36t-49 -16q-25 0 -21 20q11 59 43 97t78 41q13 0 66 -16q10 -3 49 -13t56 -10
q12 0 12 5q1 23 24.5 41z" />
    <glyph glyph-name="itilde" unicode="&#x129;" horiz-adv-x="308" 
d="M213 136q0 -25 -12.5 -55.5t-33.5 -52t-44 -21.5q-19 0 -25.5 18.5t-6.5 47.5q0 38 1 64l1 118q0 104 -5 140l-3 22q-4 22 -4 32q0 29 14.5 58.5t38.5 46.5q19 13 32 13q30 0 30 -74l-1 -34q0 -62 5 -163t12 -149zM285.5 763q23.5 18 46.5 18q14 0 22.5 -8t8.5 -25
q1 -41 -22 -70t-56.5 -44t-64.5 -15q-9 0 -13 1q-30 3 -78 22q-25 9 -32 11l-36 9l-4 -12q-4 -20 -30 -36t-49 -16q-25 0 -21 20q11 59 43 97t78 41q13 0 66 -16q10 -3 49 -13t56 -10q12 0 12 5q1 23 24.5 41z" />
    <glyph glyph-name="Imacron" unicode="&#x12a;" horiz-adv-x="451" 
d="M253 162q0 -25 -12.5 -55.5t-33.5 -52t-44 -21.5q-19 0 -25.5 18.5t-6.5 47.5q0 85 11 219q0 11 2 31q1 15 5 45q1 10 4 42.5t3 59.5q0 24 -3 46l-3 22q-4 22 -4 32q0 29 14.5 58t38.5 47q19 13 32 13q30 0 30 -74l-1 -34v-109q0 -72 -1 -108q-1 -22 -5 -68
q-1 -13 -3 -43t-2 -54q0 -25 3 -51zM37 800.5q-7 5.5 -7 14.5q0 10 11 23q15 18 41 26.5t52 8.5q76 -2 118 -2t82 3q25 11 47 11q14 0 24 -5.5t13 -15.5l2 -8q1 -3 1 -9q0 -17 -15 -32t-36 -23t-37 -6q-59 4 -176 6q-34 0 -100 2q-13 1 -20 6.5z" />
    <glyph glyph-name="imacron" unicode="&#x12b;" horiz-adv-x="451" 
d="M282 136q0 -25 -12.5 -55.5t-33.5 -52t-44 -21.5q-19 0 -25.5 18.5t-6.5 47.5q0 38 1 64l1 118q0 104 -5 140l-3 22q-4 22 -4 32q0 29 14.5 58.5t38.5 46.5q19 13 32 13q30 0 30 -74l-1 -34q0 -62 5 -163t12 -149zM37 676.5q-7 5.5 -7 14.5q0 10 11 23q15 18 41 26.5
t52 8.5q76 -2 118 -2t82 3q25 11 47 11q14 0 24 -5.5t13 -15.5l2 -8q1 -3 1 -9q0 -17 -15 -32t-36 -23t-37 -6q-59 4 -176 6q-34 0 -100 2q-13 1 -20 6.5z" />
    <glyph glyph-name="Ibreve" unicode="&#x12c;" horiz-adv-x="180" 
d="M127 162q0 -25 -12.5 -55.5t-33.5 -52t-44 -21.5q-19 0 -25.5 18.5t-6.5 47.5q0 85 11 219q0 11 2 31q1 15 5 45q1 10 4 42.5t3 59.5q0 24 -3 46l-3 22q-4 22 -4 32q0 29 14.5 58t38.5 47q19 13 32 13q30 0 30 -74l-1 -34v-109q0 -72 -1 -108q-1 -22 -5 -68
q-1 -13 -3 -43t-2 -54q0 -25 3 -51zM141 934q32 19 65 19q20 0 32 -8t12 -25q0 -40 -27.5 -70t-68.5 -46.5t-79 -19.5q-59 -4 -101.5 25t-67.5 84q-6 14 9.5 29.5t42 26t48.5 10.5q27 0 34 -16q11 -24 23.5 -41t30.5 -27q1 0 4 -1t7 -2q4 9 3 19q1 24 33 43z" />
    <glyph glyph-name="ibreve" unicode="&#x12d;" 
d="M354 136q0 -25 -12.5 -55.5t-33.5 -52t-44 -21.5q-19 0 -25.5 18.5t-6.5 47.5q0 38 1 64l1 118q0 104 -5 140l-3 22q-4 22 -4 32q0 29 14.5 58.5t38.5 46.5q19 13 32 13q30 0 30 -74l-1 -34q0 -62 5 -163t12 -149zM360 786q32 19 65 19q20 0 32 -8t12 -25
q0 -40 -27.5 -70t-68.5 -46.5t-79 -19.5q-59 -4 -101.5 25t-67.5 84q-6 14 9.5 29.5t42 26t48.5 10.5q27 0 34 -16q11 -24 23.5 -41t30.5 -27q1 0 4 -1t7 -2q4 9 3 19q1 24 33 43z" />
    <glyph glyph-name="Iogonek" unicode="&#x12e;" horiz-adv-x="149" 
d="M44 762q0 5 2 17q7 30 27.5 56.5t47.5 42.5q21 12 42 12q22 0 34 -15q9 -12 9 -29q0 -15 -9 -38q-10 -28 -30.5 -51t-46.5 -35q-21 -10 -37 -7q-15 2 -22 9q-17 12 -17 38zM146 147q0 -7 -2.5 -16t-3.5 -13l-2 -6q-10 -37 -36 -70t-65 -33q-4 0 -6 1q-16 2 -26 12
q-15 18 -15 56q0 14 2 32q-1 3 -0.5 6.5t0.5 4.5q3 71 21 193l4 31q10 68 13 102l4 45q0 7 1 11q2 14 1 18q-1 1 -1 2.5t-1 2.5q-6 8 -6 21q0 16 3 32q1 3 1 10q7 46 39 79q33 33 62 33q11 0 21 -5q25 -13 25 -55q-2 -28 -2 -42l-1 -26l-3 -55q-1 -52 -6 -106
q-1 -20 -12 -132l-3 -31l-2 -20l-6 -55q-1 -4 -0.5 -6.5t0.5 -5.5q2 -5 1 -8zM54.5 20q-6.5 -10 -4.5 -23q1 -13 16 -22q7 0 10 -1q10 -2 19.5 -7.5t10.5 -13.5v-1q1 -4 1 -10q0 -19 -13.5 -31.5t-37.5 -24.5q-15 -8 -34 -8q-27 0 -55 18q-19 11 -31 22.5t-17 26.5
q-3 10 -3 19q0 41 49 84q18 17 43.5 26.5t49.5 8.5q12 -1 19 -7t7 -14q0 -10 -11 -21q-12 -11 -18.5 -21z" />
    <glyph glyph-name="iogonek" unicode="&#x12f;" 
d="M323.5 -17q-6.5 -10 -4.5 -23q1 -13 16 -22q7 0 10 -1q10 -2 19.5 -7.5t10.5 -13.5v-1q1 -4 1 -10q0 -19 -13.5 -31.5t-37.5 -24.5q-15 -8 -34 -8q-27 0 -55 18q-19 11 -31 22.5t-17 26.5q-3 10 -3 19q0 41 49 84q18 17 43.5 26.5t49.5 8.5q12 -1 19 -7t7 -14
q0 -10 -11 -21q-12 -11 -18.5 -21zM311 608.5q28 15.5 56 15.5q16 0 26 -6.5t9 -20.5l-29 -543q-1 -21 -29 -36.5t-56 -15.5q-37 0 -36 29l30 542q1 20 29 35.5zM287.5 684q9.5 -7 25.5 -7q27 0 55 15t31 36q8 50 11 75q4 25 -31 25q-27 0 -56 -15t-31 -34l-12 -74
q-2 -14 7.5 -21z" />
    <glyph glyph-name="Idotaccent" unicode="&#x130;" horiz-adv-x="171" 
d="M127 162q0 -25 -12.5 -55.5t-33.5 -52t-44 -21.5q-19 0 -25.5 18.5t-6.5 47.5q0 85 11 219q0 11 2 31q1 15 5 45q1 10 4 42.5t3 59.5q0 24 -3 46l-3 22q-4 22 -4 32q0 29 14.5 58t38.5 47q19 13 32 13q30 0 30 -74l-1 -34v-109q0 -72 -1 -108q-1 -22 -5 -68
q-1 -13 -3 -43t-2 -54q0 -25 3 -51zM11 793q-12 15 -9 33q2 10 8 19t13 17q7 9 17.5 14.5t26.5 11.5q1 0 1 1q32 14 55 14q19 0 33 -10q11 -9 14 -24l1 -10q0 -12 -4 -21q-10 -24 -43 -42q-33 -19 -67 -19l-11 1q-25 2 -35 15z" />
    <glyph glyph-name="dotlessi" unicode="&#x131;" horiz-adv-x="185" 
d="M27 80q0 4 4 16q-8 74 -8 195l1 100q1 33 1 99q0 94 -5 160q0 16 16 30t40 22t43 8q26 0 27 -14q5 -72 5 -173l-1 -158q0 -153 15 -263q2 -17 -11 -33t-34.5 -26t-42.5 -10q-30 0 -42 22l-6 15q-2 3 -2 10z" />
    <glyph glyph-name="Jcircumflex" unicode="&#x134;" 
d="M632.5 853.5q5.5 -10.5 6.5 -21.5q0 -24 -10 -44q-12 -29 -33.5 -51t-48.5 -25q-50 -7 -70 -10q22 -61 31 -118q12 -67 13 -88q2 -28 2 -43q0 -14 -2 -44q-6 -111 -24 -176q-15 -54 -31 -85q-14 -30 -26 -49.5t-28 -34.5l-28 -26l-19 -11q-12 -9 -28 -9q-6 -2 -10 -2
q-39 2 -72 18q-26 14 -49 32.5t-56 48.5l-107 96q-13 12 -13 33q0 29 24 66q25 38 54 50q8 4 16 4q9 0 16 -4l78 -74l24 -22q38 -35 65.5 -56t59.5 -33q2 -1 6 -1q6 14 8 22q11 36 21 110q5 48 5 87q0 23 -1 34l-2 21q-6 62 -12 94q-14 66 -42 118q-4 7 -4 19l-14 -2
q-88 -22 -132 -34q-3 -1 -6.5 -2t-8.5 -1q-13 0 -20 13q-3 9 -3 18q0 5 2 15q6 32 32 60q14 15 32 23q64 18 96 28q22 7 29 8q36 11 58 16q101 23 201 42l4 1q11 0 16.5 -10.5zM489 970.5q23 -15.5 46 -27t30 -14.5q17 -8 17 -23q0 -9 -6.5 -19.5t-15.5 -17.5
q-13 -11 -31.5 -17.5t-36.5 -6.5q-16 0 -27 4q-39 14 -71 33q-5 3 -18 16q-29 -26 -57 -44q-41 -26 -74 -26q-13 0 -21 4q-15 7 -15 19q0 8 6.5 17t16.5 15q65 46 92 93q10 17 39 34t54 17q22 0 32 -15q17 -26 40 -41.5z" />
    <glyph glyph-name="jcircumflex" unicode="&#x135;" horiz-adv-x="269" 
d="M225 291q0 -137 -26.5 -267t-80.5 -246q-7 -16 -35 -28.5t-53 -12.5q-19 0 -28 9q-93 34 -183 155q-6 7 -6 17q0 21 28.5 38.5t56.5 17.5q22 0 30 -12q41 -60 102 -106q72 219 72 440q0 151 -32 291q-4 16 8.5 30.5t33.5 23.5t40 9q13 0 22.5 -5.5t11.5 -15.5
q39 -168 39 -338zM237 886.5q23 -15.5 46 -27t30 -14.5q17 -8 17 -23q0 -9 -6.5 -19.5t-15.5 -17.5q-13 -11 -31.5 -17.5t-36.5 -6.5q-16 0 -27 4q-39 14 -71 33q-5 3 -18 16q-29 -26 -57 -44q-41 -26 -74 -26q-13 0 -21 4q-15 7 -15 19q0 8 6.5 17t16.5 15q65 46 92 93
q10 17 39 34t54 17q22 0 32 -15q17 -26 40 -41.5z" />
    <glyph glyph-name="uni0136" unicode="&#x136;" 
d="M364 -59q39 0 34 -23q-20 -93 -80 -159q-15 -17 -42 -26.5t-50 -7.5q-27 3 -27 21q0 10 10 23q43 51 58 119q4 19 25.5 32t46.5 19q10 2 25 2zM589 229q0 -29 -26 -63.5t-52.5 -58.5t-67.5 -58q-28 -24 -61 -24q-25 0 -41 17t-16 50q0 24 6.5 52.5t18.5 69.5l11 39
q17 71 40 173q-8 -4 -59 -35l-82 -47q-12 -6 -18 -10q-23 -11 -36 -20q-14 -10 -16.5 -14t-3.5 -12.5t-2 -15.5l-5 -37q-3 -40 -10 -74l2 10q-1 -6 -3 -19.5t-4 -21.5q-9 -34 -19 -54t-25 -38t-33 -29q-19 -11 -30 -11q-14 0 -20.5 13t-6.5 32q0 17 3 30q-1 -6 12 56
q10 41 14.5 67t4.5 49q0 10 -2 26q-5 25 -5 35q0 15 10 42q7 18 10 35.5t5 34t3 22.5q8 68 8 154l-1 89q0 17 -1 30.5t-2 22.5q-4 38 -4 56q0 32 7.5 58t27.5 47q32 34 56 34q12 0 20 -11q9 -13 9 -47q0 -18 -1 -27q0 -6 -0.5 -13.5t0.5 -15.5q8 -115 8 -217v-32
q38 47 81 93t103 106q26 26 47.5 42t42.5 13q24 -4 24 -29q0 -20 -14 -46q-18 -34 -46 -65t-75 -76l-48 -47l-28 -27q-36 -33 -57.5 -58t-26.5 -51l176 112q31 21 63 21q31 0 49 -21.5t14 -61.5q-5 -50 -27 -147l-16 -77q10 15 25.5 24t32.5 9q19 0 33 -10q24 -17 24 -43z
" />
    <glyph glyph-name="uni0137" unicode="&#x137;" horiz-adv-x="455" 
d="M276 -59q39 0 34 -23q-20 -93 -80 -159q-15 -17 -42 -26.5t-50 -7.5q-27 3 -27 21q0 10 10 23q43 51 58 119q4 19 25.5 32t46.5 19q10 2 25 2zM430 263q17 -125 25 -175q4 -25 -22 -44t-55 -19q-17 0 -28 7.5t-13 23.5l-8 65q-14 110 -23 165q-5 32 -14 53.5t-29 32.5
q-13 6 -30 6q-21 0 -47 -7q-18 -150 -59 -307q-5 -21 -35.5 -36.5t-58.5 -15.5q-18 0 -27 6.5t-5 20.5q44 158 63 316q-20 0 -35 7.5t-15 19.5q0 14 20 28l39 28q8 89 8 202q0 64 -3 128q-1 20 26 36t56 16q16 0 26.5 -6.5t11.5 -20.5q4 -68 4 -151q0 -72 -2 -107
q36 32 70 67l30 29q14 13 32 21.5t36 8.5q11 0 24 -5.5t13 -15.5q0 -6 -4 -11q-61 -86 -178 -177q33 7 59 7q73 0 109 -48q16 -21 22.5 -45.5t9.5 -48.5t4 -33z" />
    <glyph glyph-name="kgreenlandic" unicode="&#x138;" horiz-adv-x="480" 
d="M428 107l10 -52q3 -16 -19.5 -28t-47.5 -12q-32 0 -36 20q-6 36 -8 50q-10 66 -19 98q-7 27 -19 43t-44 16q-11 0 -24 -2t-18 -3q-14 -92 -51 -197q-5 -14 -31.5 -23.5t-51.5 -9.5q-15 0 -23 4.5t-4 12.5q35 91 55 203q-18 0 -30.5 4.5t-12.5 12.5t17 18l34 18
q7 77 7 131q0 41 -3 81q-1 13 23 23t49 10q32 0 33 -17q3 -51 3 -100q0 -44 -2 -66q19 13 48 34q7 5 17 12t23 16q29 19 57 19q12 0 26 -5t5 -15q-50 -55 -156 -114q23 4 52 4q64 0 95 -30q14 -13 19.5 -29.5t8 -32t3.5 -20.5q6 -38 15 -74z" />
    <glyph glyph-name="Lacute" unicode="&#x139;" horiz-adv-x="480" 
d="M404.5 82q-18.5 -26 -40 -44.5t-39.5 -18.5q-11 0 -21 7q-9 6 -13 20t-8 38q-6 36 -15.5 53.5t-32.5 13.5q-15 -3 -34 -20t-34 -33t-21 -22l-20 -19q-15 -16 -26 -26t-24 -16q-15 -7 -27 -7q-26 0 -26 42q0 21 4 45t5 28q44 334 71 517q11 69 29.5 121t61.5 64q10 2 13 2
q16 0 23 -11.5t7 -30.5q0 -18 -6 -37t-14 -30v-13q0 -15 -3.5 -34t-4.5 -27l-18 -130l-41 -297q39 35 73 58t67 23q45 0 67 -38t38 -97q15 16 28 16q9 0 14 -8t5 -20q0 -22 -14 -37q-5 -6 -23.5 -32zM156 930q0 12 11 23l20.5 20.5t28.5 31.5t20 29q11 22 35 34t52 14
q14 2 30 -7t16 -22q0 -7 -4 -14q-53 -82 -114 -113q-32 -16 -60 -16q-12 0 -21 3q-14 4 -14 17z" />
    <glyph glyph-name="lacute" unicode="&#x13a;" horiz-adv-x="310" 
d="M163 862.5q30 15.5 57 15.5q32 0 31 -24q-16 -179 -53 -494q-24 -215 -31 -279q-2 -21 -31.5 -37.5t-57.5 -16.5q-39 0 -36 29q35 344 89 772q2 19 32 34.5zM152 991q0 12 11 23l20.5 20.5t28.5 31.5t20 29q11 22 35 34t52 14q14 2 30 -7t16 -22q0 -7 -4 -14
q-53 -82 -114 -113q-32 -16 -60 -16q-12 0 -21 3q-14 4 -14 17z" />
    <glyph glyph-name="uni013B" unicode="&#x13b;" horiz-adv-x="419" 
d="M241 -59q39 0 34 -23q-20 -93 -80 -159q-15 -17 -42 -26.5t-50 -7.5q-27 3 -27 21q0 10 10 23q43 51 58 119q4 19 25.5 32t46.5 19q10 2 25 2zM381.5 82q-18.5 -26 -40 -44.5t-39.5 -18.5q-11 0 -21 7q-9 6 -13 20t-8 38q-6 36 -15.5 53.5t-32.5 13.5q-15 -3 -34 -20
t-34 -33t-21 -22l-20 -19q-15 -16 -26 -26t-24 -16q-15 -7 -27 -7q-26 0 -26 42q0 21 4 45t5 28q44 334 71 517q11 69 29.5 121t61.5 64q10 2 13 2q16 0 23 -11.5t7 -30.5q0 -18 -6 -37t-14 -30v-13q0 -15 -3.5 -34t-4.5 -27l-18 -130l-41 -297q39 35 73 58t67 23
q45 0 67 -38t38 -97q15 16 28 16q9 0 14 -8t5 -20q0 -22 -14 -37q-5 -6 -23.5 -32z" />
    <glyph glyph-name="uni013C" unicode="&#x13c;" horiz-adv-x="250" 
d="M165 -59q39 0 34 -23q-20 -93 -80 -159q-15 -17 -42 -26.5t-50 -7.5q-27 3 -27 21q0 10 10 23q43 51 58 119q4 19 25.5 32t46.5 19q10 2 25 2zM162 862.5q30 15.5 57 15.5q32 0 31 -24q-16 -179 -53 -494q-24 -215 -31 -279q-2 -21 -31.5 -37.5t-57.5 -16.5q-39 0 -36 29
q35 344 89 772q2 19 32 34.5z" />
    <glyph glyph-name="Lcaron" unicode="&#x13d;" horiz-adv-x="450" 
d="M404.5 82q-18.5 -26 -40 -44.5t-39.5 -18.5q-11 0 -21 7q-9 6 -13 20t-8 38q-6 36 -15.5 53.5t-32.5 13.5q-15 -3 -34 -20t-34 -33t-21 -22l-20 -19q-15 -16 -26 -26t-24 -16q-15 -7 -27 -7q-26 0 -26 42q0 21 4 45t5 28q44 334 71 517q11 69 29.5 121t61.5 64q10 2 13 2
q16 0 23 -11.5t7 -30.5q0 -18 -6 -37t-14 -30v-13q0 -15 -3.5 -34t-4.5 -27l-18 -130l-41 -297q39 35 73 58t67 23q45 0 67 -38t38 -97q15 16 28 16q9 0 14 -8t5 -20q0 -22 -14 -37q-5 -6 -23.5 -32zM280 551q0 4 2 12q1 10 8 22q20 60 20 111q0 15 -4 43q-2 16 15 36.5
t42 35.5t42 15q15 0 18 -14q4 -24 4 -55q0 -33 -4 -60q-6 -58 -14 -93q0 -11 -6 -23q-15 -35 -54 -54q-18 -8 -34 -8q-23 0 -30 17q-5 7 -5 15z" />
    <glyph glyph-name="lcaron" unicode="&#x13e;" horiz-adv-x="520" 
d="M163 862.5q30 15.5 57 15.5q32 0 31 -24q-16 -179 -53 -494q-24 -215 -31 -279q-2 -21 -31.5 -37.5t-57.5 -16.5q-39 0 -36 29q35 344 89 772q2 19 32 34.5zM318 568q0 4 2 12q1 10 8 22q20 60 20 111q0 15 -4 43q-2 16 15 36.5t42 35.5t42 15q15 0 18 -14q4 -24 4 -55
q0 -33 -4 -60q-6 -58 -14 -93q0 -11 -6 -23q-15 -35 -54 -54q-18 -8 -34 -8q-23 0 -30 17q-5 7 -5 15z" />
    <glyph glyph-name="Ldot" unicode="&#x13f;" horiz-adv-x="442" 
d="M404.5 82q-18.5 -26 -40 -44.5t-39.5 -18.5q-11 0 -21 7q-9 6 -13 20t-8 38q-6 36 -15.5 53.5t-32.5 13.5q-15 -3 -34 -20t-34 -33t-21 -22l-20 -19q-15 -16 -26 -26t-24 -16q-15 -7 -27 -7q-26 0 -26 42q0 21 4 45t5 28q44 334 71 517q11 69 29.5 121t61.5 64q10 2 13 2
q16 0 23 -11.5t7 -30.5q0 -18 -6 -37t-14 -30v-13q0 -15 -3.5 -34t-4.5 -27l-18 -130l-41 -297q39 35 73 58t67 23q45 0 67 -38t38 -97q15 16 28 16q9 0 14 -8t5 -20q0 -22 -14 -37q-5 -6 -23.5 -32zM214 432q0 7 6 14t7 8q13 14 43 26q20 9 42 9q23 0 34 -15v1v-1
q7 -9 23.5 -24t31.5 -26q8 -5 8 -15t-10 -21t-21 -19q-21 -13 -42 -17q-9 -3 -24 -3q-13 0 -21 4q-38 20 -75 73q-2 4 -2 6z" />
    <glyph glyph-name="ldot" unicode="&#x140;" horiz-adv-x="490" 
d="M163 862.5q30 15.5 57 15.5q32 0 31 -24q-16 -179 -53 -494q-24 -215 -31 -279q-2 -21 -31.5 -37.5t-57.5 -16.5q-39 0 -36 29q35 344 89 772q2 19 32 34.5zM270 425q0 7 6 14t7 8q13 14 43 26q20 9 42 9q23 0 34 -15v1v-1q7 -9 23.5 -24t31.5 -26q8 -5 8 -15t-10 -21
t-21 -19q-21 -13 -42 -17q-9 -3 -24 -3q-13 0 -21 4q-38 20 -75 73q-2 4 -2 6z" />
    <glyph glyph-name="Lslash" unicode="&#x141;" horiz-adv-x="462" 
d="M404.5 82q-18.5 -26 -40 -44.5t-39.5 -18.5q-11 0 -21 7q-9 6 -13 20t-8 38q-6 36 -15.5 53.5t-32.5 13.5q-15 -3 -34 -20t-34 -33t-21 -22l-20 -19q-15 -16 -26 -26t-24 -16q-15 -7 -27 -7q-26 0 -26 42q0 21 4 45t5 28q44 334 71 517q11 69 29.5 121t61.5 64q10 2 13 2
q16 0 23 -11.5t7 -30.5q0 -18 -6 -37t-14 -30v-13q0 -15 -3.5 -34t-4.5 -27l-18 -130l-41 -297q39 35 73 58t67 23q45 0 67 -38t38 -97q15 16 28 16q9 0 14 -8t5 -20q0 -22 -14 -37q-5 -6 -23.5 -32zM303 602q23 0 46.5 -10.5t23.5 -22.5q0 -4 -4 -7q-161 -171 -354 -288
q-7 -4 -19 -4q-23 0 -46.5 11t-23.5 23q0 7 9 13q194 121 343 278q7 7 25 7z" />
    <glyph glyph-name="lslash" unicode="&#x142;" horiz-adv-x="429" 
d="M233 862.5q30 15.5 57 15.5q32 0 31 -24q-16 -179 -53 -494q-24 -215 -31 -279q-2 -21 -31.5 -37.5t-57.5 -16.5q-39 0 -36 29q35 344 89 772q2 19 32 34.5zM354 633q20 0 43.5 -12t23.5 -23q0 -5 -4 -8q-166 -147 -346 -234q-6 -3 -13 -3q-19 0 -42.5 12t-23.5 24
q0 8 9 12q188 96 335 226q6 6 18 6z" />
    <glyph glyph-name="Nacute" unicode="&#x143;" horiz-adv-x="484" 
d="M202 847h3q16 0 21 -14q6 -11 8 -30q2 -10 2 -14q14 -49 25.5 -85.5t19.5 -61.5q8 -27 25 -81.5t29 -96.5q4 -13 5 -17q0 28 -2 84l-1 42l-1 26q-1 41 -3.5 68t-9.5 53q0 26 8 46l12 26q11 21 33 42q16 14 35 17q17 0 26 -15q15 -39 17 -85q0 -28 1 -41q0 -52 1 -77
q0 -55 -2 -163q0 -55 -6 -163l-1 -21q-1 -11 -2.5 -38t-4.5 -48q-9 -67 -22 -106q-11 -29 -20 -45q-10 -19 -34 -41q-17 -15 -33 -15q-6 0 -12 3q-16 8 -27 42q-9 28 -18 66q-6 28 -8 42q-11 56 -16 76q-11 56 -37 166q-33 -204 -102 -338q-7 -15 -19.5 -28t-25.5 -19
q-7 -4 -16 -4q-8 0 -12 2q-13 9 -13 31q0 9 1 13q5 25 16 44l2 4q18 41 32 90q16 67 25 138t16 162q2 50 2 73l-1 52q0 18 -1 28q0 7 -0.5 17.5t0.5 24.5q0 34 1.5 53.5t8.5 37.5q16 41 42 63q15 12 33 15zM206 837q0 12 11 23l20.5 20.5t28.5 31.5t20 29q11 22 35 34t52 14
q14 2 30 -7t16 -22q0 -7 -4 -14q-53 -82 -114 -113q-32 -16 -60 -16q-12 0 -21 3q-14 4 -14 17z" />
    <glyph glyph-name="nacute" unicode="&#x144;" horiz-adv-x="456" 
d="M377 263q0 -78 6 -158q2 -6 2 -10q0 -3 -2 -9q0 -1 -0.5 -1h-0.5v-2q-6 -17 -28 -29.5t-47 -14.5q-40 -4 -48 21q-35 94 -111 260l-12 28q-8 -125 -10 -267q0 -21 -28 -37.5t-57 -16.5q-18 0 -29 7t-10 23q6 272 39 515l1 4q-2 22 27 40t58 18q30 0 37 -20
q32 -87 95 -224q6 94 21 191q3 20 32 35.5t57 15.5q36 0 32 -26q-24 -182 -24 -343zM211 778q0 12 11 23l20.5 20.5t28.5 31.5t20 29q11 22 35 34t52 14q14 2 30 -7t16 -22q0 -7 -4 -14q-53 -82 -114 -113q-32 -16 -60 -16q-12 0 -21 3q-14 4 -14 17z" />
    <glyph glyph-name="uni0145" unicode="&#x145;" horiz-adv-x="455" 
d="M295 -59q39 0 34 -23q-20 -93 -80 -159q-15 -17 -42 -26.5t-50 -7.5q-27 3 -27 21q0 10 10 23q43 51 58 119q4 19 25.5 32t46.5 19q10 2 25 2zM188 847h3q16 0 21 -14q6 -11 8 -30q2 -10 2 -14q14 -49 25.5 -85.5t19.5 -61.5q8 -27 25 -81.5t29 -96.5q4 -13 5 -17
q0 28 -2 84l-1 42l-1 26q-1 41 -3.5 68t-9.5 53q0 26 8 46l12 26q11 21 33 42q16 14 35 17q17 0 26 -15q15 -39 17 -85q0 -28 1 -41q0 -52 1 -77q0 -55 -2 -163q0 -55 -6 -163l-1 -21q-1 -11 -2.5 -38t-4.5 -48q-9 -67 -22 -106q-11 -29 -20 -45q-10 -19 -34 -41
q-17 -15 -33 -15q-6 0 -12 3q-16 8 -27 42q-9 28 -18 66q-6 28 -8 42q-11 56 -16 76q-11 56 -37 166q-33 -204 -102 -338q-7 -15 -19.5 -28t-25.5 -19q-7 -4 -16 -4q-8 0 -12 2q-13 9 -13 31q0 9 1 13q5 25 16 44l2 4q18 41 32 90q16 67 25 138t16 162q2 50 2 73l-1 52
q0 18 -1 28q0 7 -0.5 17.5t0.5 24.5q0 34 1.5 53.5t8.5 37.5q16 41 42 63q15 12 33 15z" />
    <glyph glyph-name="uni0146" unicode="&#x146;" horiz-adv-x="399" 
d="M241 -59q39 0 34 -23q-20 -93 -80 -159q-15 -17 -42 -26.5t-50 -7.5q-27 3 -27 21q0 10 10 23q43 51 58 119q4 19 25.5 32t46.5 19q10 2 25 2zM375 263q0 -78 6 -158q2 -6 2 -10q0 -3 -2 -9q0 -1 -0.5 -1h-0.5v-2q-6 -17 -28 -29.5t-47 -14.5q-40 -4 -48 21
q-35 94 -111 260l-12 28q-8 -125 -10 -267q0 -21 -28 -37.5t-57 -16.5q-18 0 -29 7t-10 23q6 272 39 515l1 4q-2 22 27 40t58 18q30 0 37 -20q32 -87 95 -224q6 94 21 191q3 20 32 35.5t57 15.5q36 0 32 -26q-24 -182 -24 -343z" />
    <glyph glyph-name="Ncaron" unicode="&#x147;" horiz-adv-x="484" 
d="M202 847h3q16 0 21 -14q6 -11 8 -30q2 -10 2 -14q14 -49 25.5 -85.5t19.5 -61.5q8 -27 25 -81.5t29 -96.5q4 -13 5 -17q0 28 -2 84l-1 42l-1 26q-1 41 -3.5 68t-9.5 53q0 26 8 46l12 26q11 21 33 42q16 14 35 17q17 0 26 -15q15 -39 17 -85q0 -28 1 -41q0 -52 1 -77
q0 -55 -2 -163q0 -55 -6 -163l-1 -21q-1 -11 -2.5 -38t-4.5 -48q-9 -67 -22 -106q-11 -29 -20 -45q-10 -19 -34 -41q-17 -15 -33 -15q-6 0 -12 3q-16 8 -27 42q-9 28 -18 66q-6 28 -8 42q-11 56 -16 76q-11 56 -37 166q-33 -204 -102 -338q-7 -15 -19.5 -28t-25.5 -19
q-7 -4 -16 -4q-8 0 -12 2q-13 9 -13 31q0 9 1 13q5 25 16 44l2 4q18 41 32 90q16 67 25 138t16 162q2 50 2 73l-1 52q0 18 -1 28q0 7 -0.5 17.5t0.5 24.5q0 34 1.5 53.5t8.5 37.5q16 41 42 63q15 12 33 15zM141 979q0 11 14.5 23.5t26.5 18.5q32 18 61 18q18 0 29 -8
q24 -16 44 -37q51 31 100 30q21 0 33.5 -9t12.5 -22q0 -19 -21 -36q-13 -11 -34 -24q-18 -11 -30.5 -21t-22.5 -25q-11 -15 -35 -26.5t-48 -11.5q-35 0 -46 26q-22 55 -77 92q-7 4 -7 12z" />
    <glyph glyph-name="ncaron" unicode="&#x148;" horiz-adv-x="406" 
d="M377 263q0 -78 6 -158q2 -6 2 -10q0 -3 -2 -9q0 -1 -0.5 -1h-0.5v-2q-6 -17 -28 -29.5t-47 -14.5q-40 -4 -48 21q-35 94 -111 260l-12 28q-8 -125 -10 -267q0 -21 -28 -37.5t-57 -16.5q-18 0 -29 7t-10 23q6 272 39 515l1 4q-2 22 27 40t58 18q30 0 37 -20
q32 -87 95 -224q6 94 21 191q3 20 32 35.5t57 15.5q36 0 32 -26q-24 -182 -24 -343zM71 848q0 11 14.5 23.5t26.5 18.5q32 18 61 18q18 0 29 -8q24 -16 44 -37q51 31 100 30q21 0 33.5 -9t12.5 -22q0 -19 -21 -36q-13 -11 -34 -24q-18 -11 -30.5 -21t-22.5 -25
q-11 -15 -35 -26.5t-48 -11.5q-35 0 -46 26q-22 55 -77 92q-7 4 -7 12z" />
    <glyph glyph-name="Eng" unicode="&#x14a;" horiz-adv-x="480" 
d="M442 254q0 -129 -28.5 -252.5t-86.5 -229.5q-6 -10 -23.5 -17t-35.5 -7q-20 0 -26 9q-68 31 -123 125q-3 6 -3 11q0 15 19.5 26t39.5 11q21 0 26 -11l13 -25q16 -31 27 -48.5t20 -17.5q5 0 8 7q86 195 86 400q0 65 -9 129q-2 17 18 29t42 12q27 0 28 -17q8 -70 8 -134z
M202 847h3q16 0 21 -14q6 -11 8 -30q2 -10 2 -14q14 -49 25.5 -85.5t19.5 -61.5q8 -27 25 -81.5t29 -96.5q4 -13 5 -17q0 28 -2 84l-1 42l-1 26q-1 41 -3.5 68t-9.5 53q0 26 8 46l12 26q11 21 33 42q16 14 35 17q17 0 26 -15q15 -39 17 -85q0 -28 1 -41q0 -52 1 -77
q0 -55 -2 -163q0 -55 -6 -163l-1 -21q-1 -11 -2.5 -38t-4.5 -48q-9 -67 -22 -106q-11 -29 -20 -45q-10 -19 -34 -41q-17 -15 -33 -15q-6 0 -12 3q-16 8 -27 42q-9 28 -18 66q-6 28 -8 42q-11 56 -16 76q-11 56 -37 166q-33 -204 -102 -338q-7 -15 -19.5 -28t-25.5 -19
q-7 -4 -16 -4q-8 0 -12 2q-13 9 -13 31q0 9 1 13q5 25 16 44l2 4q18 41 32 90q16 67 25 138t16 162q2 50 2 73l-1 52q0 18 -1 28q0 7 -0.5 17.5t0.5 24.5q0 34 1.5 53.5t8.5 37.5q16 41 42 63q15 12 33 15z" />
    <glyph glyph-name="eng" unicode="&#x14b;" horiz-adv-x="436" 
d="M386 56q0 -194 -81 -389q-5 -12 -25.5 -21t-40.5 -9q-15 0 -21 6q-71 26 -138 116q-4 5 -4 13q0 16 21 29.5t42 13.5q16 0 23 -10q30 -43 77 -79q22 69 32 119.5t10 94.5t-10 87t-32 94q-4 17 23.5 70.5t58 93.5t34.5 23q31 -130 31 -252zM377 263q0 -78 6 -158
q2 -6 2 -10q0 -3 -2 -9q0 -1 -0.5 -1h-0.5v-2q-6 -17 -28 -29.5t-47 -14.5q-40 -4 -48 21q-35 94 -111 260l-12 28q-8 -125 -10 -267q0 -21 -28 -37.5t-57 -16.5q-18 0 -29 7t-10 23q6 272 39 515l1 4q-2 22 27 40t58 18q30 0 37 -20q32 -87 95 -224q6 94 21 191
q3 20 32 35.5t57 15.5q36 0 32 -26q-24 -182 -24 -343z" />
    <glyph glyph-name="Omacron" unicode="&#x14c;" horiz-adv-x="606" 
d="M361 837q87 0 130 -74.5t43 -193.5q0 -124 -43.5 -255.5t-119 -218.5t-167.5 -87q-43 0 -84 20q-50 25 -74.5 85t-24.5 144q0 114 40.5 242.5t107.5 221.5t142 110q27 6 50 6zM198.5 615.5q-42.5 -52.5 -67 -131t-24.5 -153.5q0 -76 27 -123.5t81 -47.5q22 0 44 7
q46 15 85.5 68t62.5 124.5t23 138.5q0 78 -33.5 125.5t-103.5 45.5q-52 -1 -94.5 -53.5zM215 813.5q-7 5.5 -7 14.5q0 10 11 23q15 18 41 26.5t52 8.5q76 -2 118 -2q41 0 82 3q25 11 47 11q14 0 24 -5.5t13 -15.5l2 -8q1 -3 1 -9q0 -17 -15 -32t-36 -23t-37 -6q-59 4 -176 6
q-34 0 -100 2q-13 1 -20 6.5z" />
    <glyph glyph-name="omacron" unicode="&#x14d;" horiz-adv-x="530" 
d="M348 360q0 45 -15.5 82.5t-48.5 61.5q-22 16 -42 16q-8 0 -20 -4q9 -4 9 -14q0 -6 -4 -14q-23 -44 -36 -95.5t-13 -103.5q0 -60 18 -114q12 -30 25 -47q6 -7 12 -10q29 20 52.5 56t39.5 75q23 54 23 111zM395 557q35 -33 53 -79.5t18 -96.5q0 -59 -23 -121t-63 -114
t-89 -82q-46 -28 -90 -28t-77 27t-48 78q-17 52 -17 117q0 39 6 76q-7 -2 -21 -2q-34 0 -34 23q0 8 2 13q34 95 102.5 165.5t157.5 70.5q13 0 39 -4q49 -10 84 -43zM116 647.5q-7 5.5 -7 14.5q0 10 11 23q15 18 41 26.5t52 8.5q76 -2 118 -2t82 3q25 11 47 11q14 0 24 -5.5
t13 -15.5l2 -8q1 -3 1 -9q0 -17 -15 -32t-36 -23t-37 -6q-59 4 -176 6q-34 0 -100 2q-13 1 -20 6.5z" />
    <glyph glyph-name="Obreve" unicode="&#x14e;" 
d="M361 837q87 0 130 -74.5t43 -193.5q0 -124 -43.5 -255.5t-119 -218.5t-167.5 -87q-43 0 -84 20q-50 25 -74.5 85t-24.5 144q0 114 40.5 242.5t107.5 221.5t142 110q27 6 50 6zM198.5 615.5q-42.5 -52.5 -67 -131t-24.5 -153.5q0 -76 27 -123.5t81 -47.5q22 0 44 7
q46 15 85.5 68t62.5 124.5t23 138.5q0 78 -33.5 125.5t-103.5 45.5q-52 -1 -94.5 -53.5zM418 937q32 19 65 19q20 0 32 -8t12 -25q0 -40 -27.5 -70t-68.5 -46.5t-79 -19.5q-59 -4 -101.5 25t-67.5 84q-6 14 9.5 29.5t42 26t48.5 10.5q27 0 34 -16q11 -24 23.5 -41t30.5 -27
q1 0 4 -1t7 -2q4 9 3 19q1 24 33 43z" />
    <glyph glyph-name="obreve" unicode="&#x14f;" horiz-adv-x="474" 
d="M348 360q0 45 -15.5 82.5t-48.5 61.5q-22 16 -42 16q-8 0 -20 -4q9 -4 9 -14q0 -6 -4 -14q-23 -44 -36 -95.5t-13 -103.5q0 -60 18 -114q12 -30 25 -47q6 -7 12 -10q29 20 52.5 56t39.5 75q23 54 23 111zM395 557q35 -33 53 -79.5t18 -96.5q0 -59 -23 -121t-63 -114
t-89 -82q-46 -28 -90 -28t-77 27t-48 78q-17 52 -17 117q0 39 6 76q-7 -2 -21 -2q-34 0 -34 23q0 8 2 13q34 95 102.5 165.5t157.5 70.5q13 0 39 -4q49 -10 84 -43zM360 786q32 19 65 19q20 0 32 -8t12 -25q0 -40 -27.5 -70t-68.5 -46.5t-79 -19.5q-59 -4 -101.5 25
t-67.5 84q-6 14 9.5 29.5t42 26t48.5 10.5q27 0 34 -16q11 -24 23.5 -41t30.5 -27q1 0 4 -1t7 -2q4 9 3 19q1 24 33 43z" />
    <glyph glyph-name="Ohungarumlaut" unicode="&#x150;" 
d="M361 837q87 0 130 -74.5t43 -193.5q0 -124 -43.5 -255.5t-119 -218.5t-167.5 -87q-43 0 -84 20q-50 25 -74.5 85t-24.5 144q0 114 40.5 242.5t107.5 221.5t142 110q27 6 50 6zM198.5 615.5q-42.5 -52.5 -67 -131t-24.5 -153.5q0 -76 27 -123.5t81 -47.5q22 0 44 7
q46 15 85.5 68t62.5 124.5t23 138.5q0 78 -33.5 125.5t-103.5 45.5q-52 -1 -94.5 -53.5zM410 887q-2 -3 -12 -17.5t-20 -26t-20 -19.5q-14 -11 -33 -18t-38 -7q-8 0 -12 1q-11 2 -20.5 9t-9.5 17q0 7 4 12q10 15 23 29l18 24q4 5 27 44q12 19 37 30t50 14q16 2 29 -3t13 -17
q0 -4 -3 -12q-10 -24 -33 -60zM390.5 802.5q-7.5 6.5 -7.5 15.5q0 12 11 23q32 33 59 80q11 18 35.5 29t50.5 15q16 2 29 -3t13 -17q0 -4 -3 -12q-23 -53 -74 -104q-18 -18 -43.5 -27t-50.5 -7q-12 1 -19.5 7.5z" />
    <glyph glyph-name="ohungarumlaut" unicode="&#x151;" 
d="M348 360q0 45 -15.5 82.5t-48.5 61.5q-22 16 -42 16q-8 0 -20 -4q9 -4 9 -14q0 -6 -4 -14q-23 -44 -36 -95.5t-13 -103.5q0 -60 18 -114q12 -30 25 -47q6 -7 12 -10q29 20 52.5 56t39.5 75q23 54 23 111zM395 557q35 -33 53 -79.5t18 -96.5q0 -59 -23 -121t-63 -114
t-89 -82q-46 -28 -90 -28t-77 27t-48 78q-17 52 -17 117q0 39 6 76q-7 -2 -21 -2q-34 0 -34 23q0 8 2 13q34 95 102.5 165.5t157.5 70.5q13 0 39 -4q49 -10 84 -43zM308 697q-2 -3 -12 -17.5t-20 -26t-20 -19.5q-14 -11 -33 -18t-38 -7q-8 0 -12 1q-11 2 -20.5 9t-9.5 17
q0 7 4 12q10 15 23 29l18 24q4 5 27 44q12 19 37 30t50 14q16 2 29 -3t13 -17q0 -4 -3 -12q-10 -24 -33 -60zM288.5 612.5q-7.5 6.5 -7.5 15.5q0 12 11 23q32 33 59 80q11 18 35.5 29t50.5 15q16 2 29 -3t13 -17q0 -4 -3 -12q-23 -53 -74 -104q-18 -18 -43.5 -27t-50.5 -7
q-12 1 -19.5 7.5z" />
    <glyph glyph-name="OE" unicode="&#x152;" horiz-adv-x="1174" 
d="M1038 125q0 -16 -17 -33.5t-43.5 -28.5t-50.5 -11q-15 0 -26 4q-58 20 -114 20q-82 0 -158 -41q-10 -6 -30 -10.5t-39 -4.5q-24 0 -37.5 9t-10.5 30q-82 -42 -172 -42q-71 0 -131 28q-69 33 -103 91t-34 128q0 67 28.5 133.5t77.5 115.5q51 50 121.5 79t142.5 29
q57 0 105 -19q4 26 35.5 44.5t64.5 18.5q20 0 32 -9q3 -1 52.5 -31t78.5 -30q9 0 11 5q9 18 45 32.5t67 14.5q34 0 34 -20q0 -6 -3 -14q-26 -55 -77 -81t-116 -26q-34 0 -67 6q0 -68 -3 -136q64 2 97 2q63 0 107 -5q16 -1 25 -10t9 -22q0 -10 -7 -22q-14 -21 -40 -33
t-54 -14q-14 -1 -42 -1q-34 0 -102 4q-5 -60 -13 -106q79 22 151 22q84 0 169 -29q37 -12 37 -37zM389 121q38 0 69.5 20.5t50 57t18.5 80.5q-1 51 -26.5 104t-68.5 88.5t-93 38.5q-54 -21 -89 -91q-27 -57 -27 -113q0 -49 21.5 -91.5t64.5 -69.5q41 -24 80 -24z" />
    <glyph glyph-name="oe" unicode="&#x153;" horiz-adv-x="795" 
d="M785 123q0 -16 -19 -35q-21 -21 -54 -21q-16 0 -27 4q-53 17 -96 17q-75 0 -153 -48q-13 -9 -31.5 -14.5t-34.5 -5.5q-15 0 -24 5.5t-9 17.5q0 7 2 12q29 81 46.5 146t23.5 132q9 90 9 132q0 111 -43 170q-5 6 -5 16q0 20 28 37.5t55 17.5q18 0 26 -8q13 -5 17 -16
q25 -66 69 -111.5t104 -45.5q11 0 33 4q14 2 18 2q17 0 25.5 -7.5t8.5 -20.5q0 -14 -11.5 -28t-30.5 -20q-41 -14 -82 -14q-49 0 -94 20q-2 -56 -5 -84l-7 -63q39 8 78 12l14 1q40 0 40 -27q0 -18 -20 -32t-41 -18q-31 -6 -85 -13q-11 -49 -24 -92q66 24 134 24
q75 0 150 -28q15 -5 15 -18zM348 360q0 45 -15.5 82.5t-48.5 61.5q-22 16 -42 16q-8 0 -20 -4q9 -4 9 -14q0 -6 -4 -14q-23 -44 -36 -95.5t-13 -103.5q0 -60 18 -114q12 -30 25 -47q6 -7 12 -10q29 20 52.5 56t39.5 75q23 54 23 111zM395 557q35 -33 53 -79.5t18 -96.5
q0 -59 -23 -121t-63 -114t-89 -82q-46 -28 -90 -28t-77 27t-48 78q-17 52 -17 117q0 39 6 76q-7 -2 -21 -2q-34 0 -34 23q0 8 2 13q34 95 102.5 165.5t157.5 70.5q13 0 39 -4q49 -10 84 -43z" />
    <glyph glyph-name="Racute" unicode="&#x154;" horiz-adv-x="488" 
d="M183 502q0 -15 2 -41q2 -28 2 -42q7 5 27 15q42 22 66 42t24 45q0 5 -1 8q-4 22 -21 39t-33 25.5t-53 27.5q-7 -49 -12 -99q-1 -7 -1 -20zM305 504l3 5zM308 511v0v0zM309 522l1 -6zM466 390q27 0 27 -59q0 -31 -4.5 -59t-4.5 -31q-7 -51 -19 -90t-36 -72
q-32 -43 -63 -43q-26 0 -61 29l-98 81l-45 38q-5 -22 -21.5 -58.5t-39.5 -65t-48 -28.5q-6 0 -14 3q-20 8 -20 55q0 44 15 110l5 31q1 10 7 50t9 74t3 63q0 32 -2 48q-4 33 -7 47q-10 64 -10 99q0 41 12 72q20 53 58.5 77.5t86.5 24.5q57 0 115 -29.5t90 -71.5
q28 -36 28 -83q0 -49 -29.5 -100t-74 -95t-91.5 -72q39 -29 75 -60q42 -34 63 -50q0 135 83 163q8 2 11 2zM99 833q0 12 11 23l20.5 20.5t28.5 31.5t20 29q11 22 35 34t52 14q14 2 30 -7t16 -22q0 -7 -4 -14q-53 -82 -114 -113q-32 -16 -60 -16q-12 0 -21 3q-14 4 -14 17z
" />
    <glyph glyph-name="racute" unicode="&#x155;" horiz-adv-x="520" 
d="M212 391q39 31 63.5 55t37.5 48q-54 14 -160 46l-5 -203q30 25 35 30zM407 278.5q26 11.5 50 11.5q33 0 33 -21q0 -6 -3 -14q-41 -96 -62 -186q-5 -20 -29 -37q-10 -13 -30.5 -22t-40.5 -9q-17 0 -27.5 7t-11.5 22q-4 65 -42.5 119t-98.5 70l-5 -145q-1 -19 -31.5 -35
t-58.5 -16q-15 0 -24 5.5t-9 17.5l3 138q-13 9 -13 21q0 14 15 27q5 182 12 363q1 21 28.5 36.5t55.5 15.5q21 0 30 -10q109 -30 226 -66q18 4 25 4q17 0 26.5 -7.5t9.5 -22.5q0 -41 -27 -75.5t-75 -76.5l-20 -18q-48 -47 -93 -83q82 -23 132 -91q4 10 21 50q8 16 34 27.5z
M181 778q0 12 11 23l20.5 20.5t28.5 31.5t20 29q11 22 35 34t52 14q14 2 30 -7t16 -22q0 -7 -4 -14q-53 -82 -114 -113q-32 -16 -60 -16q-12 0 -21 3q-14 4 -14 17z" />
    <glyph glyph-name="uni0156" unicode="&#x156;" horiz-adv-x="466" 
d="M300 -59q39 0 34 -23q-20 -93 -80 -159q-15 -17 -42 -26.5t-50 -7.5q-27 3 -27 21q0 10 10 23q43 51 58 119q4 19 25.5 32t46.5 19q10 2 25 2zM161 502q0 -15 2 -41q2 -28 2 -42q7 5 27 15q42 22 66 42t24 45q0 5 -1 8q-4 22 -21 39t-33 25.5t-53 27.5q-7 -49 -12 -99
q-1 -7 -1 -20zM283 504l3 5zM286 511v0v0zM287 522l1 -6zM444 390q27 0 27 -59q0 -31 -4.5 -59t-4.5 -31q-7 -51 -19 -90t-36 -72q-32 -43 -63 -43q-26 0 -61 29l-98 81l-45 38q-5 -22 -21.5 -58.5t-39.5 -65t-48 -28.5q-6 0 -14 3q-20 8 -20 55q0 44 15 110l5 31q1 10 7 50
t9 74t3 63q0 32 -2 48q-4 33 -7 47q-10 64 -10 99q0 41 12 72q20 53 58.5 77.5t86.5 24.5q57 0 115 -29.5t90 -71.5q28 -36 28 -83q0 -49 -29.5 -100t-74 -95t-91.5 -72q39 -29 75 -60q42 -34 63 -50q0 135 83 163q8 2 11 2z" />
    <glyph glyph-name="uni0157" unicode="&#x157;" horiz-adv-x="483" 
d="M268 -59q39 0 34 -23q-20 -93 -80 -159q-15 -17 -42 -26.5t-50 -7.5q-27 3 -27 21q0 10 10 23q43 51 58 119q4 19 25.5 32t46.5 19q10 2 25 2zM205 391q39 31 63.5 55t37.5 48q-54 14 -160 46l-5 -203q30 25 35 30zM400 278.5q26 11.5 50 11.5q33 0 33 -21q0 -6 -3 -14
q-41 -96 -62 -186q-5 -20 -29 -37q-10 -13 -30.5 -22t-40.5 -9q-17 0 -27.5 7t-11.5 22q-4 65 -42.5 119t-98.5 70l-5 -145q-1 -19 -31.5 -35t-58.5 -16q-15 0 -24 5.5t-9 17.5l3 138q-13 9 -13 21q0 14 15 27q5 182 12 363q1 21 28.5 36.5t55.5 15.5q21 0 30 -10
q109 -30 226 -66q18 4 25 4q17 0 26.5 -7.5t9.5 -22.5q0 -41 -27 -75.5t-75 -76.5l-20 -18q-48 -47 -93 -83q82 -23 132 -91q4 10 21 50q8 16 34 27.5z" />
    <glyph glyph-name="Rcaron" unicode="&#x158;" horiz-adv-x="488" 
d="M183 502q0 -15 2 -41q2 -28 2 -42q7 5 27 15q42 22 66 42t24 45q0 5 -1 8q-4 22 -21 39t-33 25.5t-53 27.5q-7 -49 -12 -99q-1 -7 -1 -20zM305 504l3 5zM308 511v0v0zM309 522l1 -6zM466 390q27 0 27 -59q0 -31 -4.5 -59t-4.5 -31q-7 -51 -19 -90t-36 -72
q-32 -43 -63 -43q-26 0 -61 29l-98 81l-45 38q-5 -22 -21.5 -58.5t-39.5 -65t-48 -28.5q-6 0 -14 3q-20 8 -20 55q0 44 15 110l5 31q1 10 7 50t9 74t3 63q0 32 -2 48q-4 33 -7 47q-10 64 -10 99q0 41 12 72q20 53 58.5 77.5t86.5 24.5q57 0 115 -29.5t90 -71.5
q28 -36 28 -83q0 -49 -29.5 -100t-74 -95t-91.5 -72q39 -29 75 -60q42 -34 63 -50q0 135 83 163q8 2 11 2zM79 944q0 11 14.5 23.5t26.5 18.5q32 18 61 18q18 0 29 -8q24 -16 44 -37q51 31 100 30q21 0 33.5 -9t12.5 -22q0 -19 -21 -36q-13 -11 -34 -24q-18 -11 -30.5 -21
t-22.5 -25q-11 -15 -35 -26.5t-48 -11.5q-35 0 -46 26q-22 55 -77 92q-7 4 -7 12z" />
    <glyph glyph-name="rcaron" unicode="&#x159;" horiz-adv-x="513" 
d="M212 391q39 31 63.5 55t37.5 48q-54 14 -160 46l-5 -203q30 25 35 30zM407 278.5q26 11.5 50 11.5q33 0 33 -21q0 -6 -3 -14q-41 -96 -62 -186q-5 -20 -29 -37q-10 -13 -30.5 -22t-40.5 -9q-17 0 -27.5 7t-11.5 22q-4 65 -42.5 119t-98.5 70l-5 -145q-1 -19 -31.5 -35
t-58.5 -16q-15 0 -24 5.5t-9 17.5l3 138q-13 9 -13 21q0 14 15 27q5 182 12 363q1 21 28.5 36.5t55.5 15.5q21 0 30 -10q109 -30 226 -66q18 4 25 4q17 0 26.5 -7.5t9.5 -22.5q0 -41 -27 -75.5t-75 -76.5l-20 -18q-48 -47 -93 -83q82 -23 132 -91q4 10 21 50q8 16 34 27.5z
M172 749q0 11 14.5 23.5t26.5 18.5q32 18 61 18q18 0 29 -8q24 -16 44 -37q51 31 100 30q21 0 33.5 -9t12.5 -22q0 -19 -21 -36q-13 -11 -34 -24q-18 -11 -30.5 -21t-22.5 -25q-11 -15 -35 -26.5t-48 -11.5q-35 0 -46 26q-22 55 -77 92q-7 4 -7 12z" />
    <glyph glyph-name="Sacute" unicode="&#x15a;" horiz-adv-x="606" 
d="M564.5 198q18.5 -20 30 -40.5t11.5 -39.5q0 -24 -18 -45q-22 -27 -54 -27q-14 0 -31 4t-22 5q-79 16 -184 16q-81 0 -172 -8q-8 -1 -23 -2t-27 -1q-36 0 -57.5 11.5t-21.5 42.5q0 18 7 38.5t21 49.5l9 21q15 37 33 56.5t51 19.5q27 0 42.5 -17.5t15.5 -43.5q0 -18 -9 -36
q63 4 143 4q47 0 71 -1q-92 116 -137 175l-69 87q-16 20 -27 31q-37 43 -56 73.5t-19 62.5q0 30 21.5 48.5t51 28t74.5 18.5l42 9q79 20 163 36q7 1 28 5q34 9 60 9q33 0 50 -18q18 -19 18 -39q0 -19 -11.5 -38t-36.5 -50q-30 -36 -38 -53q-13 -28 -27.5 -47t-32.5 -19
q-13 0 -26 10q-14 11 -14 30q0 14 6.5 29.5t13 28.5t8.5 16q-51 -9 -151 -35q-12 -4 -49 -13l120 -138q154 -175 199 -228q5 -6 23.5 -26zM181 778q0 12 11 23l20.5 20.5t28.5 31.5t20 29q11 22 35 34t52 14q14 2 30 -7t16 -22q0 -7 -4 -14q-53 -82 -114 -113
q-32 -16 -60 -16q-12 0 -21 3q-14 4 -14 17z" />
    <glyph glyph-name="sacute" unicode="&#x15b;" 
d="M337.5 514.5q-46.5 26.5 -71.5 26.5q-20 0 -20 -20q0 -7 5 -24q7 -23 31 -43.5t63 -47.5q32 -22 41 -30q44 -38 70 -63.5t47.5 -60t21.5 -70.5q0 -24 -12 -50q-23 -47 -75.5 -72t-111.5 -25q-20 0 -40 3q-136 23 -251 181q-6 9 -6 18q0 22 29.5 40.5t58.5 18.5
q22 0 32 -13q62 -84 122 -123q55 -36 93 -36q31 0 31 27q0 19 -15 47q-15 27 -39 51t-61 55l-27 23q-4 4 -37 29q-27 20 -46 37t-32 37q-17 27 -17 56q0 45 38.5 82.5t88.5 51.5q32 9 61 9q54 0 104.5 -25t102.5 -69q9 -7 9 -17q0 -19 -31 -37t-61 -18q-20 0 -30 9
q-19 16 -65.5 42.5zM181 778q0 12 11 23l20.5 20.5t28.5 31.5t20 29q11 22 35 34t52 14q14 2 30 -7t16 -22q0 -7 -4 -14q-53 -82 -114 -113q-32 -16 -60 -16q-12 0 -21 3q-14 4 -14 17z" />
    <glyph glyph-name="Scircumflex" unicode="&#x15c;" 
d="M564.5 198q18.5 -20 30 -40.5t11.5 -39.5q0 -24 -18 -45q-22 -27 -54 -27q-14 0 -31 4t-22 5q-79 16 -184 16q-81 0 -172 -8q-8 -1 -23 -2t-27 -1q-36 0 -57.5 11.5t-21.5 42.5q0 18 7 38.5t21 49.5l9 21q15 37 33 56.5t51 19.5q27 0 42.5 -17.5t15.5 -43.5q0 -18 -9 -36
q63 4 143 4q47 0 71 -1q-92 116 -137 175l-69 87q-16 20 -27 31q-37 43 -56 73.5t-19 62.5q0 30 21.5 48.5t51 28t74.5 18.5l42 9q79 20 163 36q7 1 28 5q34 9 60 9q33 0 50 -18q18 -19 18 -39q0 -19 -11.5 -38t-36.5 -50q-30 -36 -38 -53q-13 -28 -27.5 -47t-32.5 -19
q-13 0 -26 10q-14 11 -14 30q0 14 6.5 29.5t13 28.5t8.5 16q-51 -9 -151 -35q-12 -4 -49 -13l120 -138q154 -175 199 -228q5 -6 23.5 -26zM435 980.5q23 -15.5 46 -27t30 -14.5q17 -8 17 -23q0 -9 -6.5 -19.5t-15.5 -17.5q-13 -11 -31.5 -17.5t-36.5 -6.5q-16 0 -27 4
q-39 14 -71 33q-5 3 -18 16q-29 -26 -57 -44q-41 -26 -74 -26q-13 0 -21 4q-15 7 -15 19q0 8 6.5 17t16.5 15q65 46 92 93q10 17 39 34t54 17q22 0 32 -15q17 -26 40 -41.5z" />
    <glyph glyph-name="scircumflex" unicode="&#x15d;" 
d="M337.5 514.5q-46.5 26.5 -71.5 26.5q-20 0 -20 -20q0 -7 5 -24q7 -23 31 -43.5t63 -47.5q32 -22 41 -30q44 -38 70 -63.5t47.5 -60t21.5 -70.5q0 -24 -12 -50q-23 -47 -75.5 -72t-111.5 -25q-20 0 -40 3q-136 23 -251 181q-6 9 -6 18q0 22 29.5 40.5t58.5 18.5
q22 0 32 -13q62 -84 122 -123q55 -36 93 -36q31 0 31 27q0 19 -15 47q-15 27 -39 51t-61 55l-27 23q-4 4 -37 29q-27 20 -46 37t-32 37q-17 27 -17 56q0 45 38.5 82.5t88.5 51.5q32 9 61 9q54 0 104.5 -25t102.5 -69q9 -7 9 -17q0 -19 -31 -37t-61 -18q-20 0 -30 9
q-19 16 -65.5 42.5zM437 838.5q23 -15.5 46 -27t30 -14.5q17 -8 17 -23q0 -9 -6.5 -19.5t-15.5 -17.5q-13 -11 -31.5 -17.5t-36.5 -6.5q-16 0 -27 4q-39 14 -71 33q-5 3 -18 16q-29 -26 -57 -44q-41 -26 -74 -26q-13 0 -21 4q-15 7 -15 19q0 8 6.5 17t16.5 15q65 46 92 93
q10 17 39 34t54 17q22 0 32 -15q17 -26 40 -41.5z" />
    <glyph glyph-name="Scedilla" unicode="&#x15e;" 
d="M564.5 198q18.5 -20 30 -40.5t11.5 -39.5q0 -24 -18 -45q-22 -27 -54 -27q-14 0 -31 4t-22 5q-79 16 -184 16q-81 0 -172 -8q-8 -1 -23 -2t-27 -1q-36 0 -57.5 11.5t-21.5 42.5q0 18 7 38.5t21 49.5l9 21q15 37 33 56.5t51 19.5q27 0 42.5 -17.5t15.5 -43.5q0 -18 -9 -36
q63 4 143 4q47 0 71 -1q-92 116 -137 175l-69 87q-16 20 -27 31q-37 43 -56 73.5t-19 62.5q0 30 21.5 48.5t51 28t74.5 18.5l42 9q79 20 163 36q7 1 28 5q34 9 60 9q33 0 50 -18q18 -19 18 -39q0 -19 -11.5 -38t-36.5 -50q-30 -36 -38 -53q-13 -28 -27.5 -47t-32.5 -19
q-13 0 -26 10q-14 11 -14 30q0 14 6.5 29.5t13 28.5t8.5 16q-51 -9 -151 -35q-12 -4 -49 -13l120 -138q154 -175 199 -228q5 -6 23.5 -26zM239 -213q-17 0 -35 3q-20 4 -33 10l-24 13l11 -6q-18 10 -18 27q0 10 6 20.5t15 18.5q14 12 32 19t36 7q17 0 30 -6q8 -3 14 -3
q11 0 17 8t6 19q0 15 -11 26.5t-30 9.5q-22 -3 -43 5t-21 25q0 11 11 25q9 11 17 29t14 34q8 19 28 32t44 19q8 2 24 2q44 0 36 -23q-7 -20 -23 -58q42 -7 67 -34q24 -25 24 -60q0 -30 -20 -65q-21 -34 -54.5 -58t-73.5 -34q-25 -5 -46 -5z" />
    <glyph glyph-name="scedilla" unicode="&#x15f;" 
d="M337.5 514.5q-46.5 26.5 -71.5 26.5q-20 0 -20 -20q0 -7 5 -24q7 -23 31 -43.5t63 -47.5q32 -22 41 -30q44 -38 70 -63.5t47.5 -60t21.5 -70.5q0 -24 -12 -50q-23 -47 -75.5 -72t-111.5 -25q-20 0 -40 3q-136 23 -251 181q-6 9 -6 18q0 22 29.5 40.5t58.5 18.5
q22 0 32 -13q62 -84 122 -123q55 -36 93 -36q31 0 31 27q0 19 -15 47q-15 27 -39 51t-61 55l-27 23q-4 4 -37 29q-27 20 -46 37t-32 37q-17 27 -17 56q0 45 38.5 82.5t88.5 51.5q32 9 61 9q54 0 104.5 -25t102.5 -69q9 -7 9 -17q0 -19 -31 -37t-61 -18q-20 0 -30 9
q-19 16 -65.5 42.5zM239 -279q-17 0 -35 3q-20 4 -33 10l-24 13l11 -6q-18 10 -18 27q0 10 6 20.5t15 18.5q14 12 32 19t36 7q17 0 30 -6q8 -3 14 -3q11 0 17 8t6 19q0 15 -11 26.5t-30 9.5q-22 -3 -43 5t-21 25q0 11 11 25q9 11 17 29t14 34q8 19 28 32t44 19q8 2 24 2
q44 0 36 -23q-7 -20 -23 -58q42 -6 67 -34q24 -25 24 -60q0 -30 -20 -65q-21 -34 -54.5 -58t-73.5 -34q-25 -5 -46 -5z" />
    <glyph glyph-name="Scaron" unicode="&#x160;" horiz-adv-x="606" 
d="M564.5 198q18.5 -20 30 -40.5t11.5 -39.5q0 -24 -18 -45q-22 -27 -54 -27q-14 0 -31 4t-22 5q-79 16 -184 16q-81 0 -172 -8q-8 -1 -23 -2t-27 -1q-36 0 -57.5 11.5t-21.5 42.5q0 18 7 38.5t21 49.5l9 21q15 37 33 56.5t51 19.5q27 0 42.5 -17.5t15.5 -43.5q0 -18 -9 -36
q63 4 143 4q47 0 71 -1q-92 116 -137 175l-69 87q-16 20 -27 31q-37 43 -56 73.5t-19 62.5q0 30 21.5 48.5t51 28t74.5 18.5l42 9q79 20 163 36q7 1 28 5q34 9 60 9q33 0 50 -18q18 -19 18 -39q0 -19 -11.5 -38t-36.5 -50q-30 -36 -38 -53q-13 -28 -27.5 -47t-32.5 -19
q-13 0 -26 10q-14 11 -14 30q0 14 6.5 29.5t13 28.5t8.5 16q-51 -9 -151 -35q-12 -4 -49 -13l120 -138q154 -175 199 -228q5 -6 23.5 -26zM197 901q0 11 14.5 23.5t26.5 18.5q32 18 61 18q18 0 29 -8q24 -16 44 -37q51 31 100 30q21 0 33.5 -9t12.5 -22q0 -19 -21 -36
q-13 -11 -34 -24q-18 -11 -30.5 -21t-22.5 -25q-11 -15 -35 -26.5t-48 -11.5q-35 0 -46 26q-22 55 -77 92q-7 4 -7 12z" />
    </font>
</defs>
</svg>
